<?xml version="1.0" encoding="utf-8"?>
<!-- Generator: Adobe Illustrator 22.0.1, SVG Export Plug-In . SVG Version: 6.00 Build 0)  -->
<svg version="1.1" id="Layer_1" xmlns="http://www.w3.org/2000/svg" xmlns:xlink="http://www.w3.org/1999/xlink" x="0px" y="0px"
	 width="211.3px" height="35.9px" viewBox="0 0 211.3 35.9" style="enable-background:new 0 0 211.3 35.9;" xml:space="preserve">
<style type="text/css">
	.st0{fill-rule:evenodd;clip-rule:evenodd;fill:#FFFFFF;}
	.st1{fill:#FFFFFF;}
</style>
<g>
	<g>
		<path class="st0" d="M3,4.7c-0.2,0.1-0.5,1-0.5,1.2C2.4,6.3,2.6,6.7,2.6,7.1"/>
	</g>
	<g>
		<path class="st0" d="M33,3.2C32.3,3,31.1,3,30.3,3.1"/>
	</g>
	<g>
		<path class="st0" d="M29.3,2.9c0.5,0,1,0,1.5,0c0.5-0.1,0.9-0.2,1.4-0.2c-0.6,0.1-1.1-0.3-1.7-0.1"/>
	</g>
	<g>
		<path class="st0" d="M33.2,3.4c-0.6-0.4-1-0.8-1.7-0.8c-0.5,0-1.2-0.1-1.7,0.1"/>
	</g>
	<g>
		<path class="st0" d="M2.3,4.6c0,0.9-0.2,1.7-0.2,2.6C2.1,6.7,2,6.1,2,5.5C1.9,6,1.9,6.7,1.9,7.2c0.1,0.7,0.6,1.4,0.8,2.1"/>
	</g>
	<g>
		<path class="st0" d="M203,13.4c0.5-2.1-0.6-2.1-1.9-2.1c-1.4,0.1-2.8,0.1-4.2,0c-0.8,0-1.1,0.2-1.1,1.1c0,6.7,0,13.5,0,20.2
			c0,0.8,0.2,1.1,1,1c1.7-0.1,3.5-0.1,5.2,0c0.9,0,1.1-0.3,1.1-1.1c0-2.6,0-5.2,0-7.8c0-3.9,2-6.4,5.9-7c0.9-0.1,1.2-0.4,1.2-1.3
			c-0.1-1.5-0.1-3,0-4.5c0-1-0.4-1.1-1.3-1C206.8,11.3,204.9,12,203,13.4z"/>
		<path class="st0" d="M53.2,0.7c-0.2,0.7,0.2,1.2,0.5,1.8c3.7,9.9,7.5,19.8,11.2,29.7c0.4,1.1,0.4,1.6-1,1.5
			c-1.8-0.1-3.6-0.1-5.4,0c-0.8,0-1.3-0.2-1.5-1c-0.4-1.4-1-2.7-1.4-4.1c-0.2-0.7-0.6-0.9-1.3-0.9c-3.2,0-6.5,0-9.7,0
			c-0.7,0-1.1,0.2-1.3,0.9c-0.5,1.4-1,2.8-1.5,4.2c-0.2,0.5-0.3,0.9-1,0.9c-4.1-0.1-8.2,0.3-12.3-0.3c-6.2-0.9-11-3.6-12.8-10
			c-0.2-0.8-0.9-0.7-1.4-0.8c-7.7-1.8-13-7.7-13.6-15.2c0-0.7,0.3-1.5-0.3-2.1c0-1.1,0.1-2.3,0-3.4C0.4,0.8,0.7,0.7,1.6,0.7
			c9.8,0,19.7,0,29.5,0c0.5,0.4,1,0.3,1.5,0.3c2.8,0.5,5.2,1.7,7,3.9c0.4,0.5,0.7,1,0.4,1.8c-0.9,2.2-1.7,4.3-2.6,6.7
			c-0.4-1-0.7-1.8-1.1-2.5c-1.2-2.5-3.2-3.9-6-4c-7.5,0-15,0-22.4-0.1c-1,0-1,0.5-0.8,1.2c0.8,3.5,2.7,6.1,6,7.6
			c2.1,1,4.3,1.4,6.5,1.2c1.5-0.1,2.2,0.2,1.9,1.8c0,0.2,0,0.4,0,0.6c0,4.2,1.7,6.4,5.7,7.6c2.5,0.7,5,0.6,7.6,0.7
			c1,0,1.5-0.3,1.8-1.3c3-8.1,6.1-16.1,9.1-24.2c0.2-0.4,0.5-0.9,0.3-1.4C48.4,0.7,50.8,0.7,53.2,0.7z M49.5,11.4
			c-1.1,3.2-2,5.9-3,8.6c-0.2,0.6-0.1,0.8,0.6,0.8c1.8,0,3.7,0,5.7,0C51.7,17.7,50.7,14.7,49.5,11.4z"/>
		<path class="st0" d="M152.4,0.9c3.1,0.7,4.3,2.1,4.3,5.5c0,4,0,8.1,0,12.1c0,0.5-0.1,1,0.2,1.6c2.1-2.6,4.1-5.1,6-7.6
			c0.6-0.8,1.3-1.2,2.4-1.1c2.3,0.1,4.7,0,7.3,0c-0.8,1.1-1.4,1.9-2.1,2.7c-1.8,2.3-3.6,4.6-5.4,6.8c-0.6,0.7-0.6,1.1,0,1.9
			c2.9,3.5,5.6,7.1,8.7,11c-2.1,0-4-0.2-5.7,0c-2.4,0.3-3.9-0.5-5.2-2.5c-1.8-2.7-4-5.1-6-7.7c-0.4,0.5-0.2,1.1-0.3,1.6
			c0,2.5,0,5,0,7.5c0,0.9-0.3,1.2-1.2,1.2c-1.6-0.1-3.3,0-4.9,0c-0.7,0-1.1-0.2-1.1-1c0-10.7,0.1-21.3,0.1-32c0.5,0,1,0,1.5,0
			C151.5,1.1,151.9,1,152.4,0.9z"/>
		<path class="st0" d="M180.8,34.2c-0.3-0.5-0.8-0.3-1.2-0.4c-6.2-1.6-9.4-6.5-8.7-13.1c0.6-5.7,5.3-9.8,11.2-10.1
			c7.6-0.4,12.3,5,12,12.9c0,1.1-0.7,0.9-1.3,0.9c-4.5,0-9.1,0-13.6,0c-1.5,0-1.3,0.6-0.8,1.5c1.5,3,6.1,3.7,8.8,1.3
			c0.9-0.8,1.4-0.7,2.3-0.1c0.9,0.7,1.9,1.3,2.9,1.8c0.9,0.5,0.8,0.9,0.2,1.6c-1.9,2-4.1,3.2-6.9,3.5c-0.8,0-1.7-0.3-2.4,0.3
			c-0.1,0-0.2,0-0.3,0c-0.3-0.4-0.6-0.4-0.9,0C181.6,34.2,181.2,34.2,180.8,34.2z M182.5,19.6c1.1,0,2.3,0,3.4,0
			c1.4,0,1.5-0.3,1-1.6c-0.7-1.7-2.2-2.5-4.4-2.4c-2,0.1-3.9,1.5-4.4,3c-0.2,0.8,0.1,1,0.8,0.9C180.1,19.6,181.3,19.6,182.5,19.6z"
			/>
		<path class="st0" d="M97.8,34c-3.2-0.5-4.9-2.2-5.4-5.3c-0.1-0.9-0.2-1.8-0.2-2.7c0-7.9,0-15.8,0-23.6c0-0.5-0.1-1.1-0.1-1.6
			c0.6,0,1.2,0,1.8,0c0.3,0.3,0.6,0.3,1,0.2c3.2,0.6,4.4,2.1,4.4,5.3c0,1.1,0.1,2.2,0,3.3c-0.1,1,0.3,1.2,1.2,1.2c1.3-0.1,2.7,0,4,0
			c0.9,0,1.1,0.3,1.1,1.1c-0.1,1.5,0,3.1,0,4.6c0,0.8-0.2,1.1-1,1c-1.4-0.1-2.9,0-4.3,0c-0.7,0-1,0.2-1,0.9c0,2.2,0,4.4,0,6.6
			c0.1,2.1,0.8,2.8,3,2.8c0.5,0,1,0,1.5-0.1c1.6-0.6,2.1,0,1.8,1.6c-0.1,0.4,0,0.8,0,1.2c0,3.2,0,3.2-3.3,3.6
			C100.9,34,99.3,34,97.8,34z"/>
		<path class="st0" d="M72.1,1c2.1,1.1,3,2.8,2.4,4.9c-0.5,1.8-2.2,3-4.1,2.9c-1.9,0-3.5-1.4-3.9-3.3c-0.4-2,0.5-3.5,2.9-4.8
			c0.6,0,1.2,0,1.8,0C71.4,1,71.7,1,72.1,1z"/>
		<path class="st0" d="M126.9,25.5c0,2.3,0,4.7,0,7c0,0.5,0.1,1.1-0.8,1.1c-4.2-0.1-8.5,0.4-12.7-0.4c-4.8-0.8-7-4.1-5.7-8.5
			c0.8-2.5,2.6-3.8,4.9-4.6c1.9-0.6,3.9-0.8,5.9-0.6c1.2,0.1,1.3-0.4,1.2-1.4c-0.3-1.8-1.6-2.7-3.6-2.4c-1.5,0.2-2.8,0.7-4,1.6
			c-0.7,0.6-1.2,0.4-1.7-0.3c-0.8-1.1-1.6-2-2.4-3c-0.4-0.5-0.3-0.8,0.2-1.2c3.5-2.9,11-3.5,14.9-1.1c2.6,1.6,3.7,4,3.8,6.9
			C126.9,20.9,126.9,23.2,126.9,25.5z M119.8,26.8c0-2.8,0.3-2.5-1.5-2.5c-2.6,0-3.7,0.7-3.7,2.4c0,1.6,1.1,2.2,3.6,2.4
			C120.4,29.2,119.7,27.8,119.8,26.8z"/>
		<path class="st0" d="M140.1,34c-0.3,0-0.6,0-0.9,0c-1.2,0-2.4,0-3.7,0c-2.4-0.2-4.5-1.1-6.5-2.5c-0.7-0.5-1-1-0.3-1.6
			c0.1-0.1,0.3-0.3,0.4-0.5c0.8-1,1.4-2.4,2.4-2.8c1.1-0.5,2,1.1,3.1,1.5c1.5,0.6,2.9,1,4.5,0.5c0.7-0.2,1.2-0.6,1.3-1.5
			c0.1-0.9-0.3-1.5-1.1-1.7c-1-0.4-2.1-0.7-3.1-1c-0.8-0.2-1.6-0.4-2.4-0.7c-2.2-0.9-3.9-2.3-4.2-4.8c-0.4-2.8,0.5-5.2,2.9-6.8
			c3.1-2,6.4-2.2,9.9-1.4c1.7,0.4,3.2,1,4.6,2c0.7,0.5,1,0.9,0.3,1.6c-0.1,0.1-0.3,0.3-0.4,0.5c-0.7,0.9-1.3,2.2-2.3,2.7
			c-1.1,0.5-1.9-0.9-3-1.3c-1.4-0.5-2.7-0.7-4.1-0.2c-0.7,0.2-1.1,0.7-1.1,1.4c0,0.7,0.4,1.2,1.1,1.4c0.9,0.3,1.8,0.6,2.7,0.8
			c1.2,0.3,2.4,0.6,3.5,1.2c2.2,1.1,3.8,2.7,3.9,5.4c0.1,2.8-1,5-3.4,6.5C143,33.4,141.6,33.9,140.1,34z"/>
		<path class="st0" d="M203,13.4c1.9-1.5,3.8-2.1,5.8-2.4c0.9-0.1,1.3-0.1,1.3,1c-0.1,1.5-0.1,3,0,4.5c0.1,0.9-0.3,1.1-1.2,1.3
			c-3.9,0.6-5.9,3.1-5.9,7c0,2.6,0,5.2,0,7.8c0,0.8-0.2,1.1-1.1,1.1c-1.7-0.1-3.5-0.1-5.2,0c-0.8,0-1-0.3-1-1c0-6.7,0-13.5,0-20.2
			c0-0.9,0.3-1.1,1.1-1.1c1.4,0.1,2.8,0.1,4.2,0C202.4,11.3,203.5,11.3,203,13.4z"/>
		<path class="st0" d="M83.5,13.5c2-1.6,3.9-2.2,5.9-2.5c1-0.2,1.3,0.1,1.2,1.1c0,0.6,0,1.2,0,1.8c0,1.1,0.3,2.3-0.1,3.3
			c-0.4,1.1-1.9,0.7-2.8,1.1c-2.6,1.2-4.1,3.3-4.1,6.2c0,2.7,0,5.4,0,8.1c0,0.9-0.2,1.2-1.2,1.2c-1.7-0.1-3.4,0-5.1,0
			c-0.7,0-1.1-0.1-1.1-1c0-6.8,0-13.6,0-20.4c0-0.8,0.3-1,1.1-1c1.5,0,3,0.1,4.5,0C83.2,11.3,83.9,11.6,83.5,13.5z"/>
		<path class="st0" d="M66.8,22.2c0-3.4,0-6.9,0-10.3c0-0.9,0.3-1.2,1.2-1.1c1,0.1,2.1,0.2,3.1,0.5c1.9,0.7,3.1,2.1,3.1,4.1
			c0.1,5.8,0,11.6,0,17.3c0,0.8-0.3,1-1.1,1c-1.7,0-3.5-0.1-5.2,0c-0.9,0-1.2-0.3-1.2-1.2C66.8,29.1,66.8,25.6,66.8,22.2z"/>
		<g>
			<path class="st0" d="M152.9,3.4c-0.1-0.3-0.8-0.3-1.1-0.3c0.9-0.2,2.2,0.5,2.4,1.4"/>
		</g>
		<g>
			<path class="st0" d="M151.8,3c0.2,0,0.3,0,0.5,0.1"/>
		</g>
		<g>
			<path class="st0" d="M94.3,4c0-0.2,0-0.9-0.2-1"/>
		</g>
		<g>
			<path class="st0" d="M72.1,4.8c0-0.4,0-0.7-0.2-1.1c-0.2-0.3-0.5-0.9-0.9-0.5"/>
		</g>
		<g>
			<path class="st0" d="M178.7,31.4c0,0.2,0.4,0.4,0.5,0.5c0.2,0.2,0.4,0.4,0.7,0.6c0.4,0.2,0.8,0.6,1.2,0.8c0.8,0.4,2,0.2,2.8,0
				c1.4-0.2,2.7-0.5,3.9-1.2"/>
		</g>
		<g>
			<path class="st0" d="M180.1,33c0.4,0.1,0.7,0.2,1.1,0.3"/>
		</g>
		<g>
			<path class="st0" d="M180.5,33c0.2,0.3,0.8,0.3,1.2,0.4c0.6,0.1,1.3,0.1,1.9-0.1"/>
		</g>
		<g>
			<path class="st0" d="M153.3,6.7c0-0.8-0.5-1.8-0.7-2.6c-0.1-0.3-0.1-0.9-0.3-1.2c-0.2-0.3-0.6-0.3-1-0.3"/>
		</g>
		<g>
			<path class="st0" d="M95.1,7.6c0.2-1-0.1-2.1-0.2-3c-0.1-0.4-0.1-0.8-0.1-1.1c0-0.6,0-0.7-0.6-0.8"/>
		</g>
		<g>
			<path class="st0" d="M72,4.7c0-0.4,0-0.7-0.2-1.1c-0.1-0.3-0.3-1-0.5-1.1"/>
		</g>
		<g>
			<path class="st1" d="M206.6,35.9c-1.1,0-2.1-0.9-2.1-2.1c0-1.1,0.9-2.1,2.1-2.1c1.1,0,2.1,0.9,2.1,2.1
				C208.7,35,207.8,35.9,206.6,35.9z M206.6,32.3c-0.8,0-1.5,0.7-1.5,1.5c0,0.8,0.7,1.5,1.5,1.5c0.8,0,1.5-0.7,1.5-1.5
				C208.2,33,207.5,32.3,206.6,32.3z"/>
		</g>
		<g>
			<path class="st1" d="M206.4,34.1v0.7h-0.4v-1.8h0.5c0.2,0,0.4,0,0.5,0.1c0.1,0.1,0.2,0.2,0.2,0.4c0,0.1,0,0.2-0.1,0.3
				c-0.1,0.1-0.1,0.1-0.2,0.2l0.5,0.8h-0.4l-0.4-0.7H206.4z M206.4,33.7h0.1c0.1,0,0.2,0,0.3-0.1c0.1,0,0.1-0.1,0.1-0.2
				c0-0.1,0-0.1-0.1-0.2c-0.1,0-0.2-0.1-0.3-0.1h-0.1V33.7z"/>
		</g>
	</g>
</g>
</svg>
