<?xml version="1.0" encoding="utf-8"?>
<!-- Generator: Adobe Illustrator 16.0.0, SVG Export Plug-In . SVG Version: 6.00 Build 0)  -->
<!DOCTYPE svg PUBLIC "-//W3C//DTD SVG 1.1//EN" "http://www.w3.org/Graphics/SVG/1.1/DTD/svg11.dtd">
<svg version="1.1" id="Layer_1" xmlns="http://www.w3.org/2000/svg" xmlns:xlink="http://www.w3.org/1999/xlink" x="0px" y="0px"
	 width="119.5px" height="16.9px" viewBox="0 0 119.5 16.9" style="enable-background:new 0 0 119.5 16.9;" xml:space="preserve">
<style type="text/css">
<![CDATA[
	.st0{fill:#737373;}
]]>
</style>
<g>
	<path class="st0" d="M21,0l-3.8,5.2H38c1.1,0,1,0.4,0.5,1.1C38,7,37.1,8.2,36.6,8.9c-0.3,0.4-0.8,1,0.9,1H46c0,0,1.4-1.9,2.5-3.4
		C50.1,4.4,48.6,0,43,0L21,0z"/>
	<path class="st0" d="M15.7,16.9l7.7-10.4h9.5c1.1,0,1,0.4,0.5,1.1c-0.5,0.7-1.4,1.9-1.9,2.6c-0.3,0.4-0.8,1,0.9,1H45
		c-1.1,1.5-4.5,5.7-10.7,5.7H15.7L15.7,16.9z M59.6,11.2l-4.2,5.7h-11c0,0,4.2-5.7,4.2-5.7L59.6,11.2z M76.4,10H49.5l7.3-10h11
		l-4.2,5.7h4.9L72.7,0h11L76.4,10z M75.4,11.2l-4.2,5.7h-11c0,0,4.2-5.7,4.2-5.7H75.4L75.4,11.2z M0,13.5h16.2l-0.9,1.2H0V13.5z
		 M0,11.2h17.8l-0.9,1.2H0V11.2z M0,15.7h14.5l-0.9,1.2H0V15.7z M119.5,14.7h-16.1l0.9-1.2h15.2V14.7z M119.5,16.9l-17.7,0l0.9-1.2
		h16.9V16.9z M105.9,11.2h13.6v1.2H105L105.9,11.2z M98.9,0l-7.3,10H79.9c0,0,7.3-10,7.3-10H98.9L98.9,0z M79,11.2
		c0,0-0.8,1.1-1.2,1.6c-1.4,1.9-0.2,4,4.3,4h17.6l4.2-5.7H79z"/>
</g>
</svg>
