<?xml version="1.0" encoding="utf-8"?>
<!-- Generator: Adobe Illustrator 22.0.1, SVG Export Plug-In . SVG Version: 6.00 Build 0)  -->
<svg version="1.1" id="Layer_1" xmlns="http://www.w3.org/2000/svg" xmlns:xlink="http://www.w3.org/1999/xlink" x="0px" y="0px"
	 width="127.3px" height="59.9px" viewBox="0 0 127.3 59.9" style="enable-background:new 0 0 127.3 59.9;" xml:space="preserve">
<style type="text/css">
	.st0{fill:#FFFFFF;}
</style>
<g>
	<g>
		<polygon class="st0" points="101.4,51.6 101.7,11 86.7,10.9 86.8,0.3 127.3,0.6 127.2,11.2 112.3,11.1 112,51.7 		"/>
		<path class="st0" d="M0.1,49.3c9.3-1,16.5-8.9,16.6-18.4l0.1-20.1l-7.5,0L9.3,0.1l18,0.1l-0.2,30.7C27.1,46.3,15.1,58.8,0,59.9
			L0.1,49.3z"/>
		<g>
			<polygon class="st0" points="79,1.1 68.4,1 57,17.9 45.8,0.9 35.2,0.8 51.7,25.7 34.9,50.4 45.5,50.4 56.9,33.6 68.1,50.6 
				78.7,50.7 62.2,25.8 			"/>
			<path class="st0" d="M80.2,51.5l-12.5-0.1L56.9,35.1l-11,16.2l-12.5-0.1l17.3-25.5L33.7,0l12.5,0.1L57,16.4L68,0.2l12.5,0.1
				L63.2,25.8L80.2,51.5z M68.6,49.8l8.6,0.1L61.3,25.8L77.5,1.9l-8.6-0.1L57,19.3L45.3,1.7l-8.6-0.1l15.9,24.1L36.4,49.6l8.6,0.1
				l11.9-17.5L68.6,49.8z"/>
		</g>
	</g>
</g>
</svg>
