<?xml version="1.0" encoding="utf-8"?>
<!-- Generator: Adobe Illustrator 22.0.1, SVG Export Plug-In . SVG Version: 6.00 Build 0)  -->
<svg version="1.1" id="Layer_1" xmlns="http://www.w3.org/2000/svg" xmlns:xlink="http://www.w3.org/1999/xlink" x="0px" y="0px"
	 width="95.7px" height="45px" viewBox="0 0 95.7 45" style="enable-background:new 0 0 95.7 45;" xml:space="preserve">
<style type="text/css">
	.st0{fill:#737373;}
</style>
<g>
	<polygon class="st0" points="65.1,0.4 65.1,8.3 76.2,8.4 76,38.7 84,38.7 84.1,8.4 95.3,8.5 95.3,0.6 	"/>
	<path class="st0" d="M7.3,8.1l5.6,0l-0.1,15c0,7.1-5.4,13-12.4,13.8l-0.1,7.9c11.3-0.8,20.2-10.1,20.3-21.6l0.1-22.9L7.3,0.2
		L7.3,8.1z"/>
	<polygon class="st0" points="51.1,0.3 42.9,12.4 34.8,0.2 25.5,0.2 38.2,19.3 25.3,38.4 34.6,38.4 42.8,26.3 50.9,38.5 60.2,38.6 
		47.5,19.4 60.4,0.4 	"/>
</g>
</svg>
