<?xml version="1.0" encoding="utf-8"?>
<!-- Generator: Adobe Illustrator 22.0.1, SVG Export Plug-In . SVG Version: 6.00 Build 0)  -->
<svg version="1.1" id="_x31_170px_grid" xmlns="http://www.w3.org/2000/svg" xmlns:xlink="http://www.w3.org/1999/xlink" x="0px"
	 y="0px" width="216.9px" height="60.4px" viewBox="0 0 216.9 60.4" style="enable-background:new 0 0 216.9 60.4;"
	 xml:space="preserve">
<style type="text/css">
	.st0{fill:#FFDA30;}
</style>
<g>
	<path d="M67.9,5.2L67.9,5.2C64,1.3,58.3-0.2,53,1.3L33.5,6.4c-10.6,2.8-37.3,8.1-32.4,20C6.2,39,22.6,53,35,57.8
		C53.3,65,63,52.2,67.1,39c0.1-0.3,0.2-0.6,0.3-0.8v-0.1l0.1-0.2c0.3-0.9,0.5-1.8,0.7-2.7L72,20.3C73.3,14.8,71.8,9.1,67.9,5.2z"/>
	<path d="M139.7,6.2h7.1v37.6h-7.1V6.2z M173.6,26.5c0.6,1.5,1,3.3,1,5.1v0.9c0,0.3,0,0.7,0,1.3v0.6h-16.7c0.1,0.2,0.2,0.4,0.3,0.6
		c0.3,0.5,0.7,0.9,1.2,1.3c0.5,0.4,1.1,0.7,1.8,1c0.6,0.3,1.4,0.4,2.3,0.4c0.9,0,1.9-0.2,2.9-0.5s1.9-0.9,2.8-1.7l0.6-0.5l3.7,5.5
		l-0.5,0.4c-1,0.8-2.3,1.6-3.9,2.3c-1.6,0.7-3.6,1.1-5.7,1.1c-1.8,0-3.6-0.3-5.1-1c-1.5-0.6-2.9-1.6-4.1-2.7
		c-1.2-1.1-2.1-2.5-2.8-4.1c-0.7-1.5-1-3.2-1-5s0.3-3.4,0.9-4.9c0.6-1.5,1.5-2.9,2.5-4s2.3-2,3.8-2.7s3.1-1,4.9-1
		c1.7,0,3.3,0.3,4.7,0.9c1.5,0.6,2.8,1.5,3.9,2.6C172.1,23.6,172.9,25,173.6,26.5z M168,28.9c-0.1-0.2-0.1-0.4-0.2-0.6
		c-0.2-0.5-0.5-0.9-0.9-1.3s-0.9-0.7-1.5-1s-1.4-0.4-2.2-0.4s-1.6,0.1-2.2,0.4c-0.5,0.2-1,0.6-1.5,1c-0.4,0.4-0.7,0.8-0.9,1.3
		c-0.1,0.2-0.2,0.5-0.2,0.7h9.6V28.9z M215.2,33.1c-0.5-0.8-1.1-1.5-1.9-2.1c-0.7-0.5-1.6-1-2.6-1.3c-0.8-0.3-1.8-0.6-3-0.8l0,0
		c-2-0.4-3.3-0.8-4-1.1c-0.8-0.3-0.8-0.7-0.8-0.8c0-0.3,0.1-0.7,0.9-1c0.7-0.3,1.6-0.5,2.5-0.5c1.1,0,2.1,0.2,3,0.6s1.7,0.8,2.4,1.3
		l0.6,0.4l3.6-5.4l-0.5-0.4c-0.9-0.7-2.1-1.3-3.6-1.9s-3.4-1-5.5-1c-1.6,0-3.1,0.2-4.3,0.6s-2.3,1-3.3,1.8c-0.9,0.8-1.6,1.6-2.1,2.6
		s-0.7,2-0.7,3.1c0,1.2,0.3,2.2,0.8,3.1c0.5,0.8,1.2,1.5,2.1,2.2c0.8,0.6,1.8,1.1,2.9,1.5c0.9,0.4,2,0.7,3.2,0.9
		c0.4,0.1,1,0.2,1.8,0.4c0.5,0.1,1,0.2,1.4,0.4c0.3,0.1,0.5,0.3,0.7,0.4l0,0c0.1,0.1,0.2,0.3,0.2,0.5c0,0.4-0.1,0.8-0.8,1.1
		c-0.8,0.3-1.6,0.5-2.5,0.5c-0.8,0-1.5-0.1-2.2-0.3s-1.3-0.4-1.8-0.7c-0.6-0.3-1.1-0.7-1.5-1s-0.8-0.7-1.2-1.1l-0.5-0.5l-4,5.2
		l0.4,0.4c0.5,0.5,1.1,1.1,1.9,1.6c0.7,0.5,1.6,1,2.5,1.4c1,0.4,2,0.8,3,1c1.1,0.3,2.3,0.4,3.6,0.4c1.4,0,2.7-0.2,3.9-0.5
		c1.3-0.4,2.4-0.9,3.4-1.5c1-0.7,1.8-1.6,2.4-2.6c0.6-1.1,0.9-2.3,0.9-3.6C215.9,35.1,215.7,34,215.2,33.1z M195.7,20.5l-0.5-0.3
		c-1.5-0.9-3-1.3-4.9-1.3c-1.6,0-2.8,0.3-3.9,0.9c-0.4,0.3-0.9,0.6-1.4,1v-1.3h-7v24.2h7.1V32.2c0-1.6,0-3.7,1.4-5.2
		c0.9-1,1.9-1.1,3.1-1.1c0.4,0,1.4,0,2.6,0.8l0.7,0.4L195.7,20.5z M136.4,31.4c0,3.4-1.2,6.3-3.5,8.7c-2.3,2.4-5.2,3.7-8.5,3.7
		c-2.2,0-4.2-0.6-6-1.8v12.4h-6.8V19.6h6.8v1.1c1.7-1.1,3.7-1.6,5.8-1.6c3.4,0,6.3,1.2,8.7,3.6l0,0C135.2,25.1,136.4,28,136.4,31.4z
		 M129.4,31.4c0-3.2-2.6-5.9-5.9-5.9s-5.9,2.6-5.9,5.9s2.6,5.9,5.9,5.9S129.4,34.6,129.4,31.4z M101.2,19.6v11.7
		c0,3.4-2.7,6.1-6.1,6.1S89,34.7,89,31.3V19.6h-7v11.7c0,7.2,5.9,13.1,13.1,13.1s13.1-5.9,13.1-13.1V19.6H101.2z"/>
	<path class="st0" d="M59.8,16.9L55,35.8c-0.4,1.3-1.5,2.2-2.8,2.2s-2.5-1-2.7-2.4l-1.6-8c-0.1-0.5-0.4-1-0.8-1.5
		c-0.4-0.4-0.9-0.7-1.5-0.8l-8-1.6c-0.6-0.1-1.1-0.4-1.5-0.8c-0.5-0.5-0.8-1.2-0.9-1.9c0-1.3,0.9-2.5,2.2-2.8l18.9-4.9
		c1-0.2,2,0,2.7,0.7l0,0C59.8,14.9,60.1,15.9,59.8,16.9z"/>
</g>
</svg>
