<?xml version="1.0" encoding="utf-8"?>
<!-- Generator: Adobe Illustrator 22.0.1, SVG Export Plug-In . SVG Version: 6.00 Build 0)  -->
<svg version="1.1" id="Layer_1" xmlns="http://www.w3.org/2000/svg" xmlns:xlink="http://www.w3.org/1999/xlink" x="0px" y="0px"
	 width="259.3px" height="69.5px" viewBox="0 0 259.3 69.5" style="enable-background:new 0 0 259.3 69.5;" xml:space="preserve">
<style type="text/css">
	.st0{fill:#FFFFFF;}
</style>
<g id="Page-1_1_">
	<g id="Global-Elements_1_" transform="translate(-389.000000, -140.000000)">
		<g id="Global-Nav-Copy-16_1_" transform="translate(290.000000, 125.000000)">
			<g id="WWR_logo_1_" transform="translate(99.000000, 15.000000)">
				<g id="Group-10_1_">
					<path id="Fill-1_1_" class="st0" d="M64.8,66.3c0,1.2-0.9,2-2,2c-1.1,0-2-0.8-2-2s0.9-2,2-2S64.8,65.1,64.8,66.3z M64.5,66.3
						c0-1-0.7-1.7-1.7-1.7s-1.7,0.7-1.7,1.7s0.7,1.7,1.7,1.7C63.7,67.9,64.5,67.2,64.5,66.3z M63.2,67.3c0-0.1-0.1-0.1-0.1-0.2
						l0-0.3c0-0.2-0.1-0.2-0.3-0.2h-0.3v0.7H62v-2h0.9c0.5,0,0.7,0.2,0.7,0.6c0,0.3-0.2,0.5-0.4,0.5c0.2,0,0.3,0.1,0.3,0.3l0.1,0.4
						c0,0.1,0,0.2,0.1,0.2L63.2,67.3L63.2,67.3z M62.8,65.6h-0.4v0.5h0.4c0.2,0,0.3-0.1,0.3-0.3C63.1,65.7,63,65.6,62.8,65.6z"/>
					<path id="Fill-3_1_" class="st0" d="M69.5,34.8C69.5,15.6,53.9,0,34.8,0S0,15.6,0,34.8s15.6,34.8,34.8,34.8
						S69.5,53.9,69.5,34.8z M45.1,36.1H52l-6.8,23.2H38L34.8,45h-0.1l-3.2,14.2h-7.1l-6.9-23.2h6.9l-6.9-23.2h7.3l3.3,15h0.1l3.5-15
						h6.2l3.5,15h0.1l3.3-15H52L45.1,36.1z M41.4,51l3.3-15H38l-3.2-14.2h-0.1l-3.2,14.2h-6.7l3.3,15h0.1l3.5-15h6.2L41.4,51
						L41.4,51z"/>
					<path id="Fill-6_1_" class="st0" d="M90.4,39.8c-2.4-0.4-4,0.9-4.5,3l-0.5-2.8h-3.5v12.4H86v-5.7c0-2.1,1.2-3.1,2.7-3.1
						c0.6,0,1.2,0.1,1.6,0.3L90.4,39.8z M96.8,49.7c-1.4,0-2.3-1-2.3-2.8h7.6c0.1-0.4,0.2-1.1,0.2-1.7c0-3.1-1.8-5.6-5.4-5.6
						c-3.9,0-6.3,2.6-6.3,6.6c0,4,2.4,6.4,6.2,6.4c2.4,0,4.7-1.1,5.4-3.5l-3.3-1.1C98.5,49.2,97.8,49.7,96.8,49.7z M94.5,45
						c0.1-1.5,1-2.5,2.2-2.5c1.2,0,1.8,0.9,1.8,1.9c0,0.2,0,0.4-0.1,0.6H94.5z M108.5,36.5c0-1.4-1.1-2.2-2.4-2.2s-2.4,0.8-2.4,2.2
						c0,1.4,1.1,2.2,2.4,2.2S108.5,37.8,108.5,36.5z M104.1,52.4h4.1V40h-4.1V52.4z M122.1,42.3c-0.5-1.7-1.9-2.6-3.7-2.6
						c-1.8,0-3.3,0.9-3.8,2.7l-0.5-2.4h-3.5v12.4h4.1v-6.8c0-1.9,0.9-2.6,1.9-2.6c1.2,0,1.6,0.7,1.6,1.9v7.4h4.1v-6.8
						c0-1.9,0.9-2.6,1.9-2.6c1.2,0,1.6,0.7,1.6,1.9v7.4h4.1v-8.8c0-2.7-1.6-4-3.9-4C124.2,39.7,122.7,40.6,122.1,42.3z M142.7,43.8
						c0-2.6-1.6-4.2-5.1-4.2c-3.1,0-5.1,1.5-5.4,4l3.7,0.5c0-1.1,0.5-1.7,1.5-1.7c0.9,0,1.4,0.5,1.4,1.5v1.3c-0.4,0-1.1-0.1-1.6-0.1
						c-3.5,0-5.7,1.4-5.7,3.9c0,2.3,1.6,3.6,3.9,3.6c1.6,0,3.1-0.7,3.6-1.9c0.1,0.3,0.2,0.6,0.4,0.8c0.5,0.7,1.4,1.1,2.6,1.1
						c0.8,0,1.7-0.2,2.2-0.6l-0.1-2.6c-0.2,0.2-0.4,0.3-0.7,0.3c-0.4,0-0.8-0.3-0.8-0.9V43.8z M138.8,48c0,1.5-0.9,2-1.9,2
						c-0.9,0-1.5-0.5-1.5-1.3c0-1,0.8-1.5,2.5-1.5c0.3,0,0.6,0,0.9,0L138.8,48L138.8,48z M149.3,43.8c0-1.2,0.6-1.8,1.7-1.8
						c1,0,1.6,0.6,1.6,1.8c0,1.2-0.6,1.8-1.6,1.8C149.9,45.7,149.3,45,149.3,43.8z M157.9,52.9c0-2.4-1.7-3.7-5.1-3.7h-3.3
						c-0.5,0-0.9-0.2-0.9-0.6c0-0.4,0.2-0.6,0.6-0.8c0.6,0.1,1.2,0.2,1.8,0.2c3.2,0,5.7-1.3,5.7-4.1c0-0.8-0.3-1.5-0.7-2.1
						c1.1-0.2,2.1-1,2.3-2.3l-3.2-1.1c-0.1,0.8-0.3,1.6-0.7,2c-0.9-0.5-2.1-0.7-3.4-0.7c-3.4,0-5.6,1.5-5.6,4.2
						c0,1.7,0.9,2.8,2.4,3.5c-1.3,0.3-2.3,1.2-2.3,2.5c0,1.2,0.7,2,1.8,2.3c-1.6,0.2-2.7,1.1-2.7,2.4c0,2.3,3.1,3.1,6,3.1
						C154.2,57.6,157.9,56.3,157.9,52.9z M147.8,53.8c0-0.7,0.6-1.1,1.4-1.1h3.5c1,0,1.6,0.3,1.6,1c0,1-1.4,1.5-3.6,1.5
						C148.9,55.1,147.8,54.7,147.8,53.8z M163.8,36.5c0-1.4-1.1-2.2-2.4-2.2s-2.4,0.8-2.4,2.2c0,1.4,1.1,2.2,2.4,2.2
						C162.6,38.6,163.8,37.8,163.8,36.5z M159.4,52.4h4.1V40h-4.1V52.4z M169.4,40h-3.5v12.4h4.1v-6.7c0-1.9,1-2.6,2.1-2.6
						c1.2,0,1.6,0.7,1.6,2v7.4h4.1v-8.7c0-2.7-1.6-4-3.9-4c-1.9,0-3.4,1-4,2.7L169.4,40z M185.8,49.7c-1.4,0-2.3-1-2.3-2.8h7.6
						c0.1-0.4,0.2-1.1,0.2-1.7c0-3.1-1.8-5.6-5.4-5.6c-3.9,0-6.3,2.6-6.3,6.6c0,4,2.4,6.4,6.1,6.4c2.4,0,4.6-1.1,5.4-3.5l-3.3-1.1
						C187.5,49.2,186.8,49.7,185.8,49.7z M183.5,45c0.1-1.5,1-2.5,2.2-2.5c1.2,0,1.8,0.9,1.8,1.9c0,0.2,0,0.4-0.1,0.6H183.5z
						 M201.1,46.7c0,1.9-1,2.9-2.2,2.9c-1.4,0-2.3-1.1-2.3-3.3c0-2.5,0.9-3.7,2.4-3.7c1.1,0,2.1,0.8,2.1,2.6V46.7z M201.7,52.4h3.5
						V34.6h-4.1v6.9c-0.4-1.1-1.7-1.9-3.4-1.9c-3.1,0-5.2,2.4-5.2,6.8c0,4,2.2,6.3,5,6.3c1.8,0,3.3-0.9,3.8-2.6L201.7,52.4z"/>
					<path id="Fill-8_1_" class="st0" d="M89.4,17.8l-1.8,8h-0.1l-1.7-8h-4l3.4,12.4h3.9l1.8-7.6h0.1l1.8,7.6h3.9l3.4-12.4h-3.9
						l-1.7,8h-0.1l-1.8-8C92.5,17.8,89.4,17.8,89.4,17.8z M106.7,27.5c-1.4,0-2.3-1-2.3-2.8h7.6c0.1-0.4,0.2-1.1,0.2-1.6
						c0-3.1-1.8-5.6-5.4-5.6c-3.9,0-6.3,2.6-6.3,6.6c0,4,2.4,6.4,6.2,6.4c2.4,0,4.7-1.1,5.4-3.5l-3.3-1.1
						C108.4,27.1,107.7,27.5,106.7,27.5z M104.4,22.8c0.1-1.5,1-2.5,2.2-2.5c1.2,0,1.8,0.9,1.8,1.9c0,0.2,0,0.4-0.1,0.6
						C108.3,22.8,104.4,22.8,104.4,22.8z M118.3,14.3c0-1.4-1.1-2.2-2.4-2.2s-2.4,0.8-2.4,2.2c0,1.4,1.1,2.2,2.4,2.2
						C117.2,16.5,118.3,15.7,118.3,14.3z M113.9,30.3h4.1V17.8h-4.1V30.3z M124,21.7c0-1.2,0.6-1.8,1.7-1.8c1,0,1.7,0.6,1.7,1.8
						c0,1.2-0.6,1.9-1.7,1.9C124.6,23.5,124,22.8,124,21.7z M132.6,30.8c0-2.4-1.7-3.7-5.1-3.7h-3.3c-0.5,0-0.9-0.2-0.9-0.6
						c0-0.4,0.2-0.6,0.6-0.8c0.6,0.1,1.2,0.2,1.8,0.2c3.2,0,5.7-1.3,5.7-4.1c0-0.8-0.2-1.5-0.7-2.1c1.1-0.3,2.1-1,2.3-2.3l-3.2-1.1
						c-0.1,0.8-0.3,1.6-0.7,2c-0.9-0.5-2.1-0.7-3.4-0.7c-3.4,0-5.6,1.5-5.6,4.2c0,1.6,0.9,2.8,2.4,3.5c-1.3,0.3-2.3,1.2-2.3,2.5
						c0,1.2,0.7,2,1.8,2.3c-1.6,0.2-2.7,1.1-2.7,2.4c0,2.3,3.1,3.1,6,3.1C128.9,35.4,132.6,34.2,132.6,30.8z M122.5,31.6
						c0-0.7,0.6-1.1,1.4-1.1h3.5c1,0,1.6,0.3,1.6,1c0,1-1.4,1.5-3.6,1.5C123.6,33,122.5,32.6,122.5,31.6z M138.2,12.5h-4.1v17.8h4.1
						v-6.7c0-1.9,1-2.6,2.1-2.6c1.2,0,1.6,0.7,1.6,2v7.4h4.1v-8.7c0-2.7-1.6-4-3.9-4c-1.8,0-3.2,0.9-3.9,2.5L138.2,12.5L138.2,12.5z
						 M156.2,26.7c-0.6,0.4-1.2,0.6-1.9,0.6c-0.9,0-1.4-0.5-1.4-1.5v-5h3.3v-3H153v-3.1l-4.1,0.5v2.6h-1.6v3h1.6v5.6
						c0,2.9,1.8,4.2,4.4,4.2c1.3,0,2.5-0.4,3.4-1L156.2,26.7z M164.9,17.8l-1.8,8H163l-1.7-8h-4l3.4,12.4h3.9l1.8-7.6h0.1l1.8,7.6
						h3.9l3.4-12.4h-3.9l-1.7,8h-0.1l-1.9-8C168,17.8,164.9,17.8,164.9,17.8z M186.9,21.7c0-2.6-1.6-4.2-5.1-4.2
						c-3.1,0-5.1,1.5-5.4,4l3.7,0.5c0-1.1,0.5-1.7,1.5-1.7c0.9,0,1.4,0.5,1.4,1.5v1.3c-0.4,0-1.1-0.1-1.6-0.1
						c-3.5,0-5.7,1.4-5.7,3.9c0,2.3,1.6,3.6,3.9,3.6c1.6,0,3.1-0.7,3.6-1.9c0.1,0.3,0.2,0.6,0.4,0.8c0.5,0.7,1.4,1.1,2.6,1.1
						c0.8,0,1.7-0.2,2.2-0.6l-0.1-2.6c-0.2,0.2-0.4,0.3-0.7,0.3c-0.4,0-0.8-0.2-0.8-0.9V21.7z M183,25.8c0,1.5-0.9,2-1.9,2
						c-0.9,0-1.5-0.5-1.5-1.3c0-1,0.8-1.5,2.5-1.5c0.3,0,0.6,0,0.9,0L183,25.8L183,25.8z M197.6,26.7c-0.6,0.4-1.2,0.6-1.9,0.6
						c-0.9,0-1.4-0.5-1.4-1.5v-5h3.3v-3h-3.2v-3.1l-4.1,0.5v2.6h-1.6v3h1.6v5.6c0,2.9,1.8,4.2,4.4,4.2c1.3,0,2.5-0.4,3.4-1
						L197.6,26.7z M198.9,24c0,4.1,2.4,6.5,6.2,6.5c2.8,0,4.8-1.5,5.3-3.9l-3.5-1.1c-0.1,1.3-0.8,2-1.8,2c-1.4,0-2.2-1.3-2.2-3.5
						c0-2.1,0.7-3.5,2.2-3.5c1.1,0,1.6,0.9,1.8,2l3.5-0.8c-0.3-2.5-2.2-4.2-5.3-4.2C201.3,17.5,198.9,20,198.9,24z M216.1,12.5H212
						v17.8h4.1v-6.7c0-1.9,1-2.6,2.1-2.6c1.2,0,1.6,0.7,1.6,2v7.4h4.1v-8.7c0-2.7-1.6-4-3.9-4c-1.8,0-3.2,0.9-3.9,2.5L216.1,12.5
						L216.1,12.5z M231.9,27.5c-1.4,0-2.3-1-2.3-2.8h7.6c0.1-0.4,0.2-1.1,0.2-1.6c0-3.1-1.8-5.6-5.4-5.6c-3.9,0-6.3,2.6-6.3,6.6
						c0,4,2.4,6.4,6.1,6.4c2.4,0,4.6-1.1,5.4-3.5l-3.3-1.1C233.6,27.1,232.9,27.5,231.9,27.5z M229.6,22.8c0.1-1.5,1-2.5,2.2-2.5
						c1.2,0,1.8,0.9,1.8,1.9c0,0.2,0,0.4-0.1,0.6C233.5,22.8,229.6,22.8,229.6,22.8z M247.7,17.6c-2.4-0.4-4,0.9-4.5,3l-0.5-2.8
						h-3.5v12.4h4.1v-5.7c0-2.1,1.2-3.1,2.7-3.1c0.6,0,1.2,0.1,1.6,0.3L247.7,17.6z M248.3,27.2c0.5,2.3,2.7,3.4,5.4,3.4
						c3.3,0,5.6-1.5,5.6-4.2c0-5-6.8-2.9-6.8-5.1c0-0.7,0.6-1.2,1.5-1.2c1.1,0,1.7,0.6,1.8,1.4l3.4-0.4c-0.4-2.3-2.2-3.6-5.2-3.6
						c-2.9,0-5.3,1.5-5.3,4.2c0,4.8,6.7,2.9,6.7,5c0,0.8-0.7,1.2-1.7,1.2c-1,0-1.9-0.6-2-1.5L248.3,27.2z"/>
				</g>
			</g>
		</g>
	</g>
</g>
</svg>
