<?xml version="1.0" encoding="utf-8"?>
<!-- Generator: Adobe Illustrator 22.0.1, SVG Export Plug-In . SVG Version: 6.00 Build 0)  -->
<svg version="1.1" id="Layer_1" xmlns="http://www.w3.org/2000/svg" xmlns:xlink="http://www.w3.org/1999/xlink" x="0px" y="0px"
	 width="97.1px" height="97.1px" viewBox="0 0 97.1 97.1" style="enable-background:new 0 0 97.1 97.1;" xml:space="preserve">
<style type="text/css">
	.st0{fill:#FFDA30;}
</style>
<g>
	<path class="st0" d="M48.5,12.1c-0.5,0-1-0.4-1-1V1c0-0.5,0.4-1,1-1c0.5,0,1,0.4,1,1v10.1C49.5,11.6,49.1,12.1,48.5,12.1"/>
	<path class="st0" d="M34.2,14.9c-0.4,0-0.7-0.2-0.9-0.6L29.4,5c-0.2-0.5,0-1.1,0.5-1.3c0.5-0.2,1.1,0,1.3,0.5l3.9,9.3
		c0.2,0.5,0,1.1-0.5,1.3C34.5,14.9,34.3,14.9,34.2,14.9"/>
	<path class="st0" d="M22.1,23c-0.2,0-0.5-0.1-0.7-0.3l-7.1-7.1c-0.4-0.4-0.4-1,0-1.4c0.4-0.4,1-0.4,1.4,0l7.1,7.1
		c0.4,0.4,0.4,1,0,1.4C22.5,22.9,22.3,23,22.1,23"/>
	<path class="st0" d="M13.9,35.2c-0.1,0-0.3,0-0.4-0.1l-9.3-3.9C3.7,31,3.5,30.5,3.7,30c0.2-0.5,0.8-0.7,1.3-0.5l9.3,3.9
		c0.5,0.2,0.7,0.8,0.5,1.3C14.7,35,14.3,35.2,13.9,35.2"/>
	<path class="st0" d="M11.1,49.5H1c-0.5,0-1-0.4-1-1c0-0.5,0.4-1,1-1h10.1c0.5,0,1,0.4,1,1C12.1,49.1,11.6,49.5,11.1,49.5"/>
	<path class="st0" d="M4.6,67.7c-0.4,0-0.7-0.2-0.9-0.6c-0.2-0.5,0-1.1,0.5-1.3l9.3-3.9c0.5-0.2,1.1,0,1.3,0.5
		c0.2,0.5,0,1.1-0.5,1.3L5,67.6C4.8,67.7,4.7,67.7,4.6,67.7"/>
	<path class="st0" d="M14.9,83.1c-0.3,0-0.5-0.1-0.7-0.3c-0.4-0.4-0.4-1,0-1.4l7.1-7.1c0.4-0.4,1-0.4,1.4,0c0.4,0.4,0.4,1,0,1.4
		l-7.1,7.1C15.4,83.1,15.2,83.1,14.9,83.1"/>
	<path class="st0" d="M30.3,93.5c-0.1,0-0.3,0-0.4-0.1c-0.5-0.2-0.7-0.8-0.5-1.3l3.9-9.3c0.2-0.5,0.8-0.7,1.3-0.5
		c0.5,0.2,0.7,0.8,0.5,1.3l-3.9,9.3C31.1,93.2,30.7,93.5,30.3,93.5"/>
	<path class="st0" d="M48.5,97.1c-0.5,0-1-0.4-1-1V86c0-0.5,0.4-1,1-1c0.5,0,1,0.4,1,1v10.1C49.5,96.6,49.1,97.1,48.5,97.1"/>
	<path class="st0" d="M66.7,93.5c-0.4,0-0.7-0.2-0.9-0.6L62,83.5c-0.2-0.5,0-1.1,0.5-1.3c0.5-0.2,1.1,0,1.3,0.5l3.9,9.3
		c0.2,0.5,0,1.1-0.5,1.3C67,93.4,66.9,93.5,66.7,93.5"/>
	<path class="st0" d="M82.2,83.1c-0.3,0-0.5-0.1-0.7-0.3l-7.1-7.1c-0.4-0.4-0.4-1,0-1.4c0.4-0.4,1-0.4,1.4,0l7.1,7.1
		c0.4,0.4,0.4,1,0,1.4C82.7,83.1,82.4,83.1,82.2,83.1"/>
	<path class="st0" d="M92.5,67.7c-0.1,0-0.3,0-0.4-0.1l-9.3-3.9c-0.5-0.2-0.7-0.8-0.5-1.3c0.2-0.5,0.8-0.7,1.3-0.5l9.3,3.9
		c0.5,0.2,0.7,0.8,0.5,1.3C93.2,67.5,92.9,67.7,92.5,67.7"/>
	<path class="st0" d="M96.1,49.5H86c-0.5,0-1-0.4-1-1c0-0.5,0.4-1,1-1h10.1c0.5,0,1,0.4,1,1C97.1,49.1,96.6,49.5,96.1,49.5"/>
	<path class="st0" d="M83.2,35.2c-0.4,0-0.7-0.2-0.9-0.6c-0.2-0.5,0-1.1,0.5-1.3l9.3-3.9c0.5-0.2,1.1,0,1.3,0.5
		c0.2,0.5,0,1.1-0.5,1.3l-9.3,3.9C83.4,35.2,83.3,35.2,83.2,35.2"/>
	<path class="st0" d="M75,23c-0.2,0-0.5-0.1-0.7-0.3c-0.4-0.4-0.4-1,0-1.4l7.1-7.1c0.4-0.4,1-0.4,1.4,0c0.4,0.4,0.4,1,0,1.4
		l-7.1,7.1C75.5,22.9,75.3,23,75,23"/>
	<path class="st0" d="M62.9,14.9c-0.1,0-0.3,0-0.4-0.1c-0.5-0.2-0.7-0.8-0.5-1.3l3.9-9.3c0.2-0.5,0.8-0.7,1.3-0.5
		c0.5,0.2,0.7,0.8,0.5,1.3l-3.9,9.3C63.6,14.7,63.3,14.9,62.9,14.9"/>
</g>
</svg>
