<?xml version="1.0" encoding="utf-8"?>
<!-- Generator: Adobe Illustrator 22.0.1, SVG Export Plug-In . SVG Version: 6.00 Build 0)  -->
<svg version="1.1" id="Layer_1" xmlns="http://www.w3.org/2000/svg" xmlns:xlink="http://www.w3.org/1999/xlink" x="0px" y="0px"
	 width="122.9px" height="189.9px" viewBox="0 0 122.9 189.9" style="enable-background:new 0 0 122.9 189.9;" xml:space="preserve"
	>
<style type="text/css">
	.st0{fill:#333333;}
</style>
<g>
	<path class="st0" d="M98.9,3.9c0,2.2-1.7,3.9-3.9,3.9c-2.2,0-3.9-1.7-3.9-3.9C91.1,1.7,92.8,0,95,0C97.1,0,98.9,1.7,98.9,3.9"/>
	<path class="st0" d="M78.5,5.3c0.5,2.1-0.8,4.2-2.9,4.7c-2.1,0.5-4.2-0.8-4.7-2.9c-0.5-2.1,0.8-4.2,2.9-4.7
		C75.9,1.9,78,3.2,78.5,5.3"/>
	<path class="st0" d="M59,11.2c0.9,1.9,0.1,4.3-1.8,5.2c-1.9,0.9-4.3,0.1-5.2-1.8c-0.9-1.9-0.1-4.3,1.8-5.2C55.7,8.5,58,9.3,59,11.2
		"/>
	<path class="st0" d="M41.2,21.3c1.3,1.7,1.1,4.1-0.6,5.5c-1.7,1.3-4.1,1.1-5.5-0.6c-1.3-1.7-1.1-4.1,0.6-5.5
		C37.4,19.4,39.9,19.7,41.2,21.3"/>
	<path class="st0" d="M26.2,35.1c1.7,1.3,2,3.8,0.6,5.5c-1.3,1.7-3.8,2-5.5,0.6c-1.7-1.3-2-3.8-0.6-5.5
		C22.1,34.1,24.5,33.8,26.2,35.1"/>
	<path class="st0" d="M14.6,51.9c1.9,0.9,2.8,3.3,1.8,5.2c-0.9,1.9-3.3,2.8-5.2,1.8c-1.9-0.9-2.8-3.3-1.8-5.2
		C10.3,51.8,12.7,51,14.6,51.9"/>
	<path class="st0" d="M7,70.9c2.1,0.5,3.4,2.6,2.9,4.7c-0.5,2.1-2.6,3.4-4.7,2.9c-2.1-0.5-3.4-2.6-2.9-4.7C2.9,71.7,4.9,70.4,7,70.9
		"/>
	<path class="st0" d="M3.9,91.1c2.2,0,3.9,1.7,3.9,3.9c0,2.2-1.7,3.9-3.9,3.9C1.7,98.9,0,97.1,0,95C0,92.8,1.7,91.1,3.9,91.1"/>
	<path class="st0" d="M5.3,111.4c2.1-0.5,4.2,0.8,4.7,2.9c0.5,2.1-0.8,4.2-2.9,4.7c-2.1,0.5-4.2-0.8-4.7-2.9S3.2,111.9,5.3,111.4"/>
	<path class="st0" d="M11.2,131c1.9-0.9,4.3-0.1,5.2,1.8c0.9,1.9,0.1,4.3-1.8,5.2c-1.9,0.9-4.3,0.1-5.2-1.8
		C8.5,134.2,9.3,131.9,11.2,131"/>
	<path class="st0" d="M21.3,148.7c1.7-1.3,4.1-1.1,5.5,0.6c1.3,1.7,1.1,4.1-0.6,5.5c-1.7,1.3-4.1,1.1-5.5-0.6
		C19.4,152.5,19.6,150,21.3,148.7"/>
	<path class="st0" d="M35.1,163.7c1.3-1.7,3.8-2,5.5-0.6c1.7,1.3,2,3.8,0.6,5.5c-1.3,1.7-3.8,2-5.5,0.6
		C34.1,167.9,33.8,165.4,35.1,163.7"/>
	<path class="st0" d="M51.9,175.3c0.9-1.9,3.3-2.8,5.2-1.8c1.9,0.9,2.8,3.3,1.8,5.2c-0.9,1.9-3.3,2.8-5.2,1.8
		C51.8,179.6,51,177.2,51.9,175.3"/>
	<path class="st0" d="M70.9,182.9c0.5-2.1,2.6-3.4,4.7-2.9s3.4,2.6,2.9,4.7c-0.5,2.1-2.6,3.4-4.7,2.9
		C71.7,187.1,70.4,185,70.9,182.9"/>
	<path class="st0" d="M91.1,186c0-2.2,1.7-3.9,3.9-3.9s3.9,1.7,3.9,3.9c0,2.2-1.7,3.9-3.9,3.9S91.1,188.2,91.1,186"/>
	<path class="st0" d="M111.4,184.6c-0.5-2.1,0.8-4.2,2.9-4.7c2.1-0.5,4.2,0.8,4.7,2.9c0.5,2.1-0.8,4.2-2.9,4.7
		C114,188,111.9,186.7,111.4,184.6"/>
	<path class="st0" d="M119,7c-0.5,2.1-2.6,3.4-4.7,2.9s-3.4-2.6-2.9-4.7c0.5-2.1,2.6-3.4,4.7-2.9C118.2,2.9,119.5,4.9,119,7"/>
	<path class="st0" d="M98.1,20.8c0,1.8-1.4,3.2-3.2,3.2c-1.8,0-3.2-1.4-3.2-3.2c0-1.8,1.4-3.2,3.2-3.2C96.7,17.6,98.1,19,98.1,20.8"
		/>
	<path class="st0" d="M81.5,21.9c0.4,1.7-0.7,3.4-2.4,3.8c-1.7,0.4-3.4-0.7-3.8-2.4C75,21.7,76,20,77.7,19.6
		C79.5,19.2,81.2,20.2,81.5,21.9"/>
	<path class="st0" d="M65.6,26.8c0.8,1.6,0.1,3.5-1.5,4.2c-1.6,0.8-3.5,0.1-4.2-1.5c-0.8-1.6-0.1-3.5,1.5-4.2
		C63,24.5,64.9,25.2,65.6,26.8"/>
	<path class="st0" d="M51.2,35c1.1,1.4,0.9,3.4-0.5,4.5c-1.4,1.1-3.4,0.9-4.5-0.5c-1.1-1.4-0.9-3.4,0.5-4.5
		C48.1,33.4,50.1,33.6,51.2,35"/>
	<path class="st0" d="M39,46.2c1.4,1.1,1.6,3.1,0.5,4.5c-1.1,1.4-3.1,1.6-4.5,0.5c-1.4-1.1-1.6-3.1-0.5-4.5
		C35.6,45.4,37.6,45.1,39,46.2"/>
	<path class="st0" d="M29.5,59.9c1.6,0.8,2.2,2.7,1.5,4.2c-0.8,1.6-2.7,2.2-4.2,1.5c-1.6-0.8-2.2-2.7-1.5-4.2
		C26,59.8,27.9,59.2,29.5,59.9"/>
	<path class="st0" d="M23.4,75.4c1.7,0.4,2.8,2.1,2.4,3.8c-0.4,1.7-2.1,2.8-3.8,2.4c-1.7-0.4-2.8-2.1-2.4-3.8S21.7,75,23.4,75.4"/>
	<path class="st0" d="M20.8,91.8c1.8,0,3.2,1.4,3.2,3.2c0,1.8-1.4,3.2-3.2,3.2c-1.8,0-3.2-1.4-3.2-3.2C17.6,93.2,19,91.8,20.8,91.8"
		/>
	<path class="st0" d="M21.9,108.4c1.7-0.4,3.4,0.7,3.8,2.4c0.4,1.7-0.7,3.4-2.4,3.8c-1.7,0.4-3.4-0.7-3.8-2.4S20.2,108.8,21.9,108.4
		"/>
	<path class="st0" d="M26.8,124.3c1.6-0.8,3.5-0.1,4.2,1.5c0.8,1.6,0.1,3.5-1.5,4.2c-1.6,0.8-3.5,0.1-4.2-1.5
		C24.5,126.9,25.2,125,26.8,124.3"/>
	<path class="st0" d="M35,138.7c1.4-1.1,3.4-0.9,4.5,0.5c1.1,1.4,0.9,3.4-0.5,4.5c-1.4,1.1-3.4,0.9-4.5-0.5S33.6,139.8,35,138.7"/>
	<path class="st0" d="M46.2,151c1.1-1.4,3.1-1.6,4.5-0.5c1.4,1.1,1.6,3.1,0.5,4.5c-1.1,1.4-3.1,1.6-4.5,0.5
		C45.4,154.3,45.1,152.3,46.2,151"/>
	<path class="st0" d="M59.9,160.4c0.8-1.6,2.7-2.2,4.2-1.5c1.6,0.8,2.2,2.7,1.5,4.2c-0.8,1.6-2.7,2.2-4.2,1.5
		C59.8,163.9,59.2,162,59.9,160.4"/>
	<path class="st0" d="M75.4,166.6c0.4-1.7,2.1-2.8,3.8-2.4c1.7,0.4,2.8,2.1,2.4,3.8c-0.4,1.7-2.1,2.8-3.8,2.4S75,168.3,75.4,166.6"
		/>
	<path class="st0" d="M91.8,169.1c0-1.8,1.4-3.2,3.2-3.2c1.8,0,3.2,1.4,3.2,3.2c0,1.8-1.4,3.2-3.2,3.2
		C93.2,172.3,91.8,170.9,91.8,169.1"/>
	<path class="st0" d="M108.4,168c-0.4-1.7,0.7-3.4,2.4-3.8c1.7-0.4,3.4,0.7,3.8,2.4s-0.7,3.4-2.4,3.8S108.8,169.7,108.4,168"/>
	<path class="st0" d="M114.6,23.4c-0.4,1.7-2.1,2.8-3.8,2.4c-1.7-0.4-2.8-2.1-2.4-3.8c0.4-1.7,2.1-2.8,3.8-2.4
		C113.9,20,114.9,21.7,114.6,23.4"/>
	<path class="st0" d="M97.5,36.3c0,1.4-1.1,2.5-2.5,2.5c-1.4,0-2.5-1.1-2.5-2.5c0-1.4,1.1-2.5,2.5-2.5
		C96.3,33.8,97.5,34.9,97.5,36.3"/>
	<path class="st0" d="M84.4,37.2c0.3,1.4-0.5,2.7-1.9,3c-1.4,0.3-2.7-0.5-3-1.9c-0.3-1.4,0.5-2.7,1.9-3C82.7,35,84,35.9,84.4,37.2"
		/>
	<path class="st0" d="M71.8,41c0.6,1.2,0.1,2.8-1.2,3.4c-1.2,0.6-2.7,0.1-3.4-1.2c-0.6-1.2-0.1-2.7,1.2-3.4
		C69.7,39.3,71.2,39.8,71.8,41"/>
	<path class="st0" d="M60.4,47.5c0.9,1.1,0.7,2.7-0.4,3.5c-1.1,0.9-2.7,0.7-3.5-0.4c-0.9-1.1-0.7-2.7,0.4-3.5
		C57.9,46.3,59.5,46.5,60.4,47.5"/>
	<path class="st0" d="M50.7,56.4c1.1,0.9,1.3,2.4,0.4,3.5c-0.9,1.1-2.4,1.3-3.5,0.4c-1.1-0.9-1.3-2.4-0.4-3.5
		C48,55.7,49.6,55.6,50.7,56.4"/>
	<path class="st0" d="M43.2,67.2c1.2,0.6,1.8,2.1,1.2,3.4c-0.6,1.2-2.1,1.8-3.4,1.2c-1.2-0.6-1.8-2.1-1.2-3.4
		C40.5,67.2,42,66.6,43.2,67.2"/>
	<path class="st0" d="M38.3,79.5c1.4,0.3,2.2,1.7,1.9,3c-0.3,1.4-1.7,2.2-3,1.9c-1.4-0.3-2.2-1.7-1.9-3C35.6,80,37,79.1,38.3,79.5"
		/>
	<path class="st0" d="M36.3,92.4c1.4,0,2.5,1.1,2.5,2.5c0,1.4-1.1,2.5-2.5,2.5c-1.4,0-2.5-1.1-2.5-2.5
		C33.8,93.6,34.9,92.4,36.3,92.4"/>
	<path class="st0" d="M37.2,105.6c1.4-0.3,2.7,0.5,3,1.9c0.3,1.4-0.5,2.7-1.9,3c-1.4,0.3-2.7-0.5-3-1.9
		C35,107.2,35.9,105.9,37.2,105.6"/>
	<path class="st0" d="M41,118.1c1.2-0.6,2.7-0.1,3.4,1.2c0.6,1.2,0.1,2.7-1.2,3.3c-1.2,0.6-2.8,0.1-3.4-1.2
		C39.3,120.2,39.8,118.7,41,118.1"/>
	<path class="st0" d="M47.5,129.6c1.1-0.9,2.7-0.7,3.5,0.4c0.9,1.1,0.7,2.7-0.4,3.5c-1.1,0.9-2.7,0.7-3.5-0.4
		C46.3,132,46.5,130.4,47.5,129.6"/>
	<path class="st0" d="M56.4,139.2c0.9-1.1,2.4-1.3,3.5-0.4c1.1,0.9,1.3,2.4,0.4,3.5s-2.4,1.3-3.5,0.4
		C55.7,141.9,55.6,140.3,56.4,139.2"/>
	<path class="st0" d="M67.2,146.7c0.6-1.2,2.1-1.8,3.4-1.2c1.2,0.6,1.8,2.1,1.2,3.4c-0.6,1.2-2.1,1.8-3.3,1.2
		C67.2,149.5,66.6,148,67.2,146.7"/>
	<path class="st0" d="M79.5,151.6c0.3-1.4,1.7-2.2,3-1.9c1.4,0.3,2.2,1.7,1.9,3c-0.3,1.4-1.7,2.2-3,1.9
		C80,154.3,79.1,152.9,79.5,151.6"/>
	<path class="st0" d="M92.4,153.6c0-1.4,1.1-2.5,2.5-2.5c1.4,0,2.5,1.1,2.5,2.5c0,1.4-1.1,2.5-2.5,2.5
		C93.6,156.1,92.4,155,92.4,153.6"/>
	<path class="st0" d="M105.6,152.7c-0.3-1.4,0.5-2.7,1.9-3c1.4-0.3,2.7,0.5,3,1.9c0.3,1.4-0.5,2.7-1.9,3
		C107.2,154.9,105.9,154,105.6,152.7"/>
	<path class="st0" d="M118.1,148.9c-0.6-1.2-0.1-2.7,1.2-3.4c1.2-0.6,2.8-0.1,3.4,1.2c0.6,1.2,0.1,2.7-1.2,3.4
		C120.2,150.7,118.7,150.1,118.1,148.9"/>
	<path class="st0" d="M122.7,43.2c-0.6,1.2-2.1,1.8-3.4,1.2c-1.2-0.6-1.8-2.1-1.2-3.4c0.6-1.2,2.1-1.8,3.3-1.2
		C122.7,40.5,123.3,42,122.7,43.2"/>
	<path class="st0" d="M110.5,38.3c-0.3,1.4-1.7,2.2-3,1.9c-1.4-0.3-2.2-1.7-1.9-3c0.3-1.4,1.7-2.2,3-1.9
		C109.9,35.6,110.8,37,110.5,38.3"/>
	<path class="st0" d="M96.9,50.5c0,1.1-0.9,1.9-1.9,1.9c-1.1,0-1.9-0.8-1.9-1.9c0-1,0.9-1.9,1.9-1.9C96,48.6,96.9,49.5,96.9,50.5"/>
	<path class="st0" d="M86.9,51.2c0.2,1-0.4,2-1.4,2.3c-1,0.2-2-0.4-2.3-1.4c-0.2-1,0.4-2,1.4-2.3C85.7,49.6,86.7,50.2,86.9,51.2"/>
	<path class="st0" d="M77.4,54.1c0.5,0.9,0.1,2.1-0.9,2.5c-0.9,0.5-2.1,0.1-2.5-0.9s-0.1-2.1,0.9-2.5C75.8,52.8,76.9,53.2,77.4,54.1
		"/>
	<path class="st0" d="M68.8,59.1c0.7,0.8,0.5,2-0.3,2.7c-0.8,0.7-2,0.5-2.7-0.3c-0.7-0.8-0.5-2,0.3-2.7
		C66.9,58.1,68.1,58.2,68.8,59.1"/>
	<path class="st0" d="M61.4,65.8c0.8,0.7,1,1.9,0.3,2.7c-0.7,0.8-1.8,1-2.7,0.3c-0.8-0.7-1-1.9-0.3-2.7
		C59.4,65.3,60.6,65.1,61.4,65.8"/>
	<path class="st0" d="M55.8,74c0.9,0.5,1.3,1.6,0.9,2.5c-0.5,0.9-1.6,1.3-2.5,0.9c-0.9-0.5-1.3-1.6-0.9-2.5
		C53.7,73.9,54.8,73.5,55.8,74"/>
	<path class="st0" d="M52.1,83.2c1,0.2,1.7,1.3,1.4,2.3c-0.2,1-1.3,1.7-2.3,1.4c-1-0.2-1.7-1.3-1.4-2.3C50,83.6,51.1,83,52.1,83.2"
		/>
	<path class="st0" d="M50.5,93.1c1,0,1.9,0.9,1.9,1.9c0,1.1-0.9,1.9-1.9,1.9c-1.1,0-1.9-0.9-1.9-1.9C48.6,93.9,49.5,93.1,50.5,93.1"
		/>
	<path class="st0" d="M51.2,103c1-0.2,2,0.4,2.3,1.4c0.2,1-0.4,2-1.4,2.3c-1,0.2-2-0.4-2.3-1.4C49.6,104.2,50.2,103.2,51.2,103"/>
	<path class="st0" d="M54.1,112.5c0.9-0.5,2.1-0.1,2.5,0.9c0.5,0.9,0.1,2.1-0.9,2.5c-0.9,0.5-2.1,0.1-2.5-0.9
		C52.8,114.1,53.2,113,54.1,112.5"/>
	<path class="st0" d="M59.1,121.2c0.8-0.7,2-0.5,2.7,0.3c0.7,0.8,0.5,2-0.3,2.7c-0.8,0.7-2,0.5-2.7-0.3
		C58.1,123,58.2,121.8,59.1,121.2"/>
	<path class="st0" d="M65.8,128.5c0.7-0.8,1.8-1,2.7-0.3c0.8,0.7,1,1.9,0.3,2.7c-0.7,0.8-1.9,1-2.7,0.3
		C65.3,130.5,65.1,129.3,65.8,128.5"/>
	<path class="st0" d="M74,134.1c0.5-0.9,1.6-1.3,2.5-0.9c0.9,0.5,1.3,1.6,0.9,2.5c-0.5,0.9-1.6,1.3-2.5,0.9
		C73.9,136.2,73.5,135.1,74,134.1"/>
	<path class="st0" d="M83.2,137.8c0.2-1,1.3-1.7,2.3-1.4c1,0.2,1.7,1.3,1.4,2.3c-0.2,1-1.3,1.7-2.3,1.4
		C83.6,139.9,83,138.9,83.2,137.8"/>
	<path class="st0" d="M93.1,139.4c0-1,0.9-1.9,1.9-1.9c1,0,1.9,0.8,1.9,1.9c0,1.1-0.9,1.9-1.9,1.9C93.9,141.3,93.1,140.4,93.1,139.4
		"/>
	<path class="st0" d="M103,138.7c-0.2-1,0.4-2,1.4-2.3c1-0.2,2,0.4,2.3,1.4c0.2,1-0.4,2-1.4,2.3C104.2,140.3,103.2,139.7,103,138.7"
		/>
	<path class="st0" d="M112.5,135.8c-0.5-0.9-0.1-2.1,0.9-2.5c0.9-0.5,2.1-0.1,2.5,0.9c0.5,0.9,0.1,2.1-0.9,2.5
		C114.1,137.1,113,136.7,112.5,135.8"/>
	<path class="st0" d="M115.9,55.8c-0.5,0.9-1.6,1.3-2.5,0.9c-0.9-0.5-1.3-1.6-0.9-2.5c0.5-0.9,1.6-1.3,2.5-0.9
		C116,53.7,116.4,54.8,115.9,55.8"/>
	<path class="st0" d="M106.7,52.1c-0.2,1-1.3,1.7-2.3,1.4c-1-0.2-1.7-1.3-1.4-2.3c0.2-1,1.3-1.7,2.3-1.4
		C106.3,50,106.9,51.1,106.7,52.1"/>
	<path class="st0" d="M96.3,63.6c0,0.7-0.6,1.3-1.3,1.3c-0.7,0-1.3-0.6-1.3-1.3c0-0.7,0.6-1.3,1.3-1.3
		C95.7,62.3,96.3,62.9,96.3,63.6"/>
	<path class="st0" d="M89.3,64.1c0.2,0.7-0.3,1.4-1,1.6c-0.7,0.2-1.4-0.3-1.6-1c-0.2-0.7,0.3-1.4,1-1.6
		C88.4,62.9,89.1,63.4,89.3,64.1"/>
	<path class="st0" d="M82.6,66.1c0.3,0.7,0,1.5-0.6,1.8c-0.7,0.3-1.5,0-1.8-0.6c-0.3-0.7,0-1.5,0.6-1.8
		C81.4,65.2,82.2,65.5,82.6,66.1"/>
	<path class="st0" d="M76.5,69.6c0.5,0.6,0.4,1.4-0.2,1.9c-0.6,0.5-1.4,0.4-1.9-0.2c-0.5-0.6-0.4-1.4,0.2-1.9
		C75.2,68.9,76,69,76.5,69.6"/>
	<path class="st0" d="M71.3,74.4c0.6,0.5,0.7,1.3,0.2,1.9c-0.5,0.6-1.3,0.7-1.9,0.2c-0.6-0.5-0.7-1.3-0.2-1.9
		C69.9,74,70.7,73.9,71.3,74.4"/>
	<path class="st0" d="M67.3,80.1c0.7,0.3,0.9,1.1,0.6,1.8c-0.3,0.7-1.1,0.9-1.8,0.6c-0.7-0.3-0.9-1.1-0.6-1.8
		C65.8,80.1,66.6,79.8,67.3,80.1"/>
	<path class="st0" d="M64.7,86.7c0.7,0.2,1.2,0.9,1,1.6c-0.2,0.7-0.9,1.2-1.6,1c-0.7-0.2-1.2-0.9-1-1.6C63.3,87,64,86.5,64.7,86.7"
		/>
	<path class="st0" d="M63.6,93.6c0.7,0,1.3,0.6,1.3,1.3c0,0.7-0.6,1.3-1.3,1.3c-0.7,0-1.3-0.6-1.3-1.3
		C62.3,94.2,62.9,93.6,63.6,93.6"/>
	<path class="st0" d="M64.1,100.6c0.7-0.2,1.4,0.3,1.6,1c0.2,0.7-0.3,1.4-1,1.6c-0.7,0.2-1.4-0.3-1.6-1
		C62.9,101.5,63.4,100.8,64.1,100.6"/>
	<path class="st0" d="M66.1,107.3c0.7-0.3,1.5,0,1.8,0.6c0.3,0.7,0,1.5-0.6,1.8c-0.7,0.3-1.5,0-1.8-0.6
		C65.2,108.5,65.5,107.7,66.1,107.3"/>
	<path class="st0" d="M69.6,113.4c0.6-0.5,1.4-0.4,1.9,0.2c0.5,0.6,0.4,1.4-0.2,1.9c-0.6,0.5-1.4,0.4-1.9-0.2
		C68.9,114.8,69,113.9,69.6,113.4"/>
	<path class="st0" d="M74.4,118.6c0.5-0.6,1.3-0.7,1.9-0.2c0.6,0.5,0.7,1.3,0.2,1.9c-0.5,0.6-1.3,0.7-1.9,0.2
		C74,120,73.9,119.2,74.4,118.6"/>
	<path class="st0" d="M80.2,122.6c0.3-0.7,1.1-0.9,1.8-0.6c0.7,0.3,0.9,1.1,0.6,1.8c-0.3,0.7-1.1,0.9-1.8,0.6
		C80.1,124.1,79.8,123.3,80.2,122.6"/>
	<path class="st0" d="M86.7,125.2c0.2-0.7,0.9-1.2,1.6-1c0.7,0.2,1.2,0.9,1,1.6c-0.2,0.7-0.9,1.2-1.6,1
		C87,126.7,86.5,125.9,86.7,125.2"/>
	<path class="st0" d="M93.6,126.3c0-0.7,0.6-1.3,1.3-1.3c0.7,0,1.3,0.6,1.3,1.3c0,0.7-0.6,1.3-1.3,1.3
		C94.2,127.6,93.6,127,93.6,126.3"/>
	<path class="st0" d="M100.6,125.8c-0.2-0.7,0.3-1.4,1-1.6c0.7-0.2,1.4,0.3,1.6,1c0.2,0.7-0.3,1.4-1,1.6
		C101.5,127,100.8,126.5,100.6,125.8"/>
	<path class="st0" d="M107.3,123.8c-0.3-0.7,0-1.5,0.6-1.8c0.7-0.3,1.5,0,1.8,0.6c0.3,0.7,0,1.5-0.6,1.8
		C108.5,124.7,107.7,124.4,107.3,123.8"/>
	<path class="st0" d="M113.4,120.3c-0.5-0.6-0.4-1.4,0.2-1.9c0.6-0.5,1.4-0.4,1.9,0.2c0.5,0.6,0.4,1.4-0.2,1.9
		C114.8,121,113.9,120.9,113.4,120.3"/>
	<path class="st0" d="M115.5,71.3c-0.5,0.6-1.3,0.7-1.9,0.2c-0.6-0.5-0.7-1.3-0.2-1.9c0.5-0.6,1.3-0.7,1.9-0.2
		C115.9,69.9,116,70.7,115.5,71.3"/>
	<path class="st0" d="M109.8,67.3c-0.3,0.7-1.1,0.9-1.8,0.6c-0.7-0.3-0.9-1.1-0.6-1.8c0.3-0.7,1.1-0.9,1.8-0.6
		C109.8,65.8,110.1,66.6,109.8,67.3"/>
	<path class="st0" d="M103.2,64.7c-0.2,0.7-0.9,1.2-1.6,1c-0.7-0.2-1.2-0.9-1-1.6c0.2-0.7,0.9-1.2,1.6-1
		C103,63.3,103.4,64,103.2,64.7"/>
	<path class="st0" d="M95.8,75.6c0,0.5-0.4,0.8-0.8,0.8c-0.5,0-0.8-0.4-0.8-0.8c0-0.5,0.4-0.8,0.8-0.8
		C95.4,74.8,95.8,75.2,95.8,75.6"/>
	<path class="st0" d="M91.5,75.9c0.1,0.4-0.2,0.9-0.6,1c-0.4,0.1-0.9-0.2-1-0.6c-0.1-0.4,0.2-0.9,0.6-1
		C90.9,75.2,91.4,75.5,91.5,75.9"/>
	<path class="st0" d="M87.3,77.2c0.2,0.4,0,0.9-0.4,1.1c-0.4,0.2-0.9,0-1.1-0.4s0-0.9,0.4-1.1C86.6,76.6,87.1,76.8,87.3,77.2"/>
	<path class="st0" d="M83.5,79.3c0.3,0.4,0.2,0.9-0.1,1.2c-0.4,0.3-0.9,0.2-1.2-0.1C82,80,82,79.5,82.4,79.2
		C82.7,78.9,83.3,79,83.5,79.3"/>
	<path class="st0" d="M80.3,82.2c0.4,0.3,0.4,0.8,0.1,1.2c-0.3,0.4-0.8,0.4-1.2,0.1c-0.4-0.3-0.4-0.8-0.1-1.2
		C79.5,82,80,82,80.3,82.2"/>
	<path class="st0" d="M77.9,85.8c0.4,0.2,0.6,0.7,0.4,1.1c-0.2,0.4-0.7,0.6-1.1,0.4c-0.4-0.2-0.6-0.7-0.4-1.1
		C77,85.8,77.5,85.6,77.9,85.8"/>
	<path class="st0" d="M76.3,89.8c0.4,0.1,0.7,0.5,0.6,1c-0.1,0.4-0.5,0.7-1,0.6c-0.4-0.1-0.7-0.5-0.6-1C75.4,90,75.8,89.7,76.3,89.8
		"/>
	<path class="st0" d="M75.6,94.1c0.5,0,0.8,0.4,0.8,0.8c0,0.5-0.4,0.8-0.8,0.8c-0.5,0-0.8-0.4-0.8-0.8
		C74.8,94.5,75.2,94.1,75.6,94.1"/>
	<path class="st0" d="M75.9,98.5c0.4-0.1,0.9,0.2,1,0.6c0.1,0.4-0.2,0.9-0.6,1c-0.4,0.1-0.9-0.2-1-0.6C75.2,99,75.5,98.6,75.9,98.5"
		/>
	<path class="st0" d="M77.2,102.6c0.4-0.2,0.9,0,1.1,0.4c0.2,0.4,0,0.9-0.4,1.1c-0.4,0.2-0.9,0-1.1-0.4
		C76.6,103.3,76.8,102.8,77.2,102.6"/>
	<path class="st0" d="M79.3,106.4c0.4-0.3,0.9-0.2,1.2,0.1c0.3,0.4,0.2,0.9-0.1,1.2c-0.4,0.3-0.9,0.2-1.2-0.1
		C78.9,107.2,79,106.7,79.3,106.4"/>
	<path class="st0" d="M82.2,109.6c0.3-0.4,0.8-0.4,1.2-0.1c0.4,0.3,0.4,0.8,0.1,1.2c-0.3,0.4-0.8,0.4-1.2,0.1
		C82,110.4,82,109.9,82.2,109.6"/>
	<path class="st0" d="M85.8,112c0.2-0.4,0.7-0.6,1.1-0.4c0.4,0.2,0.6,0.7,0.4,1.1c-0.2,0.4-0.7,0.6-1.1,0.4
		C85.8,112.9,85.6,112.4,85.8,112"/>
	<path class="st0" d="M89.8,113.6c0.1-0.4,0.5-0.7,1-0.6c0.4,0.1,0.7,0.5,0.6,1c-0.1,0.4-0.5,0.7-1,0.6
		C90,114.5,89.7,114.1,89.8,113.6"/>
	<path class="st0" d="M94.1,114.3c0-0.5,0.4-0.8,0.8-0.8c0.5,0,0.8,0.4,0.8,0.8c0,0.5-0.4,0.8-0.8,0.8
		C94.5,115.1,94.1,114.8,94.1,114.3"/>
	<path class="st0" d="M98.5,114c-0.1-0.4,0.2-0.9,0.6-1c0.4-0.1,0.9,0.2,1,0.6c0.1,0.4-0.2,0.9-0.6,1C99,114.7,98.6,114.4,98.5,114"
		/>
	<path class="st0" d="M102.6,112.7c-0.2-0.4,0-0.9,0.4-1.1c0.4-0.2,0.9,0,1.1,0.4c0.2,0.4,0,0.9-0.4,1.1
		C103.3,113.3,102.8,113.2,102.6,112.7"/>
	<path class="st0" d="M106.4,110.6c-0.3-0.4-0.2-0.9,0.1-1.2c0.4-0.3,0.9-0.2,1.2,0.1c0.3,0.4,0.2,0.9-0.1,1.2
		C107.2,111,106.7,111,106.4,110.6"/>
	<path class="st0" d="M109.6,107.7c-0.4-0.3-0.4-0.8-0.1-1.2c0.3-0.4,0.8-0.4,1.2-0.1c0.4,0.3,0.4,0.8,0.1,1.2
		C110.4,107.9,109.9,107.9,109.6,107.7"/>
	<path class="st0" d="M112,104.1c-0.4-0.2-0.6-0.7-0.4-1.1c0.2-0.4,0.7-0.6,1.1-0.4c0.4,0.2,0.6,0.7,0.4,1.1
		C112.9,104.1,112.4,104.3,112,104.1"/>
	<path class="st0" d="M113.6,100.1c-0.4-0.1-0.7-0.5-0.6-1c0.1-0.4,0.5-0.7,1-0.6c0.4,0.1,0.7,0.5,0.6,1
		C114.5,99.9,114.1,100.2,113.6,100.1"/>
	<path class="st0" d="M114.3,95.8c-0.5,0-0.8-0.4-0.8-0.8c0-0.5,0.4-0.8,0.8-0.8c0.5,0,0.8,0.4,0.8,0.8
		C115.1,95.4,114.8,95.8,114.3,95.8"/>
	<path class="st0" d="M114,91.5c-0.4,0.1-0.9-0.2-1-0.6c-0.1-0.4,0.2-0.9,0.6-1c0.4-0.1,0.9,0.2,1,0.6
		C114.7,90.9,114.4,91.4,114,91.5"/>
	<path class="st0" d="M112.7,87.3c-0.4,0.2-0.9,0-1.1-0.4c-0.2-0.4,0-0.9,0.4-1.1c0.4-0.2,0.9,0,1.1,0.4
		C113.3,86.6,113.2,87.1,112.7,87.3"/>
	<path class="st0" d="M110.6,83.5c-0.4,0.3-0.9,0.2-1.2-0.1c-0.3-0.4-0.2-0.9,0.1-1.2c0.4-0.3,0.9-0.2,1.2,0.1
		C111,82.7,111,83.3,110.6,83.5"/>
	<path class="st0" d="M107.7,80.4c-0.3,0.4-0.8,0.4-1.2,0.1c-0.4-0.3-0.4-0.8-0.1-1.2c0.3-0.4,0.8-0.4,1.2-0.1
		C107.9,79.5,107.9,80,107.7,80.4"/>
	<path class="st0" d="M104.1,77.9c-0.2,0.4-0.7,0.6-1.1,0.4c-0.4-0.2-0.6-0.7-0.4-1.1c0.2-0.4,0.7-0.6,1.1-0.4
		C104.1,77,104.3,77.5,104.1,77.9"/>
	<path class="st0" d="M100.1,76.3c-0.1,0.4-0.5,0.7-1,0.6c-0.4-0.1-0.7-0.5-0.6-1c0.1-0.4,0.5-0.7,1-0.6
		C99.9,75.4,100.2,75.8,100.1,76.3"/>
</g>
</svg>
