<?xml version="1.0" encoding="utf-8"?>
<!-- Generator: Adobe Illustrator 22.0.1, SVG Export Plug-In . SVG Version: 6.00 Build 0)  -->
<svg version="1.1" id="Layer_1" xmlns="http://www.w3.org/2000/svg" xmlns:xlink="http://www.w3.org/1999/xlink" x="0px" y="0px"
	 width="159px" height="107.9px" viewBox="0 0 159 107.9" style="enable-background:new 0 0 159 107.9;" xml:space="preserve">
<g>
	<path d="M3,0C1.3,0,0,1.3,0,3s1.3,3,3,3c1.6,0,3-1.3,3-3S4.6,0,3,0"/>
	<path d="M20,0c-1.6,0-3,1.3-3,3s1.3,3,3,3c1.6,0,3-1.3,3-3S21.6,0,20,0"/>
	<path d="M37,0c-1.6,0-3,1.3-3,3s1.3,3,3,3c1.6,0,3-1.3,3-3S38.6,0,37,0"/>
	<path d="M54,0c-1.6,0-3,1.3-3,3s1.3,3,3,3c1.6,0,3-1.3,3-3S55.7,0,54,0"/>
	<path d="M71,0c-1.6,0-3,1.3-3,3s1.3,3,3,3c1.6,0,3-1.3,3-3S72.7,0,71,0"/>
	<path d="M88,0c-1.6,0-3,1.3-3,3s1.3,3,3,3c1.6,0,3-1.3,3-3S89.7,0,88,0"/>
	<path d="M105,0c-1.6,0-3,1.3-3,3s1.3,3,3,3c1.6,0,3-1.3,3-3S106.7,0,105,0"/>
	<path d="M3,17c-1.6,0-3,1.3-3,3c0,1.6,1.3,3,3,3c1.6,0,3-1.3,3-3C6,18.3,4.6,17,3,17"/>
	<path d="M20,17c-1.6,0-3,1.3-3,3c0,1.6,1.3,3,3,3c1.6,0,3-1.3,3-3C23,18.3,21.6,17,20,17"/>
	<path d="M37,17c-1.6,0-3,1.3-3,3c0,1.6,1.3,3,3,3c1.6,0,3-1.3,3-3C40,18.3,38.6,17,37,17"/>
	<path d="M54,17c-1.6,0-3,1.3-3,3c0,1.6,1.3,3,3,3c1.6,0,3-1.3,3-3C57,18.3,55.7,17,54,17"/>
	<path d="M71,17c-1.6,0-3,1.3-3,3c0,1.6,1.3,3,3,3c1.6,0,3-1.3,3-3C74,18.3,72.7,17,71,17"/>
	<path d="M88,17c-1.6,0-3,1.3-3,3c0,1.6,1.3,3,3,3c1.6,0,3-1.3,3-3C91,18.3,89.7,17,88,17"/>
	<path d="M105,17c-1.6,0-3,1.3-3,3c0,1.6,1.3,3,3,3c1.6,0,3-1.3,3-3C108,18.3,106.7,17,105,17"/>
	<path d="M3,33.9c-1.6,0-3,1.3-3,3c0,1.6,1.3,3,3,3c1.6,0,3-1.3,3-3C6,35.2,4.6,33.9,3,33.9"/>
	<path d="M20,33.9c-1.6,0-3,1.3-3,3c0,1.6,1.3,3,3,3c1.6,0,3-1.3,3-3C23,35.2,21.6,33.9,20,33.9"/>
	<path d="M37,33.9c-1.6,0-3,1.3-3,3c0,1.6,1.3,3,3,3c1.6,0,3-1.3,3-3C40,35.2,38.6,33.9,37,33.9"/>
	<path d="M54,33.9c-1.6,0-3,1.3-3,3c0,1.6,1.3,3,3,3c1.6,0,3-1.3,3-3C57,35.2,55.7,33.9,54,33.9"/>
	<path d="M71,33.9c-1.6,0-3,1.3-3,3c0,1.6,1.3,3,3,3c1.6,0,3-1.3,3-3C74,35.2,72.7,33.9,71,33.9"/>
	<path d="M88,33.9c-1.6,0-3,1.3-3,3c0,1.6,1.3,3,3,3c1.6,0,3-1.3,3-3C91,35.2,89.7,33.9,88,33.9"/>
	<path d="M105,33.9c-1.6,0-3,1.3-3,3c0,1.6,1.3,3,3,3c1.6,0,3-1.3,3-3C108,35.2,106.7,33.9,105,33.9"/>
	<path d="M3,50.9c-1.6,0-3,1.3-3,3c0,1.6,1.3,3,3,3c1.6,0,3-1.3,3-3C6,52.3,4.6,50.9,3,50.9"/>
	<path d="M20,50.9c-1.6,0-3,1.3-3,3c0,1.6,1.3,3,3,3c1.6,0,3-1.3,3-3C23,52.3,21.6,50.9,20,50.9"/>
	<path d="M37,50.9c-1.6,0-3,1.3-3,3c0,1.6,1.3,3,3,3c1.6,0,3-1.3,3-3C40,52.3,38.6,50.9,37,50.9"/>
	<path d="M54,50.9c-1.6,0-3,1.3-3,3c0,1.6,1.3,3,3,3c1.6,0,3-1.3,3-3C57,52.3,55.7,50.9,54,50.9"/>
	<path d="M71,50.9c-1.6,0-3,1.3-3,3c0,1.6,1.3,3,3,3c1.6,0,3-1.3,3-3C74,52.3,72.7,50.9,71,50.9"/>
	<path d="M88,50.9c-1.6,0-3,1.3-3,3c0,1.6,1.3,3,3,3c1.6,0,3-1.3,3-3C91,52.3,89.7,50.9,88,50.9"/>
	<path d="M105,50.9c-1.6,0-3,1.3-3,3c0,1.6,1.3,3,3,3c1.6,0,3-1.3,3-3C108,52.3,106.7,50.9,105,50.9"/>
	<path d="M3,67.9c-1.6,0-3,1.3-3,3c0,1.6,1.3,3,3,3c1.6,0,3-1.3,3-3C6,69.3,4.6,67.9,3,67.9"/>
	<path d="M20,67.9c-1.6,0-3,1.3-3,3c0,1.6,1.3,3,3,3c1.6,0,3-1.3,3-3C23,69.3,21.6,67.9,20,67.9"/>
	<path d="M37,67.9c-1.6,0-3,1.3-3,3c0,1.6,1.3,3,3,3c1.6,0,3-1.3,3-3C40,69.3,38.6,67.9,37,67.9"/>
	<path d="M54,67.9c-1.6,0-3,1.3-3,3c0,1.6,1.3,3,3,3c1.6,0,3-1.3,3-3C57,69.3,55.7,67.9,54,67.9"/>
	<path d="M71,67.9c-1.6,0-3,1.3-3,3c0,1.6,1.3,3,3,3c1.6,0,3-1.3,3-3C74,69.3,72.7,67.9,71,67.9"/>
	<path d="M88,67.9c-1.6,0-3,1.3-3,3c0,1.6,1.3,3,3,3c1.6,0,3-1.3,3-3C91,69.3,89.7,67.9,88,67.9"/>
	<path d="M105,67.9c-1.6,0-3,1.3-3,3c0,1.6,1.3,3,3,3c1.6,0,3-1.3,3-3C108,69.3,106.7,67.9,105,67.9"/>
	<path d="M3,84.8c-1.6,0-3,1.3-3,3s1.3,3,3,3c1.6,0,3-1.3,3-3S4.6,84.8,3,84.8"/>
	<path d="M20,84.8c-1.6,0-3,1.3-3,3s1.3,3,3,3c1.6,0,3-1.3,3-3S21.6,84.8,20,84.8"/>
	<path d="M37,84.8c-1.6,0-3,1.3-3,3s1.3,3,3,3c1.6,0,3-1.3,3-3S38.6,84.8,37,84.8"/>
	<path d="M54,84.8c-1.6,0-3,1.3-3,3s1.3,3,3,3c1.6,0,3-1.3,3-3S55.7,84.8,54,84.8"/>
	<path d="M71,84.8c-1.6,0-3,1.3-3,3s1.3,3,3,3c1.6,0,3-1.3,3-3S72.7,84.8,71,84.8"/>
	<path d="M88,84.8c-1.6,0-3,1.3-3,3s1.3,3,3,3c1.6,0,3-1.3,3-3S89.7,84.8,88,84.8"/>
	<path d="M105,84.8c-1.6,0-3,1.3-3,3s1.3,3,3,3c1.6,0,3-1.3,3-3S106.7,84.8,105,84.8"/>
	<path d="M3,101.9c-1.6,0-3,1.3-3,3c0,1.6,1.3,3,3,3c1.6,0,3-1.3,3-3C6,103.3,4.6,101.9,3,101.9"/>
	<path d="M20,101.9c-1.6,0-3,1.3-3,3c0,1.6,1.3,3,3,3c1.6,0,3-1.3,3-3C23,103.3,21.6,101.9,20,101.9"/>
	<path d="M37,101.9c-1.6,0-3,1.3-3,3c0,1.6,1.3,3,3,3c1.6,0,3-1.3,3-3C40,103.3,38.6,101.9,37,101.9"/>
	<path d="M54,101.9c-1.6,0-3,1.3-3,3c0,1.6,1.3,3,3,3c1.6,0,3-1.3,3-3C57,103.3,55.7,101.9,54,101.9"/>
	<path d="M71,101.9c-1.6,0-3,1.3-3,3c0,1.6,1.3,3,3,3c1.6,0,3-1.3,3-3C74,103.3,72.7,101.9,71,101.9"/>
	<path d="M88,101.9c-1.6,0-3,1.3-3,3c0,1.6,1.3,3,3,3c1.6,0,3-1.3,3-3C91,103.3,89.7,101.9,88,101.9"/>
	<path d="M105,101.9c-1.6,0-3,1.3-3,3c0,1.6,1.3,3,3,3c1.6,0,3-1.3,3-3C108,103.3,106.7,101.9,105,101.9"/>
	<path d="M122,0c-1.6,0-3,1.3-3,3s1.3,3,3,3c1.6,0,3-1.3,3-3S123.7,0,122,0"/>
	<path d="M139,0c-1.6,0-3,1.3-3,3s1.3,3,3,3c1.6,0,3-1.3,3-3S140.7,0,139,0"/>
	<path d="M156.1,0c-1.6,0-3,1.3-3,3s1.3,3,3,3c1.6,0,3-1.3,3-3S157.7,0,156.1,0"/>
	<path d="M122,17c-1.6,0-3,1.3-3,3c0,1.6,1.3,3,3,3c1.6,0,3-1.3,3-3C125,18.3,123.7,17,122,17"/>
	<path d="M139,17c-1.6,0-3,1.3-3,3c0,1.6,1.3,3,3,3c1.6,0,3-1.3,3-3C142,18.3,140.7,17,139,17"/>
	<path d="M156.1,17c-1.6,0-3,1.3-3,3c0,1.6,1.3,3,3,3c1.6,0,3-1.3,3-3C159,18.3,157.7,17,156.1,17"/>
	<path d="M122,33.9c-1.6,0-3,1.3-3,3c0,1.6,1.3,3,3,3c1.6,0,3-1.3,3-3C125,35.2,123.7,33.9,122,33.9"/>
	<path d="M139,33.9c-1.6,0-3,1.3-3,3c0,1.6,1.3,3,3,3c1.6,0,3-1.3,3-3C142,35.2,140.7,33.9,139,33.9"/>
	<path d="M156.1,33.9c-1.6,0-3,1.3-3,3c0,1.6,1.3,3,3,3c1.6,0,3-1.3,3-3C159,35.2,157.7,33.9,156.1,33.9"/>
	<path d="M122,50.9c-1.6,0-3,1.3-3,3c0,1.6,1.3,3,3,3c1.6,0,3-1.3,3-3C125,52.3,123.7,50.9,122,50.9"/>
	<path d="M139,50.9c-1.6,0-3,1.3-3,3c0,1.6,1.3,3,3,3c1.6,0,3-1.3,3-3C142,52.3,140.7,50.9,139,50.9"/>
	<path d="M156.1,50.9c-1.6,0-3,1.3-3,3c0,1.6,1.3,3,3,3c1.6,0,3-1.3,3-3C159,52.3,157.7,50.9,156.1,50.9"/>
	<path d="M122,67.9c-1.6,0-3,1.3-3,3c0,1.6,1.3,3,3,3c1.6,0,3-1.3,3-3C125,69.3,123.7,67.9,122,67.9"/>
	<path d="M139,67.9c-1.6,0-3,1.3-3,3c0,1.6,1.3,3,3,3c1.6,0,3-1.3,3-3C142,69.3,140.7,67.9,139,67.9"/>
	<path d="M156.1,67.9c-1.6,0-3,1.3-3,3c0,1.6,1.3,3,3,3c1.6,0,3-1.3,3-3C159,69.3,157.7,67.9,156.1,67.9"/>
	<path d="M122,84.8c-1.6,0-3,1.3-3,3s1.3,3,3,3c1.6,0,3-1.3,3-3S123.7,84.8,122,84.8"/>
	<path d="M139,84.8c-1.6,0-3,1.3-3,3s1.3,3,3,3c1.6,0,3-1.3,3-3S140.7,84.8,139,84.8"/>
	<path d="M156.1,84.8c-1.6,0-3,1.3-3,3s1.3,3,3,3c1.6,0,3-1.3,3-3S157.7,84.8,156.1,84.8"/>
	<path d="M122,101.9c-1.6,0-3,1.3-3,3c0,1.6,1.3,3,3,3c1.6,0,3-1.3,3-3C125,103.3,123.7,101.9,122,101.9"/>
	<path d="M139,101.9c-1.6,0-3,1.3-3,3c0,1.6,1.3,3,3,3c1.6,0,3-1.3,3-3C142,103.3,140.7,101.9,139,101.9"/>
	<path d="M156.1,101.9c-1.6,0-3,1.3-3,3c0,1.6,1.3,3,3,3c1.6,0,3-1.3,3-3C159,103.3,157.7,101.9,156.1,101.9"/>
</g>
</svg>
