<?xml version="1.0" encoding="utf-8"?>
<!-- Generator: Adobe Illustrator 22.0.1, SVG Export Plug-In . SVG Version: 6.00 Build 0)  -->
<svg version="1.1" id="Layer_1" xmlns="http://www.w3.org/2000/svg" xmlns:xlink="http://www.w3.org/1999/xlink" x="0px" y="0px"
	 width="146.1px" height="183.8px" viewBox="0 0 146.1 183.8" style="enable-background:new 0 0 146.1 183.8;" xml:space="preserve"
	>
<style type="text/css">
	.st0{fill:none;stroke:#1E1E1E;stroke-width:2;stroke-linecap:round;stroke-linejoin:round;stroke-miterlimit:10;}
	.st1{fill:#FFDA30;}
	.st2{fill:none;stroke:#1E1E1E;stroke-width:2;stroke-miterlimit:10;}
</style>
<g>
	<line class="st0" x1="53.8" y1="43.4" x2="52.3" y2="41.8"/>
	<line class="st0" x1="45.3" y1="34.9" x2="43.7" y2="33.3"/>
	<line class="st0" x1="43.7" y1="43.4" x2="45.3" y2="41.8"/>
	<line class="st0" x1="52.3" y1="34.9" x2="53.8" y2="33.3"/>
	<line class="st0" x1="42.8" y1="177.6" x2="43.2" y2="177.2"/>
	<line class="st0" x1="37.6" y1="182.8" x2="38" y2="182.5"/>
	<line class="st0" x1="42.8" y1="182.5" x2="43.2" y2="182.8"/>
	<line class="st0" x1="37.6" y1="177.2" x2="38" y2="177.6"/>
	<line class="st0" x1="139.2" y1="144.7" x2="137.9" y2="143.4"/>
	<line class="st0" x1="132" y1="137.6" x2="130.7" y2="136.2"/>
	<line class="st0" x1="130.7" y1="144.7" x2="132" y2="143.4"/>
	<line class="st0" x1="137.9" y1="137.6" x2="139.2" y2="136.2"/>
	<line class="st0" x1="133.6" y1="86.6" x2="132.5" y2="85.5"/>
	<line class="st0" x1="127.6" y1="80.6" x2="126.4" y2="79.5"/>
	<line class="st0" x1="126.4" y1="86.6" x2="127.6" y2="85.5"/>
	<line class="st0" x1="132.5" y1="80.6" x2="133.6" y2="79.5"/>
	<line class="st0" x1="53.8" y1="43.4" x2="52.3" y2="41.8"/>
	<line class="st0" x1="45.3" y1="34.9" x2="43.7" y2="33.3"/>
	<line class="st0" x1="43.7" y1="43.4" x2="45.3" y2="41.8"/>
	<line class="st0" x1="52.3" y1="34.9" x2="53.8" y2="33.3"/>
	<line class="st0" x1="42.8" y1="177.6" x2="43.2" y2="177.2"/>
	<line class="st0" x1="37.6" y1="182.8" x2="38" y2="182.5"/>
	<line class="st0" x1="42.8" y1="182.5" x2="43.2" y2="182.8"/>
	<line class="st0" x1="37.6" y1="177.2" x2="38" y2="177.6"/>
	<line class="st0" x1="139.2" y1="144.7" x2="137.9" y2="143.4"/>
	<line class="st0" x1="132" y1="137.6" x2="130.7" y2="136.2"/>
	<line class="st0" x1="130.7" y1="144.7" x2="132" y2="143.4"/>
	<line class="st0" x1="137.9" y1="137.6" x2="139.2" y2="136.2"/>
	<line class="st0" x1="133.6" y1="86.6" x2="132.5" y2="85.5"/>
	<line class="st0" x1="127.6" y1="80.6" x2="126.4" y2="79.5"/>
	<line class="st0" x1="126.4" y1="86.6" x2="127.6" y2="85.5"/>
	<line class="st0" x1="132.5" y1="80.6" x2="133.6" y2="79.5"/>
	<path class="st0" d="M69.2,77.1c-7.2,0-12.9-5.8-12.9-12.9c0-7.1,5.8-12.9,12.9-12.9c7.1,0,12.9,5.8,12.9,12.9
		C82.1,71.3,76.3,77.1,69.2,77.1z"/>
	<path class="st0" d="M54.1,97.3v23.5c0,0,0,0,0,0V144v6.3c0,3.4,2.2,6.2,5.6,6.2c3.4,0,6.1-2.8,6.1-6.2v-6.3v-8l0-8.7
		c0-1.9,1.5-3.3,3.3-3.3s3.4,1.5,3.4,3.3v8.7v8v6.3c0,3.4,2.7,6.2,6.1,6.2c3.4,0,5.6-2.8,5.6-6.2V144v-23.1v0V97.3"/>
	<path class="st0" d="M54.1,116.6c0,3.2-2.5,5.8-5.7,5.8c-3.1,0-5.2-2.6-5.2-5.8v-2.5v-4.9V96.7c0-7.3,5.9-13.2,13.2-13.2H60h18.3
		h3.6c7.3,0,13.2,5.9,13.2,13.2v12.6v4.9v2.5c0,3.2-2,5.8-5.2,5.8c-3.1,0-5.7-2.6-5.7-5.8"/>
	<path class="st0" d="M35.7,89.9c-2.4-2-4-5-4-8.4c0-6,4.9-10.9,10.9-10.9c3.9,0,7.4,2.1,9.3,5.2"/>
	<path class="st0" d="M31.9,109.3v18.4v0v16.6v0.2v6.7c0,2.9,1.9,5.3,4.7,5.3s5.2-2.4,5.2-5.3v-6.9v-3.8l0-7.4
		c0-1.6,1.3-2.8,2.8-2.8"/>
	<path class="st0" d="M31.8,124.1c0,2.7-2.1,4.9-4.8,4.9c-2.6,0-4.4-2.2-4.4-4.9V118v-5.5v-3.8c0-6.2,5-11.1,11.1-11.1h-0.7"/>
	<path class="st0" d="M102.4,89.9c2.4-2,4-5,4-8.4c0-6-4.9-10.9-10.9-10.9c-3.9,0-7.4,2.1-9.3,5.2"/>
	<path class="st0" d="M106.3,109.3v18.4v0v16.6v0.2v6.7c0,2.9-1.9,5.3-4.7,5.3s-5.2-2.4-5.2-5.3v-6.9v-3.8v-7.4
		c0-1.6-1.3-2.8-2.8-2.8"/>
	<path class="st0" d="M106.3,124.1c0,2.7,2.1,4.9,4.8,4.9c2.6,0,4.4-2.2,4.4-4.9V118v-5.5v-3.8c0-6.2-5-11.1-11.1-11.1h0.7"/>
	<path class="st0" d="M99.4,61c-0.8-0.5-20.3-12.5-20.3-25.1c0-6.1,5-11.1,11.1-11.1c4.1,0,7.8,2.3,9.7,5.8c1.9-3.5,5.6-5.8,9.7-5.8
		c6.1,0,11.1,5,11.1,11.1c0,12.7-19.5,24.6-20.3,25.1l-0.5,0.3L99.4,61z"/>
	<path class="st0" d="M109.7,31.5c2.4,0,4.3,1.9,4.3,4.3"/>
	<path class="st1" d="M9.6,141.2c0,2.4-1.9,4.3-4.3,4.3S1,143.6,1,141.2c0-2.4,1.9-4.3,4.3-4.3S9.6,138.8,9.6,141.2"/>
	<path class="st2" d="M9.6,141.2c0,2.4-1.9,4.3-4.3,4.3S1,143.6,1,141.2c0-2.4,1.9-4.3,4.3-4.3S9.6,138.8,9.6,141.2z"/>
	<path class="st1" d="M96.2,5.3c0,2.4-1.9,4.3-4.3,4.3s-4.3-1.9-4.3-4.3c0-2.4,1.9-4.3,4.3-4.3S96.2,2.9,96.2,5.3"/>
	<path class="st2" d="M96.2,5.3c0,2.4-1.9,4.3-4.3,4.3s-4.3-1.9-4.3-4.3c0-2.4,1.9-4.3,4.3-4.3S96.2,2.9,96.2,5.3z"/>
	<path class="st1" d="M145.1,31.5c0,3.2-2.6,5.9-5.9,5.9c-3.2,0-5.9-2.6-5.9-5.9c0-3.2,2.6-5.9,5.9-5.9
		C142.4,25.7,145.1,28.3,145.1,31.5"/>
	<path class="st2" d="M145.1,31.5c0,3.2-2.6,5.9-5.9,5.9c-3.2,0-5.9-2.6-5.9-5.9c0-3.2,2.6-5.9,5.9-5.9
		C142.4,25.7,145.1,28.3,145.1,31.5z"/>
</g>
</svg>
