<?xml version="1.0" encoding="utf-8"?>
<!-- Generator: Adobe Illustrator 22.0.1, SVG Export Plug-In . SVG Version: 6.00 Build 0)  -->
<svg version="1.1" id="Layer_1" xmlns="http://www.w3.org/2000/svg" xmlns:xlink="http://www.w3.org/1999/xlink" x="0px" y="0px"
	 width="56.6px" height="56.6px" viewBox="0 0 56.6 56.6" style="enable-background:new 0 0 56.6 56.6;" xml:space="preserve">
<style type="text/css">
	.st0{fill:#0071BB;}
	.st1{fill:none;stroke:#FFFFFF;stroke-width:0.25;stroke-miterlimit:10;}
</style>
<g>
	<path class="st0" d="M51.7,12.6l-0.8,0.3l-4.5,0.4l-1.3,2L44.2,15l-3.6-3.2l-0.5-1.7l-0.7-1.8l-2.2-2l-2.6-0.5L34.4,7L37,9.6
		l1.3,1.5l-1.4,0.7l-1.2-0.3L34,10.7L34,9.3l-2.3-0.9L31,11.7l-2.3,0.5l0.2,1.8l3,0.6l0.5-2.9l2.5,0.4l1.2,0.7h1.8l1.3,2.5l3.4,3.4
		L42.3,20l-2.7-0.3L34.9,22l-3.4,4l-0.4,1.8h-1.2l-2.3-1l-2.2,1l0.5,2.3l1-1.1l1.7-0.1L28.5,31l1.4,0.4l1.4,1.6l2.3-0.6l2.6,0.4
		l3,0.8l1.5,0.2l2.5,2.9l4.9,2.9l-3.2,6l-3.3,1.6l-1.3,3.5l-4.8,3.2l-0.5,1.9c12.4-3,21.6-14.1,21.6-27.4
		C56.5,22.5,54.7,17.1,51.7,12.6"/>
	<path class="st1" d="M51.7,12.6l-0.8,0.3l-4.5,0.4l-1.3,2L44.2,15l-3.6-3.2l-0.5-1.7l-0.7-1.8l-2.2-2l-2.6-0.5L34.4,7L37,9.6
		l1.3,1.5l-1.4,0.7l-1.2-0.3L34,10.7L34,9.3l-2.3-0.9L31,11.7l-2.3,0.5l0.2,1.8l3,0.6l0.5-2.9l2.5,0.4l1.2,0.7h1.8l1.3,2.5l3.4,3.4
		L42.3,20l-2.7-0.3L34.9,22l-3.4,4l-0.4,1.8h-1.2l-2.3-1l-2.2,1l0.5,2.3l1-1.1l1.7-0.1L28.5,31l1.4,0.4l1.4,1.6l2.3-0.6l2.6,0.4
		l3,0.8l1.5,0.2l2.5,2.9l4.9,2.9l-3.2,6l-3.3,1.6l-1.3,3.5l-4.8,3.2l-0.5,1.9c12.4-3,21.6-14.1,21.6-27.4
		C56.5,22.5,54.7,17.1,51.7,12.6z"/>
	<path class="st0" d="M31.5,43l-2.1-3.8l1.9-3.9l-1.9-0.6l-2.1-2.1l-4.7-1.1l-1.6-3.3v1.9h-0.7l-4-5.5v-4.5l-3-4.8l-4.7,0.8H5.6
		l-1.6-1l2-1.6l-2,0.5c-2.4,4.2-3.9,9-3.9,14.2c0,15.6,12.6,28.2,28.2,28.2c1.2,0,2.4-0.1,3.5-0.2l-0.3-3.4c0,0,1.3-5.1,1.3-5.2
		C32.8,47.4,31.5,43,31.5,43"/>
	<path class="st1" d="M31.5,43l-2.1-3.8l1.9-3.9l-1.9-0.6l-2.1-2.1l-4.7-1.1l-1.6-3.3v1.9h-0.7l-4-5.5v-4.5l-3-4.8l-4.7,0.8H5.6
		l-1.6-1l2-1.6l-2,0.5c-2.4,4.2-3.9,9-3.9,14.2c0,15.6,12.6,28.2,28.2,28.2c1.2,0,2.4-0.1,3.5-0.2l-0.3-3.4c0,0,1.3-5.1,1.3-5.2
		C32.8,47.4,31.5,43,31.5,43z"/>
	<path class="st0" d="M10.6,9.2l5-0.7l2.3-1.3L20.5,8l4.1-0.2l1.4-2.2l2.1,0.3l5-0.5l1.4-1.5l2-1.3L39.3,3l1-0.2
		c-3.6-1.7-7.7-2.7-12-2.7c-8.7,0-16.6,4-21.7,10.2h0L10.6,9.2z M29.5,2.9l2.9-1.6l1.8,1.1l-2.7,2L29,4.7L27.8,4L29.5,2.9z M21,3.2
		l1.3,0.5l1.7-0.5l0.9,1.6l-3.8,1l-1.8-1.1C19.1,4.7,20.9,3.5,21,3.2"/>
	<path class="st1" d="M10.6,9.2l5-0.7l2.3-1.3L20.5,8l4.1-0.2l1.4-2.2l2.1,0.3l5-0.5l1.4-1.5l2-1.3L39.3,3l1-0.2
		c-3.6-1.7-7.7-2.7-12-2.7c-8.7,0-16.6,4-21.7,10.2h0L10.6,9.2z M29.5,2.9l2.9-1.6l1.8,1.1l-2.7,2L29,4.7L27.8,4L29.5,2.9z M21,3.2
		l1.3,0.5l1.7-0.5l0.9,1.6l-3.8,1l-1.8-1.1C19.1,4.7,20.9,3.5,21,3.2z"/>
</g>
</svg>
