<?xml version="1.0" encoding="utf-8"?>
<!-- Generator: Adobe Illustrator 22.0.1, SVG Export Plug-In . SVG Version: 6.00 Build 0)  -->
<svg version="1.1" id="Layer_1" xmlns="http://www.w3.org/2000/svg" xmlns:xlink="http://www.w3.org/1999/xlink" x="0px" y="0px"
	 width="216.8px" height="280.1px" viewBox="0 0 216.8 280.1" style="enable-background:new 0 0 216.8 280.1;" xml:space="preserve"
	>
<style type="text/css">
	.st0{fill:#FFE576;}
</style>
<g>
	<path class="st0" d="M2.6,253c1.4,0,2.6,1.1,2.6,2.6s-1.1,2.6-2.6,2.6S0,256.9,0,255.5S1.1,253,2.6,253"/>
	<path class="st0" d="M2.6,242c1.4,0,2.6,1.1,2.6,2.6c0,1.4-1.1,2.6-2.6,2.6S0,245.9,0,244.5C0,243.1,1.1,242,2.6,242"/>
	<path class="st0" d="M2.6,231c1.4,0,2.6,1.1,2.6,2.6c0,1.4-1.1,2.6-2.6,2.6S0,234.9,0,233.5C0,232.1,1.1,231,2.6,231"/>
	<path class="st0" d="M2.6,220c1.4,0,2.6,1.1,2.6,2.6c0,1.4-1.1,2.6-2.6,2.6S0,223.9,0,222.5C0,221.1,1.1,220,2.6,220"/>
	<path class="st0" d="M2.6,209c1.4,0,2.6,1.1,2.6,2.6c0,1.4-1.1,2.6-2.6,2.6S0,212.9,0,211.5C0,210.1,1.1,209,2.6,209"/>
	<path class="st0" d="M2.6,198c1.4,0,2.6,1.1,2.6,2.6c0,1.4-1.1,2.6-2.6,2.6S0,201.9,0,200.5C0,199.1,1.1,198,2.6,198"/>
	<path class="st0" d="M2.6,187c1.4,0,2.6,1.1,2.6,2.6s-1.1,2.6-2.6,2.6S0,190.9,0,189.5S1.1,187,2.6,187"/>
	<path class="st0" d="M2.6,176c1.4,0,2.6,1.1,2.6,2.6s-1.1,2.6-2.6,2.6S0,179.9,0,178.5S1.1,176,2.6,176"/>
	<path class="st0" d="M2.6,165c1.4,0,2.6,1.1,2.6,2.6s-1.1,2.6-2.6,2.6S0,169,0,167.5S1.1,165,2.6,165"/>
	<path class="st0" d="M2.6,154c1.4,0,2.6,1.1,2.6,2.6s-1.1,2.6-2.6,2.6S0,158,0,156.5S1.1,154,2.6,154"/>
	<path class="st0" d="M2.6,143c1.4,0,2.6,1.1,2.6,2.6c0,1.4-1.1,2.6-2.6,2.6S0,147,0,145.5C0,144.1,1.1,143,2.6,143"/>
	<path class="st0" d="M2.6,132c1.4,0,2.6,1.1,2.6,2.6c0,1.4-1.1,2.6-2.6,2.6S0,136,0,134.5C0,133.1,1.1,132,2.6,132"/>
	<path class="st0" d="M2.6,121c1.4,0,2.6,1.1,2.6,2.6c0,1.4-1.1,2.6-2.6,2.6S0,125,0,123.5C0,122.1,1.1,121,2.6,121"/>
	<path class="st0" d="M2.6,110c1.4,0,2.6,1.1,2.6,2.6c0,1.4-1.1,2.6-2.6,2.6S0,114,0,112.5C0,111.1,1.1,110,2.6,110"/>
	<path class="st0" d="M2.6,99c1.4,0,2.6,1.1,2.6,2.6s-1.1,2.6-2.6,2.6S0,103,0,101.5S1.1,99,2.6,99"/>
	<path class="st0" d="M2.6,88c1.4,0,2.6,1.1,2.6,2.6S4,93.1,2.6,93.1S0,92,0,90.5S1.1,88,2.6,88"/>
	<path class="st0" d="M2.6,77c1.4,0,2.6,1.1,2.6,2.6S4,82.1,2.6,82.1S0,81,0,79.6S1.1,77,2.6,77"/>
	<path class="st0" d="M2.6,66c1.4,0,2.6,1.1,2.6,2.6S4,71.1,2.6,71.1S0,70,0,68.6S1.1,66,2.6,66"/>
	<path class="st0" d="M2.6,55c1.4,0,2.6,1.1,2.6,2.6c0,1.4-1.1,2.6-2.6,2.6S0,59,0,57.6C0,56.1,1.1,55,2.6,55"/>
	<path class="st0" d="M2.6,44c1.4,0,2.6,1.1,2.6,2.6c0,1.4-1.1,2.6-2.6,2.6S0,48,0,46.6C0,45.1,1.1,44,2.6,44"/>
	<path class="st0" d="M2.6,33c1.4,0,2.6,1.1,2.6,2.6c0,1.4-1.1,2.6-2.6,2.6S0,37,0,35.6C0,34.1,1.1,33,2.6,33"/>
	<path class="st0" d="M2.6,22c1.4,0,2.6,1.1,2.6,2.6c0,1.4-1.1,2.6-2.6,2.6S0,26,0,24.6C0,23.1,1.1,22,2.6,22"/>
	<path class="st0" d="M13.7,264c1.4,0,2.6,1.1,2.6,2.6s-1.1,2.6-2.6,2.6s-2.6-1.2-2.6-2.6S12.3,264,13.7,264"/>
	<path class="st0" d="M13.7,253c1.4,0,2.6,1.1,2.6,2.6s-1.1,2.6-2.6,2.6s-2.6-1.2-2.6-2.6S12.3,253,13.7,253"/>
	<path class="st0" d="M13.7,242c1.4,0,2.6,1.1,2.6,2.6c0,1.4-1.1,2.6-2.6,2.6s-2.6-1.1-2.6-2.6C11.1,243.1,12.3,242,13.7,242"/>
	<path class="st0" d="M13.7,231c1.4,0,2.6,1.1,2.6,2.6c0,1.4-1.1,2.6-2.6,2.6s-2.6-1.1-2.6-2.6C11.1,232.1,12.3,231,13.7,231"/>
	<path class="st0" d="M13.7,220c1.4,0,2.6,1.1,2.6,2.6c0,1.4-1.1,2.6-2.6,2.6s-2.6-1.1-2.6-2.6C11.1,221.1,12.3,220,13.7,220"/>
	<path class="st0" d="M13.7,209c1.4,0,2.6,1.1,2.6,2.6c0,1.4-1.1,2.6-2.6,2.6s-2.6-1.1-2.6-2.6C11.1,210.1,12.3,209,13.7,209"/>
	<path class="st0" d="M13.7,198c1.4,0,2.6,1.1,2.6,2.6c0,1.4-1.1,2.6-2.6,2.6s-2.6-1.2-2.6-2.6C11.1,199.1,12.3,198,13.7,198"/>
	<path class="st0" d="M13.7,187c1.4,0,2.6,1.1,2.6,2.6s-1.1,2.6-2.6,2.6s-2.6-1.2-2.6-2.6S12.3,187,13.7,187"/>
	<path class="st0" d="M13.7,176c1.4,0,2.6,1.1,2.6,2.6s-1.1,2.6-2.6,2.6s-2.6-1.2-2.6-2.6S12.3,176,13.7,176"/>
	<path class="st0" d="M13.7,165c1.4,0,2.6,1.1,2.6,2.6s-1.1,2.6-2.6,2.6s-2.6-1.2-2.6-2.6S12.3,165,13.7,165"/>
	<path class="st0" d="M13.7,154c1.4,0,2.6,1.1,2.6,2.6s-1.1,2.6-2.6,2.6s-2.6-1.2-2.6-2.6S12.3,154,13.7,154"/>
	<path class="st0" d="M13.7,143c1.4,0,2.6,1.1,2.6,2.6c0,1.4-1.1,2.6-2.6,2.6s-2.6-1.1-2.6-2.6C11.1,144.1,12.3,143,13.7,143"/>
	<path class="st0" d="M13.7,132c1.4,0,2.6,1.1,2.6,2.6c0,1.4-1.1,2.6-2.6,2.6s-2.6-1.1-2.6-2.6C11.1,133.1,12.3,132,13.7,132"/>
	<path class="st0" d="M13.7,121c1.4,0,2.6,1.1,2.6,2.6c0,1.4-1.1,2.6-2.6,2.6s-2.6-1.1-2.6-2.6C11.1,122.1,12.3,121,13.7,121"/>
	<path class="st0" d="M13.7,110c1.4,0,2.6,1.1,2.6,2.6c0,1.4-1.1,2.6-2.6,2.6s-2.6-1.1-2.6-2.6C11.1,111.1,12.3,110,13.7,110"/>
	<path class="st0" d="M13.7,99c1.4,0,2.6,1.1,2.6,2.6s-1.1,2.6-2.6,2.6s-2.6-1.2-2.6-2.6S12.3,99,13.7,99"/>
	<path class="st0" d="M13.7,88c1.4,0,2.6,1.1,2.6,2.6s-1.1,2.6-2.6,2.6s-2.6-1.2-2.6-2.6S12.3,88,13.7,88"/>
	<path class="st0" d="M13.7,77c1.4,0,2.6,1.1,2.6,2.6s-1.1,2.6-2.6,2.6s-2.6-1.2-2.6-2.6S12.3,77,13.7,77"/>
	<path class="st0" d="M13.7,66c1.4,0,2.6,1.1,2.6,2.6s-1.1,2.6-2.6,2.6s-2.6-1.2-2.6-2.6S12.3,66,13.7,66"/>
	<path class="st0" d="M13.7,55c1.4,0,2.6,1.1,2.6,2.6c0,1.4-1.1,2.6-2.6,2.6s-2.6-1.1-2.6-2.6C11.1,56.1,12.3,55,13.7,55"/>
	<path class="st0" d="M13.7,44c1.4,0,2.6,1.1,2.6,2.6c0,1.4-1.1,2.6-2.6,2.6s-2.6-1.1-2.6-2.6C11.1,45.1,12.3,44,13.7,44"/>
	<path class="st0" d="M13.7,33c1.4,0,2.6,1.1,2.6,2.6c0,1.4-1.1,2.6-2.6,2.6s-2.6-1.1-2.6-2.6C11.1,34.1,12.3,33,13.7,33"/>
	<path class="st0" d="M13.7,22c1.4,0,2.6,1.1,2.6,2.6c0,1.4-1.1,2.6-2.6,2.6s-2.6-1.1-2.6-2.6C11.1,23.1,12.3,22,13.7,22"/>
	<path class="st0" d="M13.7,11c1.4,0,2.6,1.1,2.6,2.6s-1.1,2.6-2.6,2.6s-2.6-1.2-2.6-2.6S12.3,11,13.7,11"/>
	<path class="st0" d="M24.8,264c1.4,0,2.6,1.1,2.6,2.6s-1.1,2.6-2.6,2.6c-1.4,0-2.6-1.2-2.6-2.6S23.4,264,24.8,264"/>
	<path class="st0" d="M24.8,253c1.4,0,2.6,1.1,2.6,2.6s-1.1,2.6-2.6,2.6c-1.4,0-2.6-1.2-2.6-2.6S23.4,253,24.8,253"/>
	<path class="st0" d="M24.8,242c1.4,0,2.6,1.1,2.6,2.6c0,1.4-1.1,2.6-2.6,2.6c-1.4,0-2.6-1.1-2.6-2.6C22.3,243.1,23.4,242,24.8,242"
		/>
	<path class="st0" d="M24.8,231c1.4,0,2.6,1.1,2.6,2.6c0,1.4-1.1,2.6-2.6,2.6c-1.4,0-2.6-1.1-2.6-2.6C22.3,232.1,23.4,231,24.8,231"
		/>
	<path class="st0" d="M24.8,220c1.4,0,2.6,1.1,2.6,2.6c0,1.4-1.1,2.6-2.6,2.6c-1.4,0-2.6-1.1-2.6-2.6C22.3,221.1,23.4,220,24.8,220"
		/>
	<path class="st0" d="M24.8,209c1.4,0,2.6,1.1,2.6,2.6c0,1.4-1.1,2.6-2.6,2.6c-1.4,0-2.6-1.1-2.6-2.6C22.3,210.1,23.4,209,24.8,209"
		/>
	<path class="st0" d="M24.8,198c1.4,0,2.6,1.1,2.6,2.6c0,1.4-1.1,2.6-2.6,2.6c-1.4,0-2.6-1.2-2.6-2.6C22.3,199.1,23.4,198,24.8,198"
		/>
	<path class="st0" d="M24.8,187c1.4,0,2.6,1.1,2.6,2.6s-1.1,2.6-2.6,2.6c-1.4,0-2.6-1.2-2.6-2.6S23.4,187,24.8,187"/>
	<path class="st0" d="M24.8,176c1.4,0,2.6,1.1,2.6,2.6s-1.1,2.6-2.6,2.6c-1.4,0-2.6-1.2-2.6-2.6S23.4,176,24.8,176"/>
	<path class="st0" d="M24.8,165c1.4,0,2.6,1.1,2.6,2.6s-1.1,2.6-2.6,2.6c-1.4,0-2.6-1.2-2.6-2.6S23.4,165,24.8,165"/>
	<path class="st0" d="M24.8,154c1.4,0,2.6,1.1,2.6,2.6s-1.1,2.6-2.6,2.6c-1.4,0-2.6-1.2-2.6-2.6S23.4,154,24.8,154"/>
	<path class="st0" d="M24.8,143c1.4,0,2.6,1.1,2.6,2.6c0,1.4-1.1,2.6-2.6,2.6c-1.4,0-2.6-1.1-2.6-2.6C22.3,144.1,23.4,143,24.8,143"
		/>
	<path class="st0" d="M24.8,132c1.4,0,2.6,1.1,2.6,2.6c0,1.4-1.1,2.6-2.6,2.6c-1.4,0-2.6-1.1-2.6-2.6C22.3,133.1,23.4,132,24.8,132"
		/>
	<path class="st0" d="M24.8,121c1.4,0,2.6,1.1,2.6,2.6c0,1.4-1.1,2.6-2.6,2.6c-1.4,0-2.6-1.1-2.6-2.6C22.3,122.1,23.4,121,24.8,121"
		/>
	<path class="st0" d="M24.8,110c1.4,0,2.6,1.1,2.6,2.6c0,1.4-1.1,2.6-2.6,2.6c-1.4,0-2.6-1.1-2.6-2.6C22.3,111.1,23.4,110,24.8,110"
		/>
	<path class="st0" d="M24.8,99c1.4,0,2.6,1.1,2.6,2.6s-1.1,2.6-2.6,2.6c-1.4,0-2.6-1.2-2.6-2.6S23.4,99,24.8,99"/>
	<path class="st0" d="M24.8,88c1.4,0,2.6,1.1,2.6,2.6s-1.1,2.6-2.6,2.6c-1.4,0-2.6-1.2-2.6-2.6S23.4,88,24.8,88"/>
	<path class="st0" d="M24.8,77c1.4,0,2.6,1.1,2.6,2.6s-1.1,2.6-2.6,2.6c-1.4,0-2.6-1.2-2.6-2.6S23.4,77,24.8,77"/>
	<path class="st0" d="M24.8,66c1.4,0,2.6,1.1,2.6,2.6s-1.1,2.6-2.6,2.6c-1.4,0-2.6-1.2-2.6-2.6S23.4,66,24.8,66"/>
	<path class="st0" d="M24.8,55c1.4,0,2.6,1.1,2.6,2.6c0,1.4-1.1,2.6-2.6,2.6c-1.4,0-2.6-1.1-2.6-2.6C22.3,56.1,23.4,55,24.8,55"/>
	<path class="st0" d="M24.8,44c1.4,0,2.6,1.1,2.6,2.6c0,1.4-1.1,2.6-2.6,2.6c-1.4,0-2.6-1.1-2.6-2.6C22.3,45.1,23.4,44,24.8,44"/>
	<path class="st0" d="M24.8,33c1.4,0,2.6,1.1,2.6,2.6c0,1.4-1.1,2.6-2.6,2.6c-1.4,0-2.6-1.1-2.6-2.6C22.3,34.1,23.4,33,24.8,33"/>
	<path class="st0" d="M24.8,22c1.4,0,2.6,1.1,2.6,2.6c0,1.4-1.1,2.6-2.6,2.6c-1.4,0-2.6-1.1-2.6-2.6C22.3,23.1,23.4,22,24.8,22"/>
	<path class="st0" d="M24.8,11c1.4,0,2.6,1.1,2.6,2.6s-1.1,2.6-2.6,2.6c-1.4,0-2.6-1.2-2.6-2.6S23.4,11,24.8,11"/>
	<path class="st0" d="M36,264c1.4,0,2.6,1.1,2.6,2.6s-1.1,2.6-2.6,2.6s-2.6-1.2-2.6-2.6S34.6,264,36,264"/>
	<path class="st0" d="M36,253c1.4,0,2.6,1.1,2.6,2.6s-1.1,2.6-2.6,2.6s-2.6-1.2-2.6-2.6S34.6,253,36,253"/>
	<path class="st0" d="M36,242c1.4,0,2.6,1.1,2.6,2.6c0,1.4-1.1,2.6-2.6,2.6s-2.6-1.1-2.6-2.6C33.4,243.1,34.6,242,36,242"/>
	<path class="st0" d="M36,231c1.4,0,2.6,1.1,2.6,2.6c0,1.4-1.1,2.6-2.6,2.6s-2.6-1.1-2.6-2.6C33.4,232.1,34.6,231,36,231"/>
	<path class="st0" d="M36,220c1.4,0,2.6,1.1,2.6,2.6c0,1.4-1.1,2.6-2.6,2.6s-2.6-1.1-2.6-2.6C33.4,221.1,34.6,220,36,220"/>
	<path class="st0" d="M36,209c1.4,0,2.6,1.1,2.6,2.6c0,1.4-1.1,2.6-2.6,2.6s-2.6-1.1-2.6-2.6C33.4,210.1,34.6,209,36,209"/>
	<path class="st0" d="M36,198c1.4,0,2.6,1.1,2.6,2.6c0,1.4-1.1,2.6-2.6,2.6s-2.6-1.2-2.6-2.6C33.4,199.1,34.6,198,36,198"/>
	<path class="st0" d="M36,187c1.4,0,2.6,1.1,2.6,2.6s-1.1,2.6-2.6,2.6s-2.6-1.2-2.6-2.6S34.6,187,36,187"/>
	<path class="st0" d="M36,176c1.4,0,2.6,1.1,2.6,2.6s-1.1,2.6-2.6,2.6s-2.6-1.2-2.6-2.6S34.6,176,36,176"/>
	<path class="st0" d="M36,165c1.4,0,2.6,1.1,2.6,2.6s-1.1,2.6-2.6,2.6s-2.6-1.2-2.6-2.6S34.6,165,36,165"/>
	<path class="st0" d="M36,154c1.4,0,2.6,1.1,2.6,2.6s-1.1,2.6-2.6,2.6s-2.6-1.2-2.6-2.6S34.6,154,36,154"/>
	<path class="st0" d="M36,143c1.4,0,2.6,1.1,2.6,2.6c0,1.4-1.1,2.6-2.6,2.6s-2.6-1.1-2.6-2.6C33.4,144.1,34.6,143,36,143"/>
	<path class="st0" d="M36,132c1.4,0,2.6,1.1,2.6,2.6c0,1.4-1.1,2.6-2.6,2.6s-2.6-1.1-2.6-2.6C33.4,133.1,34.6,132,36,132"/>
	<path class="st0" d="M36,121c1.4,0,2.6,1.1,2.6,2.6c0,1.4-1.1,2.6-2.6,2.6s-2.6-1.1-2.6-2.6C33.4,122.1,34.6,121,36,121"/>
	<path class="st0" d="M36,110c1.4,0,2.6,1.1,2.6,2.6c0,1.4-1.1,2.6-2.6,2.6s-2.6-1.1-2.6-2.6C33.4,111.1,34.6,110,36,110"/>
	<path class="st0" d="M36,99c1.4,0,2.6,1.1,2.6,2.6s-1.1,2.6-2.6,2.6s-2.6-1.2-2.6-2.6S34.6,99,36,99"/>
	<path class="st0" d="M36,88c1.4,0,2.6,1.1,2.6,2.6s-1.1,2.6-2.6,2.6s-2.6-1.2-2.6-2.6S34.6,88,36,88"/>
	<path class="st0" d="M36,77c1.4,0,2.6,1.1,2.6,2.6s-1.1,2.6-2.6,2.6s-2.6-1.2-2.6-2.6S34.6,77,36,77"/>
	<path class="st0" d="M36,66c1.4,0,2.6,1.1,2.6,2.6s-1.1,2.6-2.6,2.6s-2.6-1.2-2.6-2.6S34.6,66,36,66"/>
	<path class="st0" d="M36,55c1.4,0,2.6,1.1,2.6,2.6c0,1.4-1.1,2.6-2.6,2.6s-2.6-1.1-2.6-2.6C33.4,56.1,34.6,55,36,55"/>
	<path class="st0" d="M36,44c1.4,0,2.6,1.1,2.6,2.6c0,1.4-1.1,2.6-2.6,2.6s-2.6-1.1-2.6-2.6C33.4,45.1,34.6,44,36,44"/>
	<path class="st0" d="M36,33c1.4,0,2.6,1.1,2.6,2.6c0,1.4-1.1,2.6-2.6,2.6s-2.6-1.1-2.6-2.6C33.4,34.1,34.6,33,36,33"/>
	<path class="st0" d="M36,22c1.4,0,2.6,1.1,2.6,2.6c0,1.4-1.1,2.6-2.6,2.6s-2.6-1.1-2.6-2.6C33.4,23.1,34.6,22,36,22"/>
	<path class="st0" d="M36,11c1.4,0,2.6,1.1,2.6,2.6s-1.1,2.6-2.6,2.6s-2.6-1.2-2.6-2.6S34.6,11,36,11"/>
	<path class="st0" d="M47.1,274.9c1.4,0,2.6,1.1,2.6,2.6s-1.1,2.6-2.6,2.6c-1.4,0-2.6-1.2-2.6-2.6S45.7,274.9,47.1,274.9"/>
	<path class="st0" d="M47.1,264c1.4,0,2.6,1.1,2.6,2.6s-1.1,2.6-2.6,2.6c-1.4,0-2.6-1.2-2.6-2.6S45.7,264,47.1,264"/>
	<path class="st0" d="M47.1,253c1.4,0,2.6,1.1,2.6,2.6s-1.1,2.6-2.6,2.6c-1.4,0-2.6-1.2-2.6-2.6S45.7,253,47.1,253"/>
	<path class="st0" d="M47.1,242c1.4,0,2.6,1.1,2.6,2.6c0,1.4-1.1,2.6-2.6,2.6c-1.4,0-2.6-1.1-2.6-2.6C44.6,243.1,45.7,242,47.1,242"
		/>
	<path class="st0" d="M47.1,231c1.4,0,2.6,1.1,2.6,2.6c0,1.4-1.1,2.6-2.6,2.6c-1.4,0-2.6-1.1-2.6-2.6C44.6,232.1,45.7,231,47.1,231"
		/>
	<path class="st0" d="M47.1,220c1.4,0,2.6,1.1,2.6,2.6c0,1.4-1.1,2.6-2.6,2.6c-1.4,0-2.6-1.1-2.6-2.6C44.6,221.1,45.7,220,47.1,220"
		/>
	<path class="st0" d="M47.1,209c1.4,0,2.6,1.1,2.6,2.6c0,1.4-1.1,2.6-2.6,2.6c-1.4,0-2.6-1.1-2.6-2.6C44.6,210.1,45.7,209,47.1,209"
		/>
	<path class="st0" d="M47.1,198c1.4,0,2.6,1.1,2.6,2.6c0,1.4-1.1,2.6-2.6,2.6c-1.4,0-2.6-1.2-2.6-2.6C44.6,199.1,45.7,198,47.1,198"
		/>
	<path class="st0" d="M47.1,187c1.4,0,2.6,1.1,2.6,2.6s-1.1,2.6-2.6,2.6c-1.4,0-2.6-1.2-2.6-2.6S45.7,187,47.1,187"/>
	<path class="st0" d="M47.1,176c1.4,0,2.6,1.1,2.6,2.6s-1.1,2.6-2.6,2.6c-1.4,0-2.6-1.2-2.6-2.6S45.7,176,47.1,176"/>
	<path class="st0" d="M47.1,165c1.4,0,2.6,1.1,2.6,2.6s-1.1,2.6-2.6,2.6c-1.4,0-2.6-1.2-2.6-2.6S45.7,165,47.1,165"/>
	<path class="st0" d="M47.1,154c1.4,0,2.6,1.1,2.6,2.6s-1.1,2.6-2.6,2.6c-1.4,0-2.6-1.2-2.6-2.6S45.7,154,47.1,154"/>
	<path class="st0" d="M47.1,143c1.4,0,2.6,1.1,2.6,2.6c0,1.4-1.1,2.6-2.6,2.6c-1.4,0-2.6-1.1-2.6-2.6C44.6,144.1,45.7,143,47.1,143"
		/>
	<path class="st0" d="M47.1,132c1.4,0,2.6,1.1,2.6,2.6c0,1.4-1.1,2.6-2.6,2.6c-1.4,0-2.6-1.1-2.6-2.6C44.6,133.1,45.7,132,47.1,132"
		/>
	<path class="st0" d="M47.1,121c1.4,0,2.6,1.1,2.6,2.6c0,1.4-1.1,2.6-2.6,2.6c-1.4,0-2.6-1.1-2.6-2.6C44.6,122.1,45.7,121,47.1,121"
		/>
	<path class="st0" d="M47.1,110c1.4,0,2.6,1.1,2.6,2.6c0,1.4-1.1,2.6-2.6,2.6c-1.4,0-2.6-1.1-2.6-2.6C44.6,111.1,45.7,110,47.1,110"
		/>
	<path class="st0" d="M47.1,99c1.4,0,2.6,1.1,2.6,2.6s-1.1,2.6-2.6,2.6c-1.4,0-2.6-1.2-2.6-2.6S45.7,99,47.1,99"/>
	<path class="st0" d="M47.1,88c1.4,0,2.6,1.1,2.6,2.6s-1.1,2.6-2.6,2.6c-1.4,0-2.6-1.2-2.6-2.6S45.7,88,47.1,88"/>
	<path class="st0" d="M47.1,77c1.4,0,2.6,1.1,2.6,2.6s-1.1,2.6-2.6,2.6c-1.4,0-2.6-1.2-2.6-2.6S45.7,77,47.1,77"/>
	<path class="st0" d="M47.1,66c1.4,0,2.6,1.1,2.6,2.6s-1.1,2.6-2.6,2.6c-1.4,0-2.6-1.2-2.6-2.6S45.7,66,47.1,66"/>
	<path class="st0" d="M47.1,55c1.4,0,2.6,1.1,2.6,2.6c0,1.4-1.1,2.6-2.6,2.6c-1.4,0-2.6-1.1-2.6-2.6C44.6,56.1,45.7,55,47.1,55"/>
	<path class="st0" d="M47.1,44c1.4,0,2.6,1.1,2.6,2.6c0,1.4-1.1,2.6-2.6,2.6c-1.4,0-2.6-1.1-2.6-2.6C44.6,45.1,45.7,44,47.1,44"/>
	<path class="st0" d="M47.1,33c1.4,0,2.6,1.1,2.6,2.6c0,1.4-1.1,2.6-2.6,2.6c-1.4,0-2.6-1.1-2.6-2.6C44.6,34.1,45.7,33,47.1,33"/>
	<path class="st0" d="M47.1,22c1.4,0,2.6,1.1,2.6,2.6c0,1.4-1.1,2.6-2.6,2.6c-1.4,0-2.6-1.1-2.6-2.6C44.6,23.1,45.7,22,47.1,22"/>
	<path class="st0" d="M47.1,11c1.4,0,2.6,1.1,2.6,2.6s-1.1,2.6-2.6,2.6c-1.4,0-2.6-1.2-2.6-2.6S45.7,11,47.1,11"/>
	<path class="st0" d="M47.1,0c1.4,0,2.6,1.1,2.6,2.6s-1.1,2.6-2.6,2.6c-1.4,0-2.6-1.2-2.6-2.6S45.7,0,47.1,0"/>
	<path class="st0" d="M58.3,274.9c1.4,0,2.6,1.1,2.6,2.6s-1.1,2.6-2.6,2.6c-1.4,0-2.6-1.2-2.6-2.6S56.9,274.9,58.3,274.9"/>
	<path class="st0" d="M58.3,264c1.4,0,2.6,1.1,2.6,2.6s-1.1,2.6-2.6,2.6c-1.4,0-2.6-1.2-2.6-2.6S56.9,264,58.3,264"/>
	<path class="st0" d="M58.3,253c1.4,0,2.6,1.1,2.6,2.6s-1.1,2.6-2.6,2.6c-1.4,0-2.6-1.2-2.6-2.6S56.9,253,58.3,253"/>
	<path class="st0" d="M58.3,242c1.4,0,2.6,1.1,2.6,2.6c0,1.4-1.1,2.6-2.6,2.6c-1.4,0-2.6-1.1-2.6-2.6C55.7,243.1,56.9,242,58.3,242"
		/>
	<path class="st0" d="M58.3,231c1.4,0,2.6,1.1,2.6,2.6c0,1.4-1.1,2.6-2.6,2.6c-1.4,0-2.6-1.1-2.6-2.6C55.7,232.1,56.9,231,58.3,231"
		/>
	<path class="st0" d="M58.3,220c1.4,0,2.6,1.1,2.6,2.6c0,1.4-1.1,2.6-2.6,2.6c-1.4,0-2.6-1.1-2.6-2.6C55.7,221.1,56.9,220,58.3,220"
		/>
	<path class="st0" d="M58.3,209c1.4,0,2.6,1.1,2.6,2.6c0,1.4-1.1,2.6-2.6,2.6c-1.4,0-2.6-1.1-2.6-2.6C55.7,210.1,56.9,209,58.3,209"
		/>
	<path class="st0" d="M58.3,198c1.4,0,2.6,1.1,2.6,2.6c0,1.4-1.1,2.6-2.6,2.6c-1.4,0-2.6-1.2-2.6-2.6C55.7,199.1,56.9,198,58.3,198"
		/>
	<path class="st0" d="M58.3,187c1.4,0,2.6,1.1,2.6,2.6s-1.1,2.6-2.6,2.6c-1.4,0-2.6-1.2-2.6-2.6S56.9,187,58.3,187"/>
	<path class="st0" d="M58.3,176c1.4,0,2.6,1.1,2.6,2.6s-1.1,2.6-2.6,2.6c-1.4,0-2.6-1.2-2.6-2.6S56.9,176,58.3,176"/>
	<path class="st0" d="M58.3,165c1.4,0,2.6,1.1,2.6,2.6s-1.1,2.6-2.6,2.6c-1.4,0-2.6-1.2-2.6-2.6S56.9,165,58.3,165"/>
	<path class="st0" d="M58.3,154c1.4,0,2.6,1.1,2.6,2.6s-1.1,2.6-2.6,2.6c-1.4,0-2.6-1.2-2.6-2.6S56.9,154,58.3,154"/>
	<path class="st0" d="M58.3,143c1.4,0,2.6,1.1,2.6,2.6c0,1.4-1.1,2.6-2.6,2.6c-1.4,0-2.6-1.1-2.6-2.6C55.7,144.1,56.9,143,58.3,143"
		/>
	<path class="st0" d="M58.3,132c1.4,0,2.6,1.1,2.6,2.6c0,1.4-1.1,2.6-2.6,2.6c-1.4,0-2.6-1.1-2.6-2.6C55.7,133.1,56.9,132,58.3,132"
		/>
	<path class="st0" d="M58.3,121c1.4,0,2.6,1.1,2.6,2.6c0,1.4-1.1,2.6-2.6,2.6c-1.4,0-2.6-1.1-2.6-2.6C55.7,122.1,56.9,121,58.3,121"
		/>
	<path class="st0" d="M58.3,110c1.4,0,2.6,1.1,2.6,2.6c0,1.4-1.1,2.6-2.6,2.6c-1.4,0-2.6-1.1-2.6-2.6C55.7,111.1,56.9,110,58.3,110"
		/>
	<path class="st0" d="M58.3,99c1.4,0,2.6,1.1,2.6,2.6s-1.1,2.6-2.6,2.6c-1.4,0-2.6-1.2-2.6-2.6S56.9,99,58.3,99"/>
	<path class="st0" d="M58.3,88c1.4,0,2.6,1.1,2.6,2.6s-1.1,2.6-2.6,2.6c-1.4,0-2.6-1.2-2.6-2.6S56.9,88,58.3,88"/>
	<path class="st0" d="M58.3,77c1.4,0,2.6,1.1,2.6,2.6s-1.1,2.6-2.6,2.6c-1.4,0-2.6-1.2-2.6-2.6S56.9,77,58.3,77"/>
	<path class="st0" d="M58.3,66c1.4,0,2.6,1.1,2.6,2.6s-1.1,2.6-2.6,2.6c-1.4,0-2.6-1.2-2.6-2.6S56.9,66,58.3,66"/>
	<path class="st0" d="M58.3,55c1.4,0,2.6,1.1,2.6,2.6c0,1.4-1.1,2.6-2.6,2.6c-1.4,0-2.6-1.1-2.6-2.6C55.7,56.1,56.9,55,58.3,55"/>
	<path class="st0" d="M58.3,44c1.4,0,2.6,1.1,2.6,2.6c0,1.4-1.1,2.6-2.6,2.6c-1.4,0-2.6-1.1-2.6-2.6C55.7,45.1,56.9,44,58.3,44"/>
	<path class="st0" d="M58.3,33c1.4,0,2.6,1.1,2.6,2.6c0,1.4-1.1,2.6-2.6,2.6c-1.4,0-2.6-1.1-2.6-2.6C55.7,34.1,56.9,33,58.3,33"/>
	<path class="st0" d="M58.3,22c1.4,0,2.6,1.1,2.6,2.6c0,1.4-1.1,2.6-2.6,2.6c-1.4,0-2.6-1.1-2.6-2.6C55.7,23.1,56.9,22,58.3,22"/>
	<path class="st0" d="M58.3,11c1.4,0,2.6,1.1,2.6,2.6s-1.1,2.6-2.6,2.6c-1.4,0-2.6-1.2-2.6-2.6S56.9,11,58.3,11"/>
	<path class="st0" d="M58.3,0c1.4,0,2.6,1.1,2.6,2.6s-1.1,2.6-2.6,2.6c-1.4,0-2.6-1.2-2.6-2.6S56.9,0,58.3,0"/>
	<path class="st0" d="M69.4,274.9c1.4,0,2.6,1.1,2.6,2.6s-1.1,2.6-2.6,2.6s-2.6-1.2-2.6-2.6S68,274.9,69.4,274.9"/>
	<path class="st0" d="M69.4,264c1.4,0,2.6,1.1,2.6,2.6s-1.1,2.6-2.6,2.6s-2.6-1.2-2.6-2.6S68,264,69.4,264"/>
	<path class="st0" d="M69.4,253c1.4,0,2.6,1.1,2.6,2.6s-1.1,2.6-2.6,2.6s-2.6-1.2-2.6-2.6S68,253,69.4,253"/>
	<path class="st0" d="M69.4,242c1.4,0,2.6,1.1,2.6,2.6c0,1.4-1.1,2.6-2.6,2.6s-2.6-1.1-2.6-2.6C66.8,243.1,68,242,69.4,242"/>
	<path class="st0" d="M69.4,231c1.4,0,2.6,1.1,2.6,2.6c0,1.4-1.1,2.6-2.6,2.6s-2.6-1.1-2.6-2.6C66.8,232.1,68,231,69.4,231"/>
	<path class="st0" d="M69.4,220c1.4,0,2.6,1.1,2.6,2.6c0,1.4-1.1,2.6-2.6,2.6s-2.6-1.1-2.6-2.6C66.8,221.1,68,220,69.4,220"/>
	<path class="st0" d="M69.4,209c1.4,0,2.6,1.1,2.6,2.6c0,1.4-1.1,2.6-2.6,2.6s-2.6-1.1-2.6-2.6C66.8,210.1,68,209,69.4,209"/>
	<path class="st0" d="M69.4,198c1.4,0,2.6,1.1,2.6,2.6c0,1.4-1.1,2.6-2.6,2.6s-2.6-1.2-2.6-2.6C66.8,199.1,68,198,69.4,198"/>
	<path class="st0" d="M69.4,187c1.4,0,2.6,1.1,2.6,2.6s-1.1,2.6-2.6,2.6s-2.6-1.2-2.6-2.6S68,187,69.4,187"/>
	<path class="st0" d="M69.4,176c1.4,0,2.6,1.1,2.6,2.6s-1.1,2.6-2.6,2.6s-2.6-1.2-2.6-2.6S68,176,69.4,176"/>
	<path class="st0" d="M69.4,165c1.4,0,2.6,1.1,2.6,2.6s-1.1,2.6-2.6,2.6s-2.6-1.2-2.6-2.6S68,165,69.4,165"/>
	<path class="st0" d="M69.4,154c1.4,0,2.6,1.1,2.6,2.6s-1.1,2.6-2.6,2.6s-2.6-1.2-2.6-2.6S68,154,69.4,154"/>
	<path class="st0" d="M69.4,143c1.4,0,2.6,1.1,2.6,2.6c0,1.4-1.1,2.6-2.6,2.6s-2.6-1.1-2.6-2.6C66.8,144.1,68,143,69.4,143"/>
	<path class="st0" d="M69.4,132c1.4,0,2.6,1.1,2.6,2.6c0,1.4-1.1,2.6-2.6,2.6s-2.6-1.1-2.6-2.6C66.8,133.1,68,132,69.4,132"/>
	<path class="st0" d="M69.4,121c1.4,0,2.6,1.1,2.6,2.6c0,1.4-1.1,2.6-2.6,2.6s-2.6-1.1-2.6-2.6C66.8,122.1,68,121,69.4,121"/>
	<path class="st0" d="M69.4,110c1.4,0,2.6,1.1,2.6,2.6c0,1.4-1.1,2.6-2.6,2.6s-2.6-1.1-2.6-2.6C66.8,111.1,68,110,69.4,110"/>
	<path class="st0" d="M69.4,99c1.4,0,2.6,1.1,2.6,2.6s-1.1,2.6-2.6,2.6s-2.6-1.2-2.6-2.6S68,99,69.4,99"/>
	<path class="st0" d="M69.4,88c1.4,0,2.6,1.1,2.6,2.6s-1.1,2.6-2.6,2.6s-2.6-1.2-2.6-2.6S68,88,69.4,88"/>
	<path class="st0" d="M69.4,77c1.4,0,2.6,1.1,2.6,2.6s-1.1,2.6-2.6,2.6s-2.6-1.2-2.6-2.6S68,77,69.4,77"/>
	<path class="st0" d="M69.4,66c1.4,0,2.6,1.1,2.6,2.6s-1.1,2.6-2.6,2.6s-2.6-1.2-2.6-2.6S68,66,69.4,66"/>
	<path class="st0" d="M69.4,55c1.4,0,2.6,1.1,2.6,2.6c0,1.4-1.1,2.6-2.6,2.6s-2.6-1.1-2.6-2.6C66.8,56.1,68,55,69.4,55"/>
	<path class="st0" d="M69.4,44c1.4,0,2.6,1.1,2.6,2.6c0,1.4-1.1,2.6-2.6,2.6s-2.6-1.1-2.6-2.6C66.8,45.1,68,44,69.4,44"/>
	<path class="st0" d="M69.4,33c1.4,0,2.6,1.1,2.6,2.6c0,1.4-1.1,2.6-2.6,2.6s-2.6-1.1-2.6-2.6C66.8,34.1,68,33,69.4,33"/>
	<path class="st0" d="M69.4,22c1.4,0,2.6,1.1,2.6,2.6c0,1.4-1.1,2.6-2.6,2.6s-2.6-1.1-2.6-2.6C66.8,23.1,68,22,69.4,22"/>
	<path class="st0" d="M69.4,11c1.4,0,2.6,1.1,2.6,2.6s-1.1,2.6-2.6,2.6s-2.6-1.2-2.6-2.6S68,11,69.4,11"/>
	<path class="st0" d="M69.4,0C70.8,0,72,1.1,72,2.6s-1.1,2.6-2.6,2.6S66.8,4,66.8,2.6S68,0,69.4,0"/>
	<path class="st0" d="M80.6,274.9c1.4,0,2.6,1.1,2.6,2.6s-1.1,2.6-2.6,2.6c-1.4,0-2.6-1.2-2.6-2.6S79.1,274.9,80.6,274.9"/>
	<path class="st0" d="M80.6,264c1.4,0,2.6,1.1,2.6,2.6s-1.1,2.6-2.6,2.6c-1.4,0-2.6-1.2-2.6-2.6S79.1,264,80.6,264"/>
	<path class="st0" d="M80.6,253c1.4,0,2.6,1.1,2.6,2.6s-1.1,2.6-2.6,2.6c-1.4,0-2.6-1.2-2.6-2.6S79.1,253,80.6,253"/>
	<path class="st0" d="M80.6,242c1.4,0,2.6,1.1,2.6,2.6c0,1.4-1.1,2.6-2.6,2.6c-1.4,0-2.6-1.1-2.6-2.6C78,243.1,79.1,242,80.6,242"/>
	<path class="st0" d="M80.6,231c1.4,0,2.6,1.1,2.6,2.6c0,1.4-1.1,2.6-2.6,2.6c-1.4,0-2.6-1.1-2.6-2.6C78,232.1,79.1,231,80.6,231"/>
	<path class="st0" d="M80.6,220c1.4,0,2.6,1.1,2.6,2.6c0,1.4-1.1,2.6-2.6,2.6c-1.4,0-2.6-1.1-2.6-2.6C78,221.1,79.1,220,80.6,220"/>
	<path class="st0" d="M80.6,209c1.4,0,2.6,1.1,2.6,2.6c0,1.4-1.1,2.6-2.6,2.6c-1.4,0-2.6-1.1-2.6-2.6C78,210.1,79.1,209,80.6,209"/>
	<path class="st0" d="M80.6,198c1.4,0,2.6,1.1,2.6,2.6c0,1.4-1.1,2.6-2.6,2.6c-1.4,0-2.6-1.2-2.6-2.6C78,199.1,79.1,198,80.6,198"/>
	<path class="st0" d="M80.6,187c1.4,0,2.6,1.1,2.6,2.6s-1.1,2.6-2.6,2.6c-1.4,0-2.6-1.2-2.6-2.6S79.1,187,80.6,187"/>
	<path class="st0" d="M80.6,176c1.4,0,2.6,1.1,2.6,2.6s-1.1,2.6-2.6,2.6c-1.4,0-2.6-1.2-2.6-2.6S79.1,176,80.6,176"/>
	<path class="st0" d="M80.6,165c1.4,0,2.6,1.1,2.6,2.6s-1.1,2.6-2.6,2.6c-1.4,0-2.6-1.2-2.6-2.6S79.1,165,80.6,165"/>
	<path class="st0" d="M80.6,154c1.4,0,2.6,1.1,2.6,2.6s-1.1,2.6-2.6,2.6c-1.4,0-2.6-1.2-2.6-2.6S79.1,154,80.6,154"/>
	<path class="st0" d="M80.6,143c1.4,0,2.6,1.1,2.6,2.6c0,1.4-1.1,2.6-2.6,2.6c-1.4,0-2.6-1.1-2.6-2.6C78,144.1,79.1,143,80.6,143"/>
	<path class="st0" d="M80.6,132c1.4,0,2.6,1.1,2.6,2.6c0,1.4-1.1,2.6-2.6,2.6c-1.4,0-2.6-1.1-2.6-2.6C78,133.1,79.1,132,80.6,132"/>
	<path class="st0" d="M80.6,121c1.4,0,2.6,1.1,2.6,2.6c0,1.4-1.1,2.6-2.6,2.6c-1.4,0-2.6-1.1-2.6-2.6C78,122.1,79.1,121,80.6,121"/>
	<path class="st0" d="M80.6,110c1.4,0,2.6,1.1,2.6,2.6c0,1.4-1.1,2.6-2.6,2.6c-1.4,0-2.6-1.1-2.6-2.6C78,111.1,79.1,110,80.6,110"/>
	<path class="st0" d="M80.6,99c1.4,0,2.6,1.1,2.6,2.6s-1.1,2.6-2.6,2.6c-1.4,0-2.6-1.2-2.6-2.6S79.1,99,80.6,99"/>
	<path class="st0" d="M80.6,88c1.4,0,2.6,1.1,2.6,2.6s-1.1,2.6-2.6,2.6c-1.4,0-2.6-1.2-2.6-2.6S79.1,88,80.6,88"/>
	<path class="st0" d="M80.6,77c1.4,0,2.6,1.1,2.6,2.6s-1.1,2.6-2.6,2.6c-1.4,0-2.6-1.2-2.6-2.6S79.1,77,80.6,77"/>
	<path class="st0" d="M80.6,66c1.4,0,2.6,1.1,2.6,2.6s-1.1,2.6-2.6,2.6c-1.4,0-2.6-1.2-2.6-2.6S79.1,66,80.6,66"/>
	<path class="st0" d="M80.6,55c1.4,0,2.6,1.1,2.6,2.6c0,1.4-1.1,2.6-2.6,2.6c-1.4,0-2.6-1.1-2.6-2.6C78,56.1,79.1,55,80.6,55"/>
	<path class="st0" d="M80.6,44c1.4,0,2.6,1.1,2.6,2.6c0,1.4-1.1,2.6-2.6,2.6c-1.4,0-2.6-1.1-2.6-2.6C78,45.1,79.1,44,80.6,44"/>
	<path class="st0" d="M80.6,33c1.4,0,2.6,1.1,2.6,2.6c0,1.4-1.1,2.6-2.6,2.6c-1.4,0-2.6-1.1-2.6-2.6C78,34.1,79.1,33,80.6,33"/>
	<path class="st0" d="M80.6,22c1.4,0,2.6,1.1,2.6,2.6c0,1.4-1.1,2.6-2.6,2.6c-1.4,0-2.6-1.1-2.6-2.6C78,23.1,79.1,22,80.6,22"/>
	<path class="st0" d="M80.6,11c1.4,0,2.6,1.1,2.6,2.6s-1.1,2.6-2.6,2.6c-1.4,0-2.6-1.2-2.6-2.6S79.1,11,80.6,11"/>
	<path class="st0" d="M80.6,0c1.4,0,2.6,1.1,2.6,2.6S82,5.1,80.6,5.1C79.1,5.1,78,4,78,2.6S79.1,0,80.6,0"/>
	<path class="st0" d="M91.7,274.9c1.4,0,2.6,1.1,2.6,2.6s-1.1,2.6-2.6,2.6c-1.4,0-2.6-1.2-2.6-2.6S90.3,274.9,91.7,274.9"/>
	<path class="st0" d="M91.7,264c1.4,0,2.6,1.1,2.6,2.6s-1.1,2.6-2.6,2.6c-1.4,0-2.6-1.2-2.6-2.6S90.3,264,91.7,264"/>
	<path class="st0" d="M91.7,253c1.4,0,2.6,1.1,2.6,2.6s-1.1,2.6-2.6,2.6c-1.4,0-2.6-1.2-2.6-2.6S90.3,253,91.7,253"/>
	<path class="st0" d="M91.7,242c1.4,0,2.6,1.1,2.6,2.6c0,1.4-1.1,2.6-2.6,2.6c-1.4,0-2.6-1.1-2.6-2.6C89.1,243.1,90.3,242,91.7,242"
		/>
	<path class="st0" d="M91.7,231c1.4,0,2.6,1.1,2.6,2.6c0,1.4-1.1,2.6-2.6,2.6c-1.4,0-2.6-1.1-2.6-2.6C89.1,232.1,90.3,231,91.7,231"
		/>
	<path class="st0" d="M91.7,220c1.4,0,2.6,1.1,2.6,2.6c0,1.4-1.1,2.6-2.6,2.6c-1.4,0-2.6-1.1-2.6-2.6C89.1,221.1,90.3,220,91.7,220"
		/>
	<path class="st0" d="M91.7,209c1.4,0,2.6,1.1,2.6,2.6c0,1.4-1.1,2.6-2.6,2.6c-1.4,0-2.6-1.1-2.6-2.6C89.1,210.1,90.3,209,91.7,209"
		/>
	<path class="st0" d="M91.7,198c1.4,0,2.6,1.1,2.6,2.6c0,1.4-1.1,2.6-2.6,2.6c-1.4,0-2.6-1.2-2.6-2.6C89.1,199.1,90.3,198,91.7,198"
		/>
	<path class="st0" d="M91.7,187c1.4,0,2.6,1.1,2.6,2.6s-1.1,2.6-2.6,2.6c-1.4,0-2.6-1.2-2.6-2.6S90.3,187,91.7,187"/>
	<path class="st0" d="M91.7,176c1.4,0,2.6,1.1,2.6,2.6s-1.1,2.6-2.6,2.6c-1.4,0-2.6-1.2-2.6-2.6S90.3,176,91.7,176"/>
	<path class="st0" d="M91.7,165c1.4,0,2.6,1.1,2.6,2.6s-1.1,2.6-2.6,2.6c-1.4,0-2.6-1.2-2.6-2.6S90.3,165,91.7,165"/>
	<path class="st0" d="M91.7,154c1.4,0,2.6,1.1,2.6,2.6s-1.1,2.6-2.6,2.6c-1.4,0-2.6-1.2-2.6-2.6S90.3,154,91.7,154"/>
	<path class="st0" d="M91.7,143c1.4,0,2.6,1.1,2.6,2.6c0,1.4-1.1,2.6-2.6,2.6c-1.4,0-2.6-1.1-2.6-2.6C89.1,144.1,90.3,143,91.7,143"
		/>
	<path class="st0" d="M91.7,132c1.4,0,2.6,1.1,2.6,2.6c0,1.4-1.1,2.6-2.6,2.6c-1.4,0-2.6-1.1-2.6-2.6C89.1,133.1,90.3,132,91.7,132"
		/>
	<path class="st0" d="M91.7,121c1.4,0,2.6,1.1,2.6,2.6c0,1.4-1.1,2.6-2.6,2.6c-1.4,0-2.6-1.1-2.6-2.6C89.1,122.1,90.3,121,91.7,121"
		/>
	<path class="st0" d="M91.7,110c1.4,0,2.6,1.1,2.6,2.6c0,1.4-1.1,2.6-2.6,2.6c-1.4,0-2.6-1.1-2.6-2.6C89.1,111.1,90.3,110,91.7,110"
		/>
	<path class="st0" d="M91.7,99c1.4,0,2.6,1.1,2.6,2.6s-1.1,2.6-2.6,2.6c-1.4,0-2.6-1.2-2.6-2.6S90.3,99,91.7,99"/>
	<path class="st0" d="M91.7,88c1.4,0,2.6,1.1,2.6,2.6s-1.1,2.6-2.6,2.6c-1.4,0-2.6-1.2-2.6-2.6S90.3,88,91.7,88"/>
	<path class="st0" d="M91.7,77c1.4,0,2.6,1.1,2.6,2.6s-1.1,2.6-2.6,2.6c-1.4,0-2.6-1.2-2.6-2.6S90.3,77,91.7,77"/>
	<path class="st0" d="M91.7,66c1.4,0,2.6,1.1,2.6,2.6s-1.1,2.6-2.6,2.6c-1.4,0-2.6-1.2-2.6-2.6S90.3,66,91.7,66"/>
	<path class="st0" d="M91.7,55c1.4,0,2.6,1.1,2.6,2.6c0,1.4-1.1,2.6-2.6,2.6c-1.4,0-2.6-1.1-2.6-2.6C89.1,56.1,90.3,55,91.7,55"/>
	<path class="st0" d="M91.7,44c1.4,0,2.6,1.1,2.6,2.6c0,1.4-1.1,2.6-2.6,2.6c-1.4,0-2.6-1.1-2.6-2.6C89.1,45.1,90.3,44,91.7,44"/>
	<path class="st0" d="M91.7,33c1.4,0,2.6,1.1,2.6,2.6c0,1.4-1.1,2.6-2.6,2.6c-1.4,0-2.6-1.1-2.6-2.6C89.1,34.1,90.3,33,91.7,33"/>
	<path class="st0" d="M91.7,22c1.4,0,2.6,1.1,2.6,2.6c0,1.4-1.1,2.6-2.6,2.6c-1.4,0-2.6-1.1-2.6-2.6C89.1,23.1,90.3,22,91.7,22"/>
	<path class="st0" d="M91.7,11c1.4,0,2.6,1.1,2.6,2.6s-1.1,2.6-2.6,2.6c-1.4,0-2.6-1.2-2.6-2.6S90.3,11,91.7,11"/>
	<path class="st0" d="M91.7,0c1.4,0,2.6,1.1,2.6,2.6s-1.1,2.6-2.6,2.6c-1.4,0-2.6-1.2-2.6-2.6S90.3,0,91.7,0"/>
	<path class="st0" d="M102.8,274.9c1.4,0,2.6,1.1,2.6,2.6s-1.1,2.6-2.6,2.6c-1.4,0-2.6-1.2-2.6-2.6S101.4,274.9,102.8,274.9"/>
	<path class="st0" d="M102.8,264c1.4,0,2.6,1.1,2.6,2.6s-1.1,2.6-2.6,2.6c-1.4,0-2.6-1.2-2.6-2.6S101.4,264,102.8,264"/>
	<path class="st0" d="M102.8,253c1.4,0,2.6,1.1,2.6,2.6s-1.1,2.6-2.6,2.6c-1.4,0-2.6-1.2-2.6-2.6S101.4,253,102.8,253"/>
	<path class="st0" d="M102.8,242c1.4,0,2.6,1.1,2.6,2.6c0,1.4-1.1,2.6-2.6,2.6c-1.4,0-2.6-1.1-2.6-2.6
		C100.3,243.1,101.4,242,102.8,242"/>
	<path class="st0" d="M102.8,231c1.4,0,2.6,1.1,2.6,2.6c0,1.4-1.1,2.6-2.6,2.6c-1.4,0-2.6-1.1-2.6-2.6
		C100.3,232.1,101.4,231,102.8,231"/>
	<path class="st0" d="M102.8,220c1.4,0,2.6,1.1,2.6,2.6c0,1.4-1.1,2.6-2.6,2.6c-1.4,0-2.6-1.1-2.6-2.6
		C100.3,221.1,101.4,220,102.8,220"/>
	<path class="st0" d="M102.8,209c1.4,0,2.6,1.1,2.6,2.6c0,1.4-1.1,2.6-2.6,2.6c-1.4,0-2.6-1.1-2.6-2.6
		C100.3,210.1,101.4,209,102.8,209"/>
	<path class="st0" d="M102.8,198c1.4,0,2.6,1.1,2.6,2.6c0,1.4-1.1,2.6-2.6,2.6c-1.4,0-2.6-1.2-2.6-2.6
		C100.3,199.1,101.4,198,102.8,198"/>
	<path class="st0" d="M102.8,187c1.4,0,2.6,1.1,2.6,2.6s-1.1,2.6-2.6,2.6c-1.4,0-2.6-1.2-2.6-2.6S101.4,187,102.8,187"/>
	<path class="st0" d="M102.8,176c1.4,0,2.6,1.1,2.6,2.6s-1.1,2.6-2.6,2.6c-1.4,0-2.6-1.2-2.6-2.6S101.4,176,102.8,176"/>
	<path class="st0" d="M102.8,165c1.4,0,2.6,1.1,2.6,2.6s-1.1,2.6-2.6,2.6c-1.4,0-2.6-1.2-2.6-2.6S101.4,165,102.8,165"/>
	<path class="st0" d="M102.8,154c1.4,0,2.6,1.1,2.6,2.6s-1.1,2.6-2.6,2.6c-1.4,0-2.6-1.2-2.6-2.6S101.4,154,102.8,154"/>
	<path class="st0" d="M102.8,143c1.4,0,2.6,1.1,2.6,2.6c0,1.4-1.1,2.6-2.6,2.6c-1.4,0-2.6-1.1-2.6-2.6
		C100.3,144.1,101.4,143,102.8,143"/>
	<path class="st0" d="M102.8,132c1.4,0,2.6,1.1,2.6,2.6c0,1.4-1.1,2.6-2.6,2.6c-1.4,0-2.6-1.1-2.6-2.6
		C100.3,133.1,101.4,132,102.8,132"/>
	<path class="st0" d="M102.8,121c1.4,0,2.6,1.1,2.6,2.6c0,1.4-1.1,2.6-2.6,2.6c-1.4,0-2.6-1.1-2.6-2.6
		C100.3,122.1,101.4,121,102.8,121"/>
	<path class="st0" d="M102.8,110c1.4,0,2.6,1.1,2.6,2.6c0,1.4-1.1,2.6-2.6,2.6c-1.4,0-2.6-1.1-2.6-2.6
		C100.3,111.1,101.4,110,102.8,110"/>
	<path class="st0" d="M102.8,99c1.4,0,2.6,1.1,2.6,2.6s-1.1,2.6-2.6,2.6c-1.4,0-2.6-1.2-2.6-2.6S101.4,99,102.8,99"/>
	<path class="st0" d="M102.8,88c1.4,0,2.6,1.1,2.6,2.6s-1.1,2.6-2.6,2.6c-1.4,0-2.6-1.2-2.6-2.6S101.4,88,102.8,88"/>
	<path class="st0" d="M102.8,77c1.4,0,2.6,1.1,2.6,2.6s-1.1,2.6-2.6,2.6c-1.4,0-2.6-1.2-2.6-2.6S101.4,77,102.8,77"/>
	<path class="st0" d="M102.8,66c1.4,0,2.6,1.1,2.6,2.6s-1.1,2.6-2.6,2.6c-1.4,0-2.6-1.2-2.6-2.6S101.4,66,102.8,66"/>
	<path class="st0" d="M102.8,55c1.4,0,2.6,1.1,2.6,2.6c0,1.4-1.1,2.6-2.6,2.6c-1.4,0-2.6-1.1-2.6-2.6C100.3,56.1,101.4,55,102.8,55"
		/>
	<path class="st0" d="M102.8,44c1.4,0,2.6,1.1,2.6,2.6c0,1.4-1.1,2.6-2.6,2.6c-1.4,0-2.6-1.1-2.6-2.6C100.3,45.1,101.4,44,102.8,44"
		/>
	<path class="st0" d="M102.8,33c1.4,0,2.6,1.1,2.6,2.6c0,1.4-1.1,2.6-2.6,2.6c-1.4,0-2.6-1.1-2.6-2.6C100.3,34.1,101.4,33,102.8,33"
		/>
	<path class="st0" d="M102.8,22c1.4,0,2.6,1.1,2.6,2.6c0,1.4-1.1,2.6-2.6,2.6c-1.4,0-2.6-1.1-2.6-2.6C100.3,23.1,101.4,22,102.8,22"
		/>
	<path class="st0" d="M102.8,11c1.4,0,2.6,1.1,2.6,2.6s-1.1,2.6-2.6,2.6c-1.4,0-2.6-1.2-2.6-2.6S101.4,11,102.8,11"/>
	<path class="st0" d="M102.8,0c1.4,0,2.6,1.1,2.6,2.6s-1.1,2.6-2.6,2.6c-1.4,0-2.6-1.2-2.6-2.6S101.4,0,102.8,0"/>
	<path class="st0" d="M114,264c1.4,0,2.6,1.1,2.6,2.6s-1.1,2.6-2.6,2.6c-1.4,0-2.6-1.2-2.6-2.6S112.6,264,114,264"/>
	<path class="st0" d="M114,253c1.4,0,2.6,1.1,2.6,2.6s-1.1,2.6-2.6,2.6c-1.4,0-2.6-1.2-2.6-2.6S112.6,253,114,253"/>
	<path class="st0" d="M114,242c1.4,0,2.6,1.1,2.6,2.6c0,1.4-1.1,2.6-2.6,2.6c-1.4,0-2.6-1.1-2.6-2.6C111.4,243.1,112.6,242,114,242"
		/>
	<path class="st0" d="M114,231c1.4,0,2.6,1.1,2.6,2.6c0,1.4-1.1,2.6-2.6,2.6c-1.4,0-2.6-1.1-2.6-2.6C111.4,232.1,112.6,231,114,231"
		/>
	<path class="st0" d="M114,220c1.4,0,2.6,1.1,2.6,2.6c0,1.4-1.1,2.6-2.6,2.6c-1.4,0-2.6-1.1-2.6-2.6C111.4,221.1,112.6,220,114,220"
		/>
	<path class="st0" d="M114,209c1.4,0,2.6,1.1,2.6,2.6c0,1.4-1.1,2.6-2.6,2.6c-1.4,0-2.6-1.1-2.6-2.6C111.4,210.1,112.6,209,114,209"
		/>
	<path class="st0" d="M114,198c1.4,0,2.6,1.1,2.6,2.6c0,1.4-1.1,2.6-2.6,2.6c-1.4,0-2.6-1.2-2.6-2.6C111.4,199.1,112.6,198,114,198"
		/>
	<path class="st0" d="M114,187c1.4,0,2.6,1.1,2.6,2.6s-1.1,2.6-2.6,2.6c-1.4,0-2.6-1.2-2.6-2.6S112.6,187,114,187"/>
	<path class="st0" d="M114,176c1.4,0,2.6,1.1,2.6,2.6s-1.1,2.6-2.6,2.6c-1.4,0-2.6-1.2-2.6-2.6S112.6,176,114,176"/>
	<path class="st0" d="M114,165c1.4,0,2.6,1.1,2.6,2.6s-1.1,2.6-2.6,2.6c-1.4,0-2.6-1.2-2.6-2.6S112.6,165,114,165"/>
	<path class="st0" d="M114,154c1.4,0,2.6,1.1,2.6,2.6s-1.1,2.6-2.6,2.6c-1.4,0-2.6-1.2-2.6-2.6S112.6,154,114,154"/>
	<path class="st0" d="M114,143c1.4,0,2.6,1.1,2.6,2.6c0,1.4-1.1,2.6-2.6,2.6c-1.4,0-2.6-1.1-2.6-2.6C111.4,144.1,112.6,143,114,143"
		/>
	<path class="st0" d="M114,132c1.4,0,2.6,1.1,2.6,2.6c0,1.4-1.1,2.6-2.6,2.6c-1.4,0-2.6-1.1-2.6-2.6C111.4,133.1,112.6,132,114,132"
		/>
	<path class="st0" d="M114,121c1.4,0,2.6,1.1,2.6,2.6c0,1.4-1.1,2.6-2.6,2.6c-1.4,0-2.6-1.1-2.6-2.6C111.4,122.1,112.6,121,114,121"
		/>
	<path class="st0" d="M114,110c1.4,0,2.6,1.1,2.6,2.6c0,1.4-1.1,2.6-2.6,2.6c-1.4,0-2.6-1.1-2.6-2.6C111.4,111.1,112.6,110,114,110"
		/>
	<path class="st0" d="M114,99c1.4,0,2.6,1.1,2.6,2.6s-1.1,2.6-2.6,2.6c-1.4,0-2.6-1.2-2.6-2.6S112.6,99,114,99"/>
	<path class="st0" d="M114,88c1.4,0,2.6,1.1,2.6,2.6s-1.1,2.6-2.6,2.6c-1.4,0-2.6-1.2-2.6-2.6S112.6,88,114,88"/>
	<path class="st0" d="M114,77c1.4,0,2.6,1.1,2.6,2.6s-1.1,2.6-2.6,2.6c-1.4,0-2.6-1.2-2.6-2.6S112.6,77,114,77"/>
	<path class="st0" d="M114,66c1.4,0,2.6,1.1,2.6,2.6s-1.1,2.6-2.6,2.6c-1.4,0-2.6-1.2-2.6-2.6S112.6,66,114,66"/>
	<path class="st0" d="M114,55c1.4,0,2.6,1.1,2.6,2.6c0,1.4-1.1,2.6-2.6,2.6c-1.4,0-2.6-1.1-2.6-2.6C111.4,56.1,112.6,55,114,55"/>
	<path class="st0" d="M114,44c1.4,0,2.6,1.1,2.6,2.6c0,1.4-1.1,2.6-2.6,2.6c-1.4,0-2.6-1.1-2.6-2.6C111.4,45.1,112.6,44,114,44"/>
	<path class="st0" d="M114,33c1.4,0,2.6,1.1,2.6,2.6c0,1.4-1.1,2.6-2.6,2.6c-1.4,0-2.6-1.1-2.6-2.6C111.4,34.1,112.6,33,114,33"/>
	<path class="st0" d="M114,22c1.4,0,2.6,1.1,2.6,2.6c0,1.4-1.1,2.6-2.6,2.6c-1.4,0-2.6-1.1-2.6-2.6C111.4,23.1,112.6,22,114,22"/>
	<path class="st0" d="M114,11c1.4,0,2.6,1.1,2.6,2.6s-1.1,2.6-2.6,2.6c-1.4,0-2.6-1.2-2.6-2.6S112.6,11,114,11"/>
	<path class="st0" d="M125.1,264c1.4,0,2.6,1.1,2.6,2.6s-1.1,2.6-2.6,2.6c-1.4,0-2.6-1.2-2.6-2.6S123.7,264,125.1,264"/>
	<path class="st0" d="M125.1,253c1.4,0,2.6,1.1,2.6,2.6s-1.1,2.6-2.6,2.6c-1.4,0-2.6-1.2-2.6-2.6S123.7,253,125.1,253"/>
	<path class="st0" d="M125.1,242c1.4,0,2.6,1.1,2.6,2.6c0,1.4-1.1,2.6-2.6,2.6c-1.4,0-2.6-1.1-2.6-2.6
		C122.6,243.1,123.7,242,125.1,242"/>
	<path class="st0" d="M125.1,231c1.4,0,2.6,1.1,2.6,2.6c0,1.4-1.1,2.6-2.6,2.6c-1.4,0-2.6-1.1-2.6-2.6
		C122.6,232.1,123.7,231,125.1,231"/>
	<path class="st0" d="M125.1,220c1.4,0,2.6,1.1,2.6,2.6c0,1.4-1.1,2.6-2.6,2.6c-1.4,0-2.6-1.1-2.6-2.6
		C122.6,221.1,123.7,220,125.1,220"/>
	<path class="st0" d="M125.1,209c1.4,0,2.6,1.1,2.6,2.6c0,1.4-1.1,2.6-2.6,2.6c-1.4,0-2.6-1.1-2.6-2.6
		C122.6,210.1,123.7,209,125.1,209"/>
	<path class="st0" d="M125.1,198c1.4,0,2.6,1.1,2.6,2.6c0,1.4-1.1,2.6-2.6,2.6c-1.4,0-2.6-1.2-2.6-2.6
		C122.6,199.1,123.7,198,125.1,198"/>
	<path class="st0" d="M125.1,187c1.4,0,2.6,1.1,2.6,2.6s-1.1,2.6-2.6,2.6c-1.4,0-2.6-1.2-2.6-2.6S123.7,187,125.1,187"/>
	<path class="st0" d="M125.1,176c1.4,0,2.6,1.1,2.6,2.6s-1.1,2.6-2.6,2.6c-1.4,0-2.6-1.2-2.6-2.6S123.7,176,125.1,176"/>
	<path class="st0" d="M125.1,165c1.4,0,2.6,1.1,2.6,2.6s-1.1,2.6-2.6,2.6c-1.4,0-2.6-1.2-2.6-2.6S123.7,165,125.1,165"/>
	<path class="st0" d="M125.1,154c1.4,0,2.6,1.1,2.6,2.6s-1.1,2.6-2.6,2.6c-1.4,0-2.6-1.2-2.6-2.6S123.7,154,125.1,154"/>
	<path class="st0" d="M125.1,143c1.4,0,2.6,1.1,2.6,2.6c0,1.4-1.1,2.6-2.6,2.6c-1.4,0-2.6-1.1-2.6-2.6
		C122.6,144.1,123.7,143,125.1,143"/>
	<path class="st0" d="M125.1,132c1.4,0,2.6,1.1,2.6,2.6c0,1.4-1.1,2.6-2.6,2.6c-1.4,0-2.6-1.1-2.6-2.6
		C122.6,133.1,123.7,132,125.1,132"/>
	<path class="st0" d="M125.1,121c1.4,0,2.6,1.1,2.6,2.6c0,1.4-1.1,2.6-2.6,2.6c-1.4,0-2.6-1.1-2.6-2.6
		C122.6,122.1,123.7,121,125.1,121"/>
	<path class="st0" d="M125.1,110c1.4,0,2.6,1.1,2.6,2.6c0,1.4-1.1,2.6-2.6,2.6c-1.4,0-2.6-1.1-2.6-2.6
		C122.6,111.1,123.7,110,125.1,110"/>
	<path class="st0" d="M125.1,99c1.4,0,2.6,1.1,2.6,2.6s-1.1,2.6-2.6,2.6c-1.4,0-2.6-1.2-2.6-2.6S123.7,99,125.1,99"/>
	<path class="st0" d="M125.1,88c1.4,0,2.6,1.1,2.6,2.6s-1.1,2.6-2.6,2.6c-1.4,0-2.6-1.2-2.6-2.6S123.7,88,125.1,88"/>
	<path class="st0" d="M125.1,77c1.4,0,2.6,1.1,2.6,2.6s-1.1,2.6-2.6,2.6c-1.4,0-2.6-1.2-2.6-2.6S123.7,77,125.1,77"/>
	<path class="st0" d="M125.1,66c1.4,0,2.6,1.1,2.6,2.6s-1.1,2.6-2.6,2.6c-1.4,0-2.6-1.2-2.6-2.6S123.7,66,125.1,66"/>
	<path class="st0" d="M125.1,55c1.4,0,2.6,1.1,2.6,2.6c0,1.4-1.1,2.6-2.6,2.6c-1.4,0-2.6-1.1-2.6-2.6C122.6,56.1,123.7,55,125.1,55"
		/>
	<path class="st0" d="M125.1,44c1.4,0,2.6,1.1,2.6,2.6c0,1.4-1.1,2.6-2.6,2.6c-1.4,0-2.6-1.1-2.6-2.6C122.6,45.1,123.7,44,125.1,44"
		/>
	<path class="st0" d="M125.1,33c1.4,0,2.6,1.1,2.6,2.6c0,1.4-1.1,2.6-2.6,2.6c-1.4,0-2.6-1.1-2.6-2.6C122.6,34.1,123.7,33,125.1,33"
		/>
	<path class="st0" d="M125.1,22c1.4,0,2.6,1.1,2.6,2.6c0,1.4-1.1,2.6-2.6,2.6c-1.4,0-2.6-1.1-2.6-2.6C122.6,23.1,123.7,22,125.1,22"
		/>
	<path class="st0" d="M125.1,11c1.4,0,2.6,1.1,2.6,2.6s-1.1,2.6-2.6,2.6c-1.4,0-2.6-1.2-2.6-2.6S123.7,11,125.1,11"/>
	<path class="st0" d="M136.3,264c1.4,0,2.6,1.1,2.6,2.6s-1.1,2.6-2.6,2.6c-1.4,0-2.6-1.2-2.6-2.6S134.8,264,136.3,264"/>
	<path class="st0" d="M136.3,253c1.4,0,2.6,1.1,2.6,2.6s-1.1,2.6-2.6,2.6c-1.4,0-2.6-1.2-2.6-2.6S134.8,253,136.3,253"/>
	<path class="st0" d="M136.3,242c1.4,0,2.6,1.1,2.6,2.6c0,1.4-1.1,2.6-2.6,2.6c-1.4,0-2.6-1.1-2.6-2.6
		C133.7,243.1,134.8,242,136.3,242"/>
	<path class="st0" d="M136.3,231c1.4,0,2.6,1.1,2.6,2.6c0,1.4-1.1,2.6-2.6,2.6c-1.4,0-2.6-1.1-2.6-2.6
		C133.7,232.1,134.8,231,136.3,231"/>
	<path class="st0" d="M136.3,220c1.4,0,2.6,1.1,2.6,2.6c0,1.4-1.1,2.6-2.6,2.6c-1.4,0-2.6-1.1-2.6-2.6
		C133.7,221.1,134.8,220,136.3,220"/>
	<path class="st0" d="M136.3,209c1.4,0,2.6,1.1,2.6,2.6c0,1.4-1.1,2.6-2.6,2.6c-1.4,0-2.6-1.1-2.6-2.6
		C133.7,210.1,134.8,209,136.3,209"/>
	<path class="st0" d="M136.3,198c1.4,0,2.6,1.1,2.6,2.6c0,1.4-1.1,2.6-2.6,2.6c-1.4,0-2.6-1.2-2.6-2.6
		C133.7,199.1,134.8,198,136.3,198"/>
	<path class="st0" d="M136.3,187c1.4,0,2.6,1.1,2.6,2.6s-1.1,2.6-2.6,2.6c-1.4,0-2.6-1.2-2.6-2.6S134.8,187,136.3,187"/>
	<path class="st0" d="M136.3,176c1.4,0,2.6,1.1,2.6,2.6s-1.1,2.6-2.6,2.6c-1.4,0-2.6-1.2-2.6-2.6S134.8,176,136.3,176"/>
	<path class="st0" d="M136.3,165c1.4,0,2.6,1.1,2.6,2.6s-1.1,2.6-2.6,2.6c-1.4,0-2.6-1.2-2.6-2.6S134.8,165,136.3,165"/>
	<path class="st0" d="M136.3,154c1.4,0,2.6,1.1,2.6,2.6s-1.1,2.6-2.6,2.6c-1.4,0-2.6-1.2-2.6-2.6S134.8,154,136.3,154"/>
	<path class="st0" d="M136.3,143c1.4,0,2.6,1.1,2.6,2.6c0,1.4-1.1,2.6-2.6,2.6c-1.4,0-2.6-1.1-2.6-2.6
		C133.7,144.1,134.8,143,136.3,143"/>
	<path class="st0" d="M136.3,132c1.4,0,2.6,1.1,2.6,2.6c0,1.4-1.1,2.6-2.6,2.6c-1.4,0-2.6-1.1-2.6-2.6
		C133.7,133.1,134.8,132,136.3,132"/>
	<path class="st0" d="M136.3,121c1.4,0,2.6,1.1,2.6,2.6c0,1.4-1.1,2.6-2.6,2.6c-1.4,0-2.6-1.1-2.6-2.6
		C133.7,122.1,134.8,121,136.3,121"/>
	<path class="st0" d="M136.3,110c1.4,0,2.6,1.1,2.6,2.6c0,1.4-1.1,2.6-2.6,2.6c-1.4,0-2.6-1.1-2.6-2.6
		C133.7,111.1,134.8,110,136.3,110"/>
	<path class="st0" d="M136.3,99c1.4,0,2.6,1.1,2.6,2.6s-1.1,2.6-2.6,2.6c-1.4,0-2.6-1.2-2.6-2.6S134.8,99,136.3,99"/>
	<path class="st0" d="M136.3,88c1.4,0,2.6,1.1,2.6,2.6s-1.1,2.6-2.6,2.6c-1.4,0-2.6-1.2-2.6-2.6S134.8,88,136.3,88"/>
	<path class="st0" d="M136.3,77c1.4,0,2.6,1.1,2.6,2.6s-1.1,2.6-2.6,2.6c-1.4,0-2.6-1.2-2.6-2.6S134.8,77,136.3,77"/>
	<path class="st0" d="M136.3,66c1.4,0,2.6,1.1,2.6,2.6s-1.1,2.6-2.6,2.6c-1.4,0-2.6-1.2-2.6-2.6S134.8,66,136.3,66"/>
	<path class="st0" d="M136.3,55c1.4,0,2.6,1.1,2.6,2.6c0,1.4-1.1,2.6-2.6,2.6c-1.4,0-2.6-1.1-2.6-2.6C133.7,56.1,134.8,55,136.3,55"
		/>
	<path class="st0" d="M136.3,44c1.4,0,2.6,1.1,2.6,2.6c0,1.4-1.1,2.6-2.6,2.6c-1.4,0-2.6-1.1-2.6-2.6C133.7,45.1,134.8,44,136.3,44"
		/>
	<path class="st0" d="M136.3,33c1.4,0,2.6,1.1,2.6,2.6c0,1.4-1.1,2.6-2.6,2.6c-1.4,0-2.6-1.1-2.6-2.6C133.7,34.1,134.8,33,136.3,33"
		/>
	<path class="st0" d="M136.3,22c1.4,0,2.6,1.1,2.6,2.6c0,1.4-1.1,2.6-2.6,2.6c-1.4,0-2.6-1.1-2.6-2.6C133.7,23.1,134.8,22,136.3,22"
		/>
	<path class="st0" d="M136.3,11c1.4,0,2.6,1.1,2.6,2.6s-1.1,2.6-2.6,2.6c-1.4,0-2.6-1.2-2.6-2.6S134.8,11,136.3,11"/>
	<path class="st0" d="M147.4,253c1.4,0,2.6,1.1,2.6,2.6s-1.1,2.6-2.6,2.6c-1.4,0-2.6-1.2-2.6-2.6S146,253,147.4,253"/>
	<path class="st0" d="M147.4,242c1.4,0,2.6,1.1,2.6,2.6c0,1.4-1.1,2.6-2.6,2.6c-1.4,0-2.6-1.1-2.6-2.6
		C144.8,243.1,146,242,147.4,242"/>
	<path class="st0" d="M147.4,231c1.4,0,2.6,1.1,2.6,2.6c0,1.4-1.1,2.6-2.6,2.6c-1.4,0-2.6-1.1-2.6-2.6
		C144.8,232.1,146,231,147.4,231"/>
	<path class="st0" d="M147.4,220c1.4,0,2.6,1.1,2.6,2.6c0,1.4-1.1,2.6-2.6,2.6c-1.4,0-2.6-1.1-2.6-2.6
		C144.8,221.1,146,220,147.4,220"/>
	<path class="st0" d="M147.4,209c1.4,0,2.6,1.1,2.6,2.6c0,1.4-1.1,2.6-2.6,2.6c-1.4,0-2.6-1.1-2.6-2.6
		C144.8,210.1,146,209,147.4,209"/>
	<path class="st0" d="M147.4,198c1.4,0,2.6,1.1,2.6,2.6c0,1.4-1.1,2.6-2.6,2.6c-1.4,0-2.6-1.2-2.6-2.6
		C144.8,199.1,146,198,147.4,198"/>
	<path class="st0" d="M147.4,187c1.4,0,2.6,1.1,2.6,2.6s-1.1,2.6-2.6,2.6c-1.4,0-2.6-1.2-2.6-2.6S146,187,147.4,187"/>
	<path class="st0" d="M147.4,176c1.4,0,2.6,1.1,2.6,2.6s-1.1,2.6-2.6,2.6c-1.4,0-2.6-1.2-2.6-2.6S146,176,147.4,176"/>
	<path class="st0" d="M147.4,165c1.4,0,2.6,1.1,2.6,2.6s-1.1,2.6-2.6,2.6c-1.4,0-2.6-1.2-2.6-2.6S146,165,147.4,165"/>
	<path class="st0" d="M147.4,154c1.4,0,2.6,1.1,2.6,2.6s-1.1,2.6-2.6,2.6c-1.4,0-2.6-1.2-2.6-2.6S146,154,147.4,154"/>
	<path class="st0" d="M147.4,143c1.4,0,2.6,1.1,2.6,2.6c0,1.4-1.1,2.6-2.6,2.6c-1.4,0-2.6-1.1-2.6-2.6
		C144.8,144.1,146,143,147.4,143"/>
	<path class="st0" d="M147.4,132c1.4,0,2.6,1.1,2.6,2.6c0,1.4-1.1,2.6-2.6,2.6c-1.4,0-2.6-1.1-2.6-2.6
		C144.8,133.1,146,132,147.4,132"/>
	<path class="st0" d="M147.4,121c1.4,0,2.6,1.1,2.6,2.6c0,1.4-1.1,2.6-2.6,2.6c-1.4,0-2.6-1.1-2.6-2.6
		C144.8,122.1,146,121,147.4,121"/>
	<path class="st0" d="M147.4,110c1.4,0,2.6,1.1,2.6,2.6c0,1.4-1.1,2.6-2.6,2.6c-1.4,0-2.6-1.1-2.6-2.6
		C144.8,111.1,146,110,147.4,110"/>
	<path class="st0" d="M147.4,99c1.4,0,2.6,1.1,2.6,2.6s-1.1,2.6-2.6,2.6c-1.4,0-2.6-1.2-2.6-2.6S146,99,147.4,99"/>
	<path class="st0" d="M147.4,88c1.4,0,2.6,1.1,2.6,2.6s-1.1,2.6-2.6,2.6c-1.4,0-2.6-1.2-2.6-2.6S146,88,147.4,88"/>
	<path class="st0" d="M147.4,77c1.4,0,2.6,1.1,2.6,2.6s-1.1,2.6-2.6,2.6c-1.4,0-2.6-1.2-2.6-2.6S146,77,147.4,77"/>
	<path class="st0" d="M147.4,66c1.4,0,2.6,1.1,2.6,2.6s-1.1,2.6-2.6,2.6c-1.4,0-2.6-1.2-2.6-2.6S146,66,147.4,66"/>
	<path class="st0" d="M147.4,55c1.4,0,2.6,1.1,2.6,2.6c0,1.4-1.1,2.6-2.6,2.6c-1.4,0-2.6-1.1-2.6-2.6C144.8,56.1,146,55,147.4,55"/>
	<path class="st0" d="M147.4,44c1.4,0,2.6,1.1,2.6,2.6c0,1.4-1.1,2.6-2.6,2.6c-1.4,0-2.6-1.1-2.6-2.6C144.8,45.1,146,44,147.4,44"/>
	<path class="st0" d="M147.4,33c1.4,0,2.6,1.1,2.6,2.6c0,1.4-1.1,2.6-2.6,2.6c-1.4,0-2.6-1.1-2.6-2.6C144.8,34.1,146,33,147.4,33"/>
	<path class="st0" d="M147.4,22c1.4,0,2.6,1.1,2.6,2.6c0,1.4-1.1,2.6-2.6,2.6c-1.4,0-2.6-1.1-2.6-2.6C144.8,23.1,146,22,147.4,22"/>
	<path class="st0" d="M158.5,242c1.4,0,2.6,1.1,2.6,2.6c0,1.4-1.1,2.6-2.6,2.6c-1.4,0-2.6-1.1-2.6-2.6
		C156,243.1,157.1,242,158.5,242"/>
	<path class="st0" d="M158.5,231c1.4,0,2.6,1.1,2.6,2.6c0,1.4-1.1,2.6-2.6,2.6c-1.4,0-2.6-1.1-2.6-2.6
		C156,232.1,157.1,231,158.5,231"/>
	<path class="st0" d="M158.5,220c1.4,0,2.6,1.1,2.6,2.6c0,1.4-1.1,2.6-2.6,2.6c-1.4,0-2.6-1.1-2.6-2.6
		C156,221.1,157.1,220,158.5,220"/>
	<path class="st0" d="M158.5,209c1.4,0,2.6,1.1,2.6,2.6c0,1.4-1.1,2.6-2.6,2.6c-1.4,0-2.6-1.1-2.6-2.6
		C156,210.1,157.1,209,158.5,209"/>
	<path class="st0" d="M158.5,198c1.4,0,2.6,1.1,2.6,2.6c0,1.4-1.1,2.6-2.6,2.6c-1.4,0-2.6-1.2-2.6-2.6
		C156,199.1,157.1,198,158.5,198"/>
	<path class="st0" d="M158.5,187c1.4,0,2.6,1.1,2.6,2.6s-1.1,2.6-2.6,2.6c-1.4,0-2.6-1.2-2.6-2.6S157.1,187,158.5,187"/>
	<path class="st0" d="M158.5,176c1.4,0,2.6,1.1,2.6,2.6s-1.1,2.6-2.6,2.6c-1.4,0-2.6-1.2-2.6-2.6S157.1,176,158.5,176"/>
	<path class="st0" d="M158.5,165c1.4,0,2.6,1.1,2.6,2.6s-1.1,2.6-2.6,2.6c-1.4,0-2.6-1.2-2.6-2.6S157.1,165,158.5,165"/>
	<path class="st0" d="M158.5,154c1.4,0,2.6,1.1,2.6,2.6s-1.1,2.6-2.6,2.6c-1.4,0-2.6-1.2-2.6-2.6S157.1,154,158.5,154"/>
	<path class="st0" d="M158.5,143c1.4,0,2.6,1.1,2.6,2.6c0,1.4-1.1,2.6-2.6,2.6c-1.4,0-2.6-1.1-2.6-2.6
		C156,144.1,157.1,143,158.5,143"/>
	<path class="st0" d="M158.5,132c1.4,0,2.6,1.1,2.6,2.6c0,1.4-1.1,2.6-2.6,2.6c-1.4,0-2.6-1.1-2.6-2.6
		C156,133.1,157.1,132,158.5,132"/>
	<path class="st0" d="M158.5,121c1.4,0,2.6,1.1,2.6,2.6c0,1.4-1.1,2.6-2.6,2.6c-1.4,0-2.6-1.1-2.6-2.6
		C156,122.1,157.1,121,158.5,121"/>
	<path class="st0" d="M158.5,110c1.4,0,2.6,1.1,2.6,2.6c0,1.4-1.1,2.6-2.6,2.6c-1.4,0-2.6-1.1-2.6-2.6
		C156,111.1,157.1,110,158.5,110"/>
	<path class="st0" d="M158.5,99c1.4,0,2.6,1.1,2.6,2.6s-1.1,2.6-2.6,2.6c-1.4,0-2.6-1.2-2.6-2.6S157.1,99,158.5,99"/>
	<path class="st0" d="M158.5,88c1.4,0,2.6,1.1,2.6,2.6s-1.1,2.6-2.6,2.6c-1.4,0-2.6-1.2-2.6-2.6S157.1,88,158.5,88"/>
	<path class="st0" d="M158.5,77c1.4,0,2.6,1.1,2.6,2.6s-1.1,2.6-2.6,2.6c-1.4,0-2.6-1.2-2.6-2.6S157.1,77,158.5,77"/>
	<path class="st0" d="M158.5,66c1.4,0,2.6,1.1,2.6,2.6s-1.1,2.6-2.6,2.6c-1.4,0-2.6-1.2-2.6-2.6S157.1,66,158.5,66"/>
	<path class="st0" d="M158.5,55c1.4,0,2.6,1.1,2.6,2.6c0,1.4-1.1,2.6-2.6,2.6c-1.4,0-2.6-1.1-2.6-2.6C156,56.1,157.1,55,158.5,55"/>
	<path class="st0" d="M158.5,44c1.4,0,2.6,1.1,2.6,2.6c0,1.4-1.1,2.6-2.6,2.6c-1.4,0-2.6-1.1-2.6-2.6C156,45.1,157.1,44,158.5,44"/>
	<path class="st0" d="M158.5,33c1.4,0,2.6,1.1,2.6,2.6c0,1.4-1.1,2.6-2.6,2.6c-1.4,0-2.6-1.1-2.6-2.6C156,34.1,157.1,33,158.5,33"/>
	<path class="st0" d="M169.7,242c1.4,0,2.6,1.1,2.6,2.6c0,1.4-1.1,2.6-2.6,2.6c-1.4,0-2.6-1.1-2.6-2.6
		C167.1,243.1,168.3,242,169.7,242"/>
	<path class="st0" d="M169.7,231c1.4,0,2.6,1.1,2.6,2.6c0,1.4-1.1,2.6-2.6,2.6c-1.4,0-2.6-1.1-2.6-2.6
		C167.1,232.1,168.3,231,169.7,231"/>
	<path class="st0" d="M169.7,220c1.4,0,2.6,1.1,2.6,2.6c0,1.4-1.1,2.6-2.6,2.6c-1.4,0-2.6-1.1-2.6-2.6
		C167.1,221.1,168.3,220,169.7,220"/>
	<path class="st0" d="M169.7,209c1.4,0,2.6,1.1,2.6,2.6c0,1.4-1.1,2.6-2.6,2.6c-1.4,0-2.6-1.1-2.6-2.6
		C167.1,210.1,168.3,209,169.7,209"/>
	<path class="st0" d="M169.7,198c1.4,0,2.6,1.1,2.6,2.6c0,1.4-1.1,2.6-2.6,2.6c-1.4,0-2.6-1.2-2.6-2.6
		C167.1,199.1,168.3,198,169.7,198"/>
	<path class="st0" d="M169.7,187c1.4,0,2.6,1.1,2.6,2.6s-1.1,2.6-2.6,2.6c-1.4,0-2.6-1.2-2.6-2.6S168.3,187,169.7,187"/>
	<path class="st0" d="M169.7,176c1.4,0,2.6,1.1,2.6,2.6s-1.1,2.6-2.6,2.6c-1.4,0-2.6-1.2-2.6-2.6S168.3,176,169.7,176"/>
	<path class="st0" d="M169.7,165c1.4,0,2.6,1.1,2.6,2.6s-1.1,2.6-2.6,2.6c-1.4,0-2.6-1.2-2.6-2.6S168.3,165,169.7,165"/>
	<path class="st0" d="M169.7,154c1.4,0,2.6,1.1,2.6,2.6s-1.1,2.6-2.6,2.6c-1.4,0-2.6-1.2-2.6-2.6S168.3,154,169.7,154"/>
	<path class="st0" d="M169.7,143c1.4,0,2.6,1.1,2.6,2.6c0,1.4-1.1,2.6-2.6,2.6c-1.4,0-2.6-1.1-2.6-2.6
		C167.1,144.1,168.3,143,169.7,143"/>
	<path class="st0" d="M169.7,132c1.4,0,2.6,1.1,2.6,2.6c0,1.4-1.1,2.6-2.6,2.6c-1.4,0-2.6-1.1-2.6-2.6
		C167.1,133.1,168.3,132,169.7,132"/>
	<path class="st0" d="M169.7,121c1.4,0,2.6,1.1,2.6,2.6c0,1.4-1.1,2.6-2.6,2.6c-1.4,0-2.6-1.1-2.6-2.6
		C167.1,122.1,168.3,121,169.7,121"/>
	<path class="st0" d="M169.7,110c1.4,0,2.6,1.1,2.6,2.6c0,1.4-1.1,2.6-2.6,2.6c-1.4,0-2.6-1.1-2.6-2.6
		C167.1,111.1,168.3,110,169.7,110"/>
	<path class="st0" d="M169.7,99c1.4,0,2.6,1.1,2.6,2.6s-1.1,2.6-2.6,2.6c-1.4,0-2.6-1.2-2.6-2.6S168.3,99,169.7,99"/>
	<path class="st0" d="M169.7,88c1.4,0,2.6,1.1,2.6,2.6s-1.1,2.6-2.6,2.6c-1.4,0-2.6-1.2-2.6-2.6S168.3,88,169.7,88"/>
	<path class="st0" d="M169.7,77c1.4,0,2.6,1.1,2.6,2.6s-1.1,2.6-2.6,2.6c-1.4,0-2.6-1.2-2.6-2.6S168.3,77,169.7,77"/>
	<path class="st0" d="M169.7,66c1.4,0,2.6,1.1,2.6,2.6s-1.1,2.6-2.6,2.6c-1.4,0-2.6-1.2-2.6-2.6S168.3,66,169.7,66"/>
	<path class="st0" d="M169.7,55c1.4,0,2.6,1.1,2.6,2.6c0,1.4-1.1,2.6-2.6,2.6c-1.4,0-2.6-1.1-2.6-2.6C167.1,56.1,168.3,55,169.7,55"
		/>
	<path class="st0" d="M169.7,44c1.4,0,2.6,1.1,2.6,2.6c0,1.4-1.1,2.6-2.6,2.6c-1.4,0-2.6-1.1-2.6-2.6C167.1,45.1,168.3,44,169.7,44"
		/>
	<path class="st0" d="M169.7,33c1.4,0,2.6,1.1,2.6,2.6c0,1.4-1.1,2.6-2.6,2.6c-1.4,0-2.6-1.1-2.6-2.6C167.1,34.1,168.3,33,169.7,33"
		/>
	<path class="st0" d="M180.8,231c1.4,0,2.6,1.1,2.6,2.6c0,1.4-1.1,2.6-2.6,2.6c-1.4,0-2.6-1.1-2.6-2.6
		C178.3,232.1,179.4,231,180.8,231"/>
	<path class="st0" d="M180.8,220c1.4,0,2.6,1.1,2.6,2.6c0,1.4-1.1,2.6-2.6,2.6c-1.4,0-2.6-1.1-2.6-2.6
		C178.3,221.1,179.4,220,180.8,220"/>
	<path class="st0" d="M180.8,209c1.4,0,2.6,1.1,2.6,2.6c0,1.4-1.1,2.6-2.6,2.6c-1.4,0-2.6-1.1-2.6-2.6
		C178.3,210.1,179.4,209,180.8,209"/>
	<path class="st0" d="M180.8,198c1.4,0,2.6,1.1,2.6,2.6c0,1.4-1.1,2.6-2.6,2.6c-1.4,0-2.6-1.2-2.6-2.6
		C178.3,199.1,179.4,198,180.8,198"/>
	<path class="st0" d="M180.8,187c1.4,0,2.6,1.1,2.6,2.6s-1.1,2.6-2.6,2.6c-1.4,0-2.6-1.2-2.6-2.6S179.4,187,180.8,187"/>
	<path class="st0" d="M180.8,176c1.4,0,2.6,1.1,2.6,2.6s-1.1,2.6-2.6,2.6c-1.4,0-2.6-1.2-2.6-2.6S179.4,176,180.8,176"/>
	<path class="st0" d="M180.8,165c1.4,0,2.6,1.1,2.6,2.6s-1.1,2.6-2.6,2.6c-1.4,0-2.6-1.2-2.6-2.6S179.4,165,180.8,165"/>
	<path class="st0" d="M180.8,154c1.4,0,2.6,1.1,2.6,2.6s-1.1,2.6-2.6,2.6c-1.4,0-2.6-1.2-2.6-2.6S179.4,154,180.8,154"/>
	<path class="st0" d="M180.8,143c1.4,0,2.6,1.1,2.6,2.6c0,1.4-1.1,2.6-2.6,2.6c-1.4,0-2.6-1.1-2.6-2.6
		C178.3,144.1,179.4,143,180.8,143"/>
	<path class="st0" d="M180.8,132c1.4,0,2.6,1.1,2.6,2.6c0,1.4-1.1,2.6-2.6,2.6c-1.4,0-2.6-1.1-2.6-2.6
		C178.3,133.1,179.4,132,180.8,132"/>
	<path class="st0" d="M180.8,121c1.4,0,2.6,1.1,2.6,2.6c0,1.4-1.1,2.6-2.6,2.6c-1.4,0-2.6-1.1-2.6-2.6
		C178.3,122.1,179.4,121,180.8,121"/>
	<path class="st0" d="M180.8,110c1.4,0,2.6,1.1,2.6,2.6c0,1.4-1.1,2.6-2.6,2.6c-1.4,0-2.6-1.1-2.6-2.6
		C178.3,111.1,179.4,110,180.8,110"/>
	<path class="st0" d="M180.8,99c1.4,0,2.6,1.1,2.6,2.6s-1.1,2.6-2.6,2.6c-1.4,0-2.6-1.2-2.6-2.6S179.4,99,180.8,99"/>
	<path class="st0" d="M180.8,88c1.4,0,2.6,1.1,2.6,2.6s-1.1,2.6-2.6,2.6c-1.4,0-2.6-1.2-2.6-2.6S179.4,88,180.8,88"/>
	<path class="st0" d="M180.8,77c1.4,0,2.6,1.1,2.6,2.6s-1.1,2.6-2.6,2.6c-1.4,0-2.6-1.2-2.6-2.6S179.4,77,180.8,77"/>
	<path class="st0" d="M180.8,66c1.4,0,2.6,1.1,2.6,2.6s-1.1,2.6-2.6,2.6c-1.4,0-2.6-1.2-2.6-2.6S179.4,66,180.8,66"/>
	<path class="st0" d="M180.8,55c1.4,0,2.6,1.1,2.6,2.6c0,1.4-1.1,2.6-2.6,2.6c-1.4,0-2.6-1.1-2.6-2.6C178.3,56.1,179.4,55,180.8,55"
		/>
	<path class="st0" d="M180.8,44c1.4,0,2.6,1.1,2.6,2.6c0,1.4-1.1,2.6-2.6,2.6c-1.4,0-2.6-1.1-2.6-2.6C178.3,45.1,179.4,44,180.8,44"
		/>
	<path class="st0" d="M192,209c1.4,0,2.6,1.1,2.6,2.6c0,1.4-1.1,2.6-2.6,2.6c-1.4,0-2.6-1.1-2.6-2.6C189.4,210.1,190.6,209,192,209"
		/>
	<path class="st0" d="M192,198c1.4,0,2.6,1.1,2.6,2.6c0,1.4-1.1,2.6-2.6,2.6c-1.4,0-2.6-1.2-2.6-2.6C189.4,199.1,190.6,198,192,198"
		/>
	<path class="st0" d="M192,187c1.4,0,2.6,1.1,2.6,2.6s-1.1,2.6-2.6,2.6c-1.4,0-2.6-1.2-2.6-2.6S190.6,187,192,187"/>
	<path class="st0" d="M192,176c1.4,0,2.6,1.1,2.6,2.6s-1.1,2.6-2.6,2.6c-1.4,0-2.6-1.2-2.6-2.6S190.6,176,192,176"/>
	<path class="st0" d="M192,165c1.4,0,2.6,1.1,2.6,2.6s-1.1,2.6-2.6,2.6c-1.4,0-2.6-1.2-2.6-2.6S190.6,165,192,165"/>
	<path class="st0" d="M192,154c1.4,0,2.6,1.1,2.6,2.6s-1.1,2.6-2.6,2.6c-1.4,0-2.6-1.2-2.6-2.6S190.6,154,192,154"/>
	<path class="st0" d="M192,143c1.4,0,2.6,1.1,2.6,2.6c0,1.4-1.1,2.6-2.6,2.6c-1.4,0-2.6-1.1-2.6-2.6C189.4,144.1,190.6,143,192,143"
		/>
	<path class="st0" d="M192,132c1.4,0,2.6,1.1,2.6,2.6c0,1.4-1.1,2.6-2.6,2.6c-1.4,0-2.6-1.1-2.6-2.6C189.4,133.1,190.6,132,192,132"
		/>
	<path class="st0" d="M192,121c1.4,0,2.6,1.1,2.6,2.6c0,1.4-1.1,2.6-2.6,2.6c-1.4,0-2.6-1.1-2.6-2.6C189.4,122.1,190.6,121,192,121"
		/>
	<path class="st0" d="M192,110c1.4,0,2.6,1.1,2.6,2.6c0,1.4-1.1,2.6-2.6,2.6c-1.4,0-2.6-1.1-2.6-2.6C189.4,111.1,190.6,110,192,110"
		/>
	<path class="st0" d="M192,99c1.4,0,2.6,1.1,2.6,2.6s-1.1,2.6-2.6,2.6c-1.4,0-2.6-1.2-2.6-2.6S190.6,99,192,99"/>
	<path class="st0" d="M192,88c1.4,0,2.6,1.1,2.6,2.6s-1.1,2.6-2.6,2.6c-1.4,0-2.6-1.2-2.6-2.6S190.6,88,192,88"/>
	<path class="st0" d="M192,77c1.4,0,2.6,1.1,2.6,2.6s-1.1,2.6-2.6,2.6c-1.4,0-2.6-1.2-2.6-2.6S190.6,77,192,77"/>
	<path class="st0" d="M192,66c1.4,0,2.6,1.1,2.6,2.6s-1.1,2.6-2.6,2.6c-1.4,0-2.6-1.2-2.6-2.6S190.6,66,192,66"/>
	<path class="st0" d="M203.1,198c1.4,0,2.6,1.1,2.6,2.6c0,1.4-1.1,2.6-2.6,2.6c-1.4,0-2.6-1.2-2.6-2.6
		C200.5,199.1,201.7,198,203.1,198"/>
	<path class="st0" d="M203.1,187c1.4,0,2.6,1.1,2.6,2.6s-1.1,2.6-2.6,2.6c-1.4,0-2.6-1.2-2.6-2.6S201.7,187,203.1,187"/>
	<path class="st0" d="M203.1,176c1.4,0,2.6,1.1,2.6,2.6s-1.1,2.6-2.6,2.6c-1.4,0-2.6-1.2-2.6-2.6S201.7,176,203.1,176"/>
	<path class="st0" d="M203.1,165c1.4,0,2.6,1.1,2.6,2.6s-1.1,2.6-2.6,2.6c-1.4,0-2.6-1.2-2.6-2.6S201.7,165,203.1,165"/>
	<path class="st0" d="M203.1,154c1.4,0,2.6,1.1,2.6,2.6s-1.1,2.6-2.6,2.6c-1.4,0-2.6-1.2-2.6-2.6S201.7,154,203.1,154"/>
	<path class="st0" d="M203.1,143c1.4,0,2.6,1.1,2.6,2.6c0,1.4-1.1,2.6-2.6,2.6c-1.4,0-2.6-1.1-2.6-2.6
		C200.5,144.1,201.7,143,203.1,143"/>
	<path class="st0" d="M203.1,132c1.4,0,2.6,1.1,2.6,2.6c0,1.4-1.1,2.6-2.6,2.6c-1.4,0-2.6-1.1-2.6-2.6
		C200.5,133.1,201.7,132,203.1,132"/>
	<path class="st0" d="M203.1,121c1.4,0,2.6,1.1,2.6,2.6c0,1.4-1.1,2.6-2.6,2.6c-1.4,0-2.6-1.1-2.6-2.6
		C200.5,122.1,201.7,121,203.1,121"/>
	<path class="st0" d="M203.1,110c1.4,0,2.6,1.1,2.6,2.6c0,1.4-1.1,2.6-2.6,2.6c-1.4,0-2.6-1.1-2.6-2.6
		C200.5,111.1,201.7,110,203.1,110"/>
	<path class="st0" d="M203.1,99c1.4,0,2.6,1.1,2.6,2.6s-1.1,2.6-2.6,2.6c-1.4,0-2.6-1.2-2.6-2.6S201.7,99,203.1,99"/>
	<path class="st0" d="M203.1,88c1.4,0,2.6,1.1,2.6,2.6s-1.1,2.6-2.6,2.6c-1.4,0-2.6-1.2-2.6-2.6S201.7,88,203.1,88"/>
	<path class="st0" d="M214.3,165c1.4,0,2.6,1.1,2.6,2.6s-1.1,2.6-2.6,2.6c-1.4,0-2.6-1.2-2.6-2.6S212.8,165,214.3,165"/>
	<path class="st0" d="M214.3,154c1.4,0,2.6,1.1,2.6,2.6s-1.1,2.6-2.6,2.6c-1.4,0-2.6-1.2-2.6-2.6S212.8,154,214.3,154"/>
	<path class="st0" d="M214.3,143c1.4,0,2.6,1.1,2.6,2.6c0,1.4-1.1,2.6-2.6,2.6c-1.4,0-2.6-1.1-2.6-2.6
		C211.7,144.1,212.8,143,214.3,143"/>
	<path class="st0" d="M214.3,132c1.4,0,2.6,1.1,2.6,2.6c0,1.4-1.1,2.6-2.6,2.6c-1.4,0-2.6-1.1-2.6-2.6
		C211.7,133.1,212.8,132,214.3,132"/>
	<path class="st0" d="M214.3,121c1.4,0,2.6,1.1,2.6,2.6c0,1.4-1.1,2.6-2.6,2.6c-1.4,0-2.6-1.1-2.6-2.6
		C211.7,122.1,212.8,121,214.3,121"/>
</g>
</svg>
