<?xml version="1.0" encoding="utf-8"?>
<!-- Generator: Adobe Illustrator 22.0.1, SVG Export Plug-In . SVG Version: 6.00 Build 0)  -->
<svg version="1.1" id="Layer_1" xmlns="http://www.w3.org/2000/svg" xmlns:xlink="http://www.w3.org/1999/xlink" x="0px" y="0px"
	 width="143.8px" height="152.4px" viewBox="0 0 143.8 152.4" style="enable-background:new 0 0 143.8 152.4;" xml:space="preserve"
	>
<style type="text/css">
	.st0{fill:#FFDA30;}
	.st1{fill:none;stroke:#1E1E1E;stroke-width:2;stroke-miterlimit:10;}
</style>
<g>
	<path class="st0" d="M87.3,24.2c0,2-1.6,3.6-3.6,3.6c-2,0-3.6-1.6-3.6-3.6c0-2,1.6-3.6,3.6-3.6C85.7,20.6,87.3,22.2,87.3,24.2"/>
	<path class="st1" d="M87.3,24.2c0,2-1.6,3.6-3.6,3.6c-2,0-3.6-1.6-3.6-3.6c0-2,1.6-3.6,3.6-3.6C85.7,20.6,87.3,22.2,87.3,24.2z"/>
	<path class="st0" d="M10.8,70.7c0,2.7-2.2,4.9-4.9,4.9S1,73.4,1,70.7c0-2.7,2.2-4.9,4.9-4.9S10.8,68,10.8,70.7"/>
	<path class="st1" d="M10.8,70.7c0,2.7-2.2,4.9-4.9,4.9S1,73.4,1,70.7c0-2.7,2.2-4.9,4.9-4.9S10.8,68,10.8,70.7z"/>
	<path class="st0" d="M124.2,55.5c0,2.9-2.4,5.3-5.3,5.3c-2.9,0-5.3-2.4-5.3-5.3c0-2.9,2.4-5.3,5.3-5.3
		C121.8,50.1,124.2,52.5,124.2,55.5"/>
	<path class="st1" d="M124.2,55.5c0,2.9-2.4,5.3-5.3,5.3c-2.9,0-5.3-2.4-5.3-5.3c0-2.9,2.4-5.3,5.3-5.3
		C121.8,50.1,124.2,52.5,124.2,55.5z"/>
	<line class="st1" x1="42.6" y1="9.6" x2="41.2" y2="8.2"/>
	<line class="st1" x1="35.1" y1="2.1" x2="33.7" y2="0.7"/>
	<line class="st1" x1="33.7" y1="9.6" x2="35.1" y2="8.2"/>
	<line class="st1" x1="41.2" y1="2.1" x2="42.6" y2="0.7"/>
	<line class="st1" x1="43.4" y1="106" x2="43.8" y2="105.6"/>
	<line class="st1" x1="38.8" y1="110.6" x2="39.1" y2="110.3"/>
	<line class="st1" x1="43.4" y1="110.3" x2="43.8" y2="110.6"/>
	<line class="st1" x1="38.8" y1="105.6" x2="39.1" y2="106"/>
	<line class="st1" x1="129.4" y1="151.7" x2="128.2" y2="150.5"/>
	<line class="st1" x1="123.1" y1="145.4" x2="121.9" y2="144.2"/>
	<line class="st1" x1="121.9" y1="151.7" x2="123.1" y2="150.5"/>
	<line class="st1" x1="128.2" y1="145.4" x2="129.4" y2="144.2"/>
	<line class="st1" x1="143.1" y1="109.8" x2="142.1" y2="108.8"/>
	<line class="st1" x1="137.8" y1="104.5" x2="136.8" y2="103.5"/>
	<line class="st1" x1="136.8" y1="109.8" x2="137.8" y2="108.8"/>
	<line class="st1" x1="142.1" y1="104.5" x2="143.1" y2="103.5"/>
	<path class="st1" d="M67.9,80.6l4.3,4.3c2.3,2.3,5.7,2.6,7.6,0.6c1.9-1.9,1.6-5.3-0.7-7.6L55.7,54.6"/>
	<path class="st1" d="M53,79.5l8.6,8.6c2.3,2.3,5.7,2.6,7.6,0.6c1.9-1.9,1.6-5.3-0.7-7.6L48.8,61.5"/>
	<path class="st1" d="M8.4,36.6C20.1,48.4,15.2,54.4,31.8,71c0.1,0.1,15.8,15.8,15.8,15.8c2.1,2.1,5.2,2.3,6.9,0.6s1.5-4.8-0.6-6.9
		L41.8,68.4"/>
	<path class="st1" d="M73.6,72.4c2.3,2.3,5.7,2.5,7.6,0.6c1.9-1.9,1.6-5.3-0.7-7.6L57.1,42.1c2.5,1.1,4.5,2,8.8,3.9
		c8.2,3.6,14.7,3.3,15.7,0.4c1.5-4.1-5.8-7-12.3-10.2c-7.4-3.7-8.3-5.8-23-9.3c-7-1.7-13.8,0-21-7.2"/>
	<line class="st1" x1="87.1" y1="86" x2="89.9" y2="88.8"/>
	<line class="st1" x1="79.5" y1="92.2" x2="83" y2="95.7"/>
	<line class="st1" x1="69.4" y1="96" x2="76" y2="102.6"/>
	<path class="st1" d="M107.8,136.1c-11.7-11.7-17.8-6.9-34.4-23.4c-0.1-0.1-18-18-18-18"/>
	<path class="st1" d="M124.8,119.1c-7.2-7.2-5.5-14-7.2-21c-3.5-14.7-5.6-15.6-9.3-23c-3.2-6.5-6.1-13.8-10.2-12.3
		c-3,1.1-3.2,7.5,0.4,15.7c2.4,5.4,3.2,7.3,4.9,10.9c0.6,1.3,0.6,2.9-0.1,4.2c-1.4,2.9-3.2,8.4,0.4,13.5"/>
	<line class="st1" x1="88.7" y1="73.7" x2="102.3" y2="87.4"/>
</g>
</svg>
