<?xml version="1.0" encoding="utf-8"?>
<!-- Generator: Adobe Illustrator 22.0.1, SVG Export Plug-In . SVG Version: 6.00 Build 0)  -->
<svg version="1.1" id="Layer_1" xmlns="http://www.w3.org/2000/svg" xmlns:xlink="http://www.w3.org/1999/xlink" x="0px" y="0px"
	 width="147.5px" height="144.5px" viewBox="0 0 147.5 144.5" style="enable-background:new 0 0 147.5 144.5;" xml:space="preserve"
	>
<style type="text/css">
	.st0{fill:#FFDA30;}
	.st1{fill:none;stroke:#1E1E1E;stroke-width:2;stroke-miterlimit:10;}
	.st2{fill:none;stroke:#1E1E1E;stroke-width:2;stroke-linecap:round;stroke-linejoin:round;stroke-miterlimit:10;}
</style>
<g>
	<path class="st0" d="M51.2,5.8c0,2.1-1.7,3.8-3.8,3.8c-2.1,0-3.8-1.7-3.8-3.8c0-2.1,1.7-3.8,3.8-3.8C49.5,2,51.2,3.7,51.2,5.8"/>
	<path class="st1" d="M51.2,5.8c0,2.1-1.7,3.8-3.8,3.8c-2.1,0-3.8-1.7-3.8-3.8c0-2.1,1.7-3.8,3.8-3.8C49.5,2,51.2,3.7,51.2,5.8z"/>
	<path class="st0" d="M14.9,135.4c0,2.1-1.7,3.8-3.8,3.8c-2.1,0-3.8-1.7-3.8-3.8c0-2.1,1.7-3.8,3.8-3.8
		C13.2,131.6,14.9,133.3,14.9,135.4"/>
	<path class="st1" d="M14.9,135.4c0,2.1-1.7,3.8-3.8,3.8c-2.1,0-3.8-1.7-3.8-3.8c0-2.1,1.7-3.8,3.8-3.8
		C13.2,131.6,14.9,133.3,14.9,135.4z"/>
	<path class="st0" d="M99.4,5.8c0,2.7-2.2,4.8-4.8,4.8c-2.7,0-4.8-2.2-4.8-4.8c0-2.7,2.2-4.8,4.8-4.8C97.2,1,99.4,3.2,99.4,5.8"/>
	<path class="st1" d="M99.4,5.8c0,2.7-2.2,4.8-4.8,4.8c-2.7,0-4.8-2.2-4.8-4.8c0-2.7,2.2-4.8,4.8-4.8C97.2,1,99.4,3.2,99.4,5.8z"/>
	<line class="st1" x1="9.4" y1="36.7" x2="8" y2="35.4"/>
	<line class="st1" x1="2.1" y1="29.4" x2="0.7" y2="28.1"/>
	<line class="st1" x1="0.7" y1="36.7" x2="2.1" y2="35.4"/>
	<line class="st1" x1="8" y1="29.4" x2="9.4" y2="28.1"/>
	<line class="st1" x1="68" y1="139.3" x2="68.3" y2="139"/>
	<line class="st1" x1="63.5" y1="143.8" x2="63.8" y2="143.5"/>
	<line class="st1" x1="68" y1="143.5" x2="68.3" y2="143.8"/>
	<line class="st1" x1="63.5" y1="139" x2="63.8" y2="139.3"/>
	<line class="st1" x1="146.8" y1="95.1" x2="145.7" y2="94"/>
	<line class="st1" x1="140.7" y1="89" x2="139.5" y2="87.8"/>
	<line class="st1" x1="139.5" y1="95.1" x2="140.7" y2="94"/>
	<line class="st1" x1="145.7" y1="89" x2="146.8" y2="87.8"/>
	<line class="st1" x1="135.7" y1="41.9" x2="134.7" y2="40.9"/>
	<line class="st1" x1="130.5" y1="36.7" x2="129.5" y2="35.7"/>
	<line class="st1" x1="129.5" y1="41.9" x2="130.5" y2="40.9"/>
	<line class="st1" x1="134.7" y1="36.7" x2="135.7" y2="35.7"/>
	<path class="st2" d="M34.1,44.3c-6.3,0-11.5-5.1-11.5-11.5c0-6.3,5.1-11.5,11.5-11.5c6.3,0,11.5,5.1,11.5,11.5
		C45.6,39.2,40.5,44.3,34.1,44.3z"/>
	<path class="st1" d="M20.8,62.2v23.7v0v24.7v5.5c0,3,2,5.5,4.9,5.5c3,0,5.4-2.5,5.4-5.5v-5.6v-7.1v-12c0-1.6,1.3-3,3-3s3,1.3,3,3
		l0,12v7.1v5.6c0,3,2.4,5.5,5.4,5.5c3,0,4.9-2.5,4.9-5.5v-5.5V85.9v0V62.2"/>
	<path class="st2" d="M67.8,44.3c-6.3,0-11.5-5.1-11.5-11.5c0-6.3,5.1-11.5,11.5-11.5c6.3,0,11.5,5.1,11.5,11.5
		C79.3,39.2,74.1,44.3,67.8,44.3z"/>
	<path class="st1" d="M54.5,62.2v23.7c0,0,0,0,0,0v24.7v5.5c0,3,2,5.5,4.9,5.5c3,0,5.4-2.5,5.4-5.5v-5.6v-7.1v-12c0-1.6,1.3-3,3-3
		s3,1.3,3,3v12v7.1v5.6c0,3,2.4,5.5,5.4,5.5c3,0,4.9-2.5,4.9-5.5v-5.5V85.9v0V62.2"/>
	<path class="st2" d="M101.2,44.3c-6.3,0-11.5-5.1-11.5-11.5c0-6.3,5.1-11.5,11.5-11.5c6.3,0,11.5,5.1,11.5,11.5
		C112.7,39.2,107.5,44.3,101.2,44.3z"/>
	<path class="st1" d="M87.9,62.2v23.7v0v24.7v5.5c0,3,2,5.5,4.9,5.5c3,0,5.4-2.5,5.4-5.5v-5.6v-7.1v-12c0-1.6,1.3-3,3-3s3,1.3,3,3
		v12v7.1v5.6c0,3,2.4,5.5,5.4,5.5c3,0,4.9-2.5,4.9-5.5v-5.5V85.9v0V62.2"/>
	<path class="st1" d="M20.7,82.1c0,2.8-2.2,5.1-5,5.1c-2.8,0-4.6-2.3-4.6-5.1V80v-4.3v-14c0-6.5,5.2-11.7,11.7-11.7H26h19.4h44.5
		h19.4h3.2c6.5,0,11.7,5.2,11.7,11.7v14V80v2.2c0,2.8-1.8,5.1-4.6,5.1c-2.8,0-5-2.3-5-5.1"/>
</g>
</svg>
