<?xml version="1.0" encoding="utf-8"?>
<!-- Generator: Adobe Illustrator 22.0.1, SVG Export Plug-In . SVG Version: 6.00 Build 0)  -->
<svg version="1.1" id="Layer_1" xmlns="http://www.w3.org/2000/svg" xmlns:xlink="http://www.w3.org/1999/xlink" x="0px" y="0px"
	 width="186.2px" height="124.6px" viewBox="0 0 186.2 124.6" style="enable-background:new 0 0 186.2 124.6;" xml:space="preserve"
	>
<style type="text/css">
	.st0{fill:#FFDA30;}
	.st1{fill:none;stroke:#1E1E1E;stroke-width:2;stroke-miterlimit:10;}
</style>
<g>
	<path class="st0" d="M109.8,5.3c0,2.4-1.9,4.3-4.3,4.3c-2.4,0-4.3-1.9-4.3-4.3c0-2.4,1.9-4.3,4.3-4.3C107.9,1,109.8,2.9,109.8,5.3"
		/>
	<path class="st1" d="M109.8,5.3c0,2.4-1.9,4.3-4.3,4.3c-2.4,0-4.3-1.9-4.3-4.3c0-2.4,1.9-4.3,4.3-4.3C107.9,1,109.8,2.9,109.8,5.3z
		"/>
	<path class="st0" d="M9.5,88.6c0,2.4-1.9,4.3-4.3,4.3C2.9,92.9,1,91,1,88.6c0-2.4,1.9-4.3,4.3-4.3C7.6,84.3,9.5,86.2,9.5,88.6"/>
	<path class="st1" d="M9.5,88.6c0,2.4-1.9,4.3-4.3,4.3C2.9,92.9,1,91,1,88.6c0-2.4,1.9-4.3,4.3-4.3C7.6,84.3,9.5,86.2,9.5,88.6z"/>
	<path class="st0" d="M168.5,9.2c0,3-2.4,5.5-5.5,5.5c-3,0-5.5-2.4-5.5-5.5c0-3,2.4-5.5,5.5-5.5C166.1,3.7,168.5,6.2,168.5,9.2"/>
	<path class="st1" d="M168.5,9.2c0,3-2.4,5.5-5.5,5.5c-3,0-5.5-2.4-5.5-5.5c0-3,2.4-5.5,5.5-5.5C166.1,3.7,168.5,6.2,168.5,9.2z"/>
	<line class="st1" x1="57.7" y1="12" x2="56" y2="10.4"/>
	<line class="st1" x1="48.6" y1="3" x2="47" y2="1.3"/>
	<line class="st1" x1="47" y1="12" x2="48.6" y2="10.4"/>
	<line class="st1" x1="56" y1="3" x2="57.7" y2="1.3"/>
	<line class="st1" x1="46.1" y1="118.3" x2="46.5" y2="118"/>
	<line class="st1" x1="40.6" y1="123.9" x2="40.9" y2="123.5"/>
	<line class="st1" x1="46.1" y1="123.5" x2="46.5" y2="123.9"/>
	<line class="st1" x1="40.6" y1="118" x2="40.9" y2="118.3"/>
	<line class="st1" x1="152.1" y1="107.9" x2="150.6" y2="106.5"/>
	<line class="st1" x1="144.4" y1="100.3" x2="143" y2="98.9"/>
	<line class="st1" x1="143" y1="107.9" x2="144.4" y2="106.5"/>
	<line class="st1" x1="150.6" y1="100.3" x2="152.1" y2="98.9"/>
	<line class="st1" x1="185.5" y1="69.6" x2="184.3" y2="68.4"/>
	<line class="st1" x1="179.1" y1="63.2" x2="177.9" y2="62"/>
	<line class="st1" x1="177.9" y1="69.6" x2="179.1" y2="68.4"/>
	<line class="st1" x1="184.3" y1="63.2" x2="185.5" y2="62"/>
	<path class="st1" d="M140.7,24.8l-10.2,3.1c-2.1,0.7-3.3,2.9-2.7,5l11.4,42.5c0.6,2.3,3,3.6,5.3,2.9l10.3-3
		c2.1-0.7,3.4-2.9,2.8-5.1L146,27.7C145.4,25.4,143,24.1,140.7,24.8z"/>
	<path class="st1" d="M139,74.9c-1.2,0.5-2.5,0.9-3.7,1.2c-1.6,0.4-3.4-0.2-4.4-1.5c-1.5-1.9-4.1-5.2-7.2-8.9
		C106.3,44.4,95.5,39.4,82,41.4c-5.9,0.9-8.3,2.9-13.7,5c-5.3,2.1-14.5,2-14.8-4c-0.2-3.9,7.3-7.4,15.8-12.8
		c12.7-8.2,20-6.4,31.3-2.9c12.6,3.9,21.4,6.8,27.6,7.7"/>
	<path class="st1" d="M83.8,107c12.4,5.8,15.9-1.9,15.9-1.9s8.6-0.5,10.1-8.7c5.3,0.5,11.7-3.3,11.4-9.2c7.4,0.1,14.2-7.8,8.1-14.7"
		/>
	<path class="st1" d="M36.9,75.2c0,0,3.3,2.6,6.8,4.8"/>
	<path class="st1" d="M59.2,35.9c-6.1-1-11.3-2.1-11.3-2.1"/>
	<path class="st1" d="M69,106.3c-0.4-0.5-0.9-0.8-1.6-0.8c-1.5,0-4.3-0.4-5.9-2.1c-0.9-0.9-1.6-1.9-2-3c-0.4-1.1-1.6-1.6-2.7-1.3
		c-3.7,1-7.7-2.4-7.9-6.4c-0.1-0.9-0.8-1.7-1.7-1.8c-5.5-0.4-8.5-6.7-5.1-10.1c2.1-2,7.7-1.3,9.3,2.7c0.3,0.8,1.3,1.2,2.1,0.7
		c3.3-1.8,7.1,0.2,8.3,3.8c0.3,0.8,1,1.2,1.9,1.1c5.5-0.6,7.9,2.7,8.4,7.2c0.1,1.1,1.1,2,2.1,1.9c3.6-0.1,6,1.7,6.3,3.8
		c0.7,3.7,3.1,5,3.1,5C84.5,109.2,73.1,112.1,69,106.3z"/>
	<path class="st1" d="M35.2,24.8l10.2,3.1c2.1,0.7,3.3,2.9,2.7,5L36.8,75.4c-0.6,2.3-3,3.6-5.3,2.9l-10.3-3
		c-2.1-0.7-3.4-2.9-2.8-5.1l11.5-42.5C30.5,25.4,32.9,24.1,35.2,24.8z"/>
	<line class="st1" x1="121.3" y1="87.3" x2="110.6" y2="75.2"/>
	<line class="st1" x1="109.8" y1="96.5" x2="101.3" y2="86.8"/>
	<line class="st1" x1="99.7" y1="105.1" x2="93.3" y2="97.5"/>
</g>
</svg>
