<?xml version="1.0" encoding="utf-8"?>
<!-- Generator: Adobe Illustrator 22.0.1, SVG Export Plug-In . SVG Version: 6.00 Build 0)  -->
<svg version="1.1" id="Layer_1" xmlns="http://www.w3.org/2000/svg" xmlns:xlink="http://www.w3.org/1999/xlink" x="0px" y="0px"
	 width="169.7px" height="169.7px" viewBox="0 0 169.7 169.7" style="enable-background:new 0 0 169.7 169.7;" xml:space="preserve"
	>
<style type="text/css">
	.st0{fill:#FFDA30;}
</style>
<g>
	<path class="st0" d="M156,91.8c0,43.1-34.9,78-78,78s-78-34.9-78-78c0-43.1,34.9-78,78-78S156,48.7,156,91.8"/>
	<path d="M83.9,158.4c-4.4-0.4-8.7-1.1-12.9-2.1l0.8-3.1c4,1,8.2,1.7,12.4,2L83.9,158.4z M97,158.4l-0.3-3.1c4.2-0.3,8.4-1,12.4-2.1
		l0.8,3C105.7,157.3,101.4,158,97,158.4 M58.6,152c-4-1.8-7.9-3.8-11.5-6.2l1.7-2.6c3.5,2.3,7.2,4.3,11.1,6L58.6,152z M122.3,152
		l-1.3-2.9c3.8-1.7,7.5-3.7,11-6l1.7,2.6C130.2,148.1,126.3,150.2,122.3,152 M36.7,137.7c-3.2-3-6.2-6.2-8.9-9.6l2.5-1.9
		c2.6,3.3,5.4,6.4,8.5,9.2L36.7,137.7z M144.1,137.7l-2.1-2.3c3.1-2.8,5.9-6,8.5-9.3l2.5,1.9C150.3,131.5,147.4,134.7,144.1,137.7
		 M20.7,117.1c-2.1-3.8-3.9-7.9-5.3-12l3-1c1.4,4,3.1,7.8,5.1,11.5L20.7,117.1z M160.2,117.1l-2.8-1.5c2-3.7,3.7-7.6,5.1-11.5l3,1
		C164,109.2,162.3,113.2,160.2,117.1 M12.2,92.5c-0.7-4.3-1.1-8.7-1.1-13l3.1,0c0,4.2,0.4,8.4,1,12.5L12.2,92.5z M168.7,92.4
		l-3.1-0.5c0.7-4.1,1-8.3,1-12.5v-0.2h3.1v0.2C169.7,83.7,169.4,88.1,168.7,92.4 M15.2,66.9l-3.1-0.5c0.7-4.3,1.8-8.6,3.2-12.7l3,1
		C17,58.6,15.9,62.7,15.2,66.9 M165.5,66.6c-0.7-4.1-1.7-8.2-3.1-12.2l3-1c1.4,4.1,2.5,8.4,3.2,12.7L165.5,66.6z M23.4,43.1
		l-2.8-1.5c2.1-3.8,4.5-7.5,7.2-11l2.5,1.9C27.7,35.9,25.3,39.5,23.4,43.1 M157.3,42.9c-2-3.7-4.3-7.2-6.9-10.5l2.5-1.9
		c2.7,3.4,5.1,7.1,7.2,10.9L157.3,42.9z M38.7,23.3L36.6,21c3.2-3,6.7-5.7,10.3-8.1l1.7,2.6C45.2,17.9,41.8,20.5,38.7,23.3
		 M141.9,23.2c-3.1-2.8-6.4-5.4-9.9-7.7l1.7-2.6c3.6,2.4,7.1,5.1,10.3,8L141.9,23.2z M59.7,9.6l-1.3-2.9c4-1.8,8.2-3.2,12.4-4.3
		l0.8,3C67.5,6.5,63.5,7.9,59.7,9.6 M120.9,9.5c-3.8-1.7-7.8-3-11.9-4.1l0.8-3.1c4.2,1.1,8.4,2.5,12.4,4.2L120.9,9.5z M84,3.4
		l-0.3-3.1c4.3-0.4,8.8-0.4,13.1,0l-0.3,3.1C92.4,3.1,88.1,3.1,84,3.4"/>
</g>
</svg>
