<?xml version="1.0" encoding="utf-8"?>
<!-- Generator: Adobe Illustrator 22.0.1, SVG Export Plug-In . SVG Version: 6.00 Build 0)  -->
<svg version="1.1" id="Layer_1" xmlns="http://www.w3.org/2000/svg" xmlns:xlink="http://www.w3.org/1999/xlink" x="0px" y="0px"
	 width="160.5px" height="13.9px" viewBox="0 0 160.5 13.9" style="enable-background:new 0 0 160.5 13.9;" xml:space="preserve">
<style type="text/css">
	.st0{fill:#FFDA30;}
</style>
<g>
	<path class="st0" d="M159.3,13.9c-0.2,0-0.5-0.1-0.7-0.2l-1-0.7c-0.5-0.4-0.7-1.1-0.3-1.7c0.4-0.5,1.1-0.7,1.7-0.3l1,0.7
		c0.5,0.4,0.7,1.1,0.3,1.7C160.1,13.8,159.7,13.9,159.3,13.9"/>
	<path class="st0" d="M154.8,10.7c-0.2,0-0.5-0.1-0.7-0.2l-1.8-1.3c-0.5-0.4-0.7-1.1-0.3-1.7s1.1-0.7,1.7-0.3l1.8,1.3
		c0.5,0.4,0.7,1.1,0.3,1.7C155.5,10.5,155.2,10.7,154.8,10.7 M149.4,6.9c-0.2,0-0.5-0.1-0.7-0.2l-1.8-1.3c-0.5-0.4-0.7-1.1-0.3-1.7
		c0.4-0.5,1.1-0.7,1.7-0.3l1.8,1.3c0.5,0.4,0.7,1.1,0.3,1.7C150.2,6.7,149.8,6.9,149.4,6.9"/>
	<path class="st0" d="M144.1,3.1c-0.2,0-0.5-0.1-0.7-0.2l-0.3-0.2l-0.3,0.2c-0.5,0.4-1.3,0.3-1.7-0.3s-0.3-1.3,0.3-1.7l1-0.7
		c0.4-0.3,1-0.3,1.4,0l1,0.7c0.5,0.4,0.7,1.1,0.3,1.7C144.8,2.9,144.4,3.1,144.1,3.1"/>
	<path class="st0" d="M131.4,10.7c-0.4,0-0.7-0.2-1-0.5c-0.4-0.5-0.3-1.3,0.3-1.7l1.8-1.3c0.5-0.4,1.3-0.3,1.7,0.3
		c0.4,0.5,0.3,1.3-0.3,1.7l-1.8,1.3C131.8,10.6,131.6,10.7,131.4,10.7 M136.7,6.9c-0.4,0-0.7-0.2-1-0.5c-0.4-0.5-0.3-1.3,0.3-1.7
		l1.8-1.3c0.5-0.4,1.3-0.3,1.7,0.3c0.4,0.5,0.3,1.3-0.3,1.7l-1.8,1.3C137.2,6.8,137,6.9,136.7,6.9"/>
	<path class="st0" d="M126.8,13.9c-0.2,0-0.5-0.1-0.7-0.2l-1-0.7c-0.5-0.4-0.7-1.1-0.3-1.7c0.4-0.5,1.1-0.7,1.7-0.3l0.3,0.2l0.3-0.2
		c0.5-0.4,1.3-0.3,1.7,0.3c0.4,0.5,0.3,1.3-0.3,1.7l-1,0.7C127.3,13.9,127,13.9,126.8,13.9"/>
	<path class="st0" d="M122.2,10.7c-0.2,0-0.5-0.1-0.7-0.2l-1.8-1.3c-0.5-0.4-0.7-1.1-0.3-1.7c0.4-0.5,1.1-0.7,1.7-0.3l1.8,1.3
		c0.5,0.4,0.7,1.1,0.3,1.7C123,10.5,122.6,10.7,122.2,10.7 M116.9,6.9c-0.2,0-0.5-0.1-0.7-0.2l-1.8-1.3c-0.5-0.4-0.7-1.1-0.3-1.7
		c0.4-0.5,1.1-0.7,1.7-0.3l1.8,1.3c0.5,0.4,0.7,1.1,0.3,1.7C117.6,6.7,117.3,6.9,116.9,6.9"/>
	<path class="st0" d="M111.5,3.1c-0.2,0-0.5-0.1-0.7-0.2l-0.3-0.2l-0.3,0.2c-0.5,0.4-1.3,0.3-1.7-0.3c-0.4-0.5-0.3-1.3,0.3-1.7
		l1-0.7c0.4-0.3,1-0.3,1.4,0l1,0.7c0.5,0.4,0.7,1.1,0.3,1.7C112.3,2.9,111.9,3.1,111.5,3.1"/>
	<path class="st0" d="M98.8,10.7c-0.4,0-0.7-0.2-1-0.5c-0.4-0.5-0.3-1.3,0.3-1.7l1.8-1.3c0.5-0.4,1.3-0.3,1.7,0.3
		c0.4,0.5,0.3,1.3-0.3,1.7l-1.8,1.3C99.3,10.6,99.1,10.7,98.8,10.7 M104.2,6.9c-0.4,0-0.7-0.2-1-0.5c-0.4-0.5-0.3-1.3,0.3-1.7
		l1.8-1.3c0.5-0.4,1.3-0.3,1.7,0.3c0.4,0.5,0.3,1.3-0.3,1.7l-1.8,1.3C104.7,6.8,104.4,6.9,104.2,6.9"/>
	<path class="st0" d="M94.3,13.9c-0.2,0-0.5-0.1-0.7-0.2l-1-0.7c-0.5-0.4-0.7-1.1-0.3-1.7c0.4-0.5,1.1-0.7,1.7-0.3l0.3,0.2l0.3-0.2
		c0.5-0.4,1.3-0.3,1.7,0.3c0.4,0.5,0.3,1.3-0.3,1.7l-1,0.7C94.7,13.9,94.5,13.9,94.3,13.9"/>
	<path class="st0" d="M89.7,10.7c-0.2,0-0.5-0.1-0.7-0.2l-1.8-1.3c-0.5-0.4-0.7-1.1-0.3-1.7c0.4-0.5,1.1-0.7,1.7-0.3l1.8,1.3
		c0.5,0.4,0.7,1.1,0.3,1.7C90.5,10.5,90.1,10.7,89.7,10.7 M84.3,6.9c-0.2,0-0.5-0.1-0.7-0.2l-1.8-1.3c-0.5-0.4-0.7-1.1-0.3-1.7
		c0.4-0.5,1.1-0.7,1.7-0.3L85,4.7c0.5,0.4,0.7,1.1,0.3,1.7C85.1,6.7,84.7,6.9,84.3,6.9"/>
	<path class="st0" d="M79,3.1c-0.2,0-0.5-0.1-0.7-0.2L78,2.7l-0.3,0.2c-0.5,0.4-1.3,0.3-1.7-0.3c-0.4-0.5-0.3-1.3,0.3-1.7l1-0.7
		c0.4-0.3,1-0.3,1.4,0l1,0.7C80.2,1.3,80.3,2,80,2.6C79.7,2.9,79.3,3.1,79,3.1"/>
	<path class="st0" d="M66.3,10.7c-0.4,0-0.7-0.2-1-0.5c-0.4-0.5-0.3-1.3,0.3-1.7l1.8-1.3c0.5-0.4,1.3-0.3,1.7,0.3
		c0.4,0.5,0.3,1.3-0.3,1.7L67,10.5C66.8,10.6,66.5,10.7,66.3,10.7 M71.7,6.9c-0.4,0-0.7-0.2-1-0.5c-0.4-0.5-0.3-1.3,0.3-1.7l1.8-1.3
		c0.5-0.4,1.3-0.3,1.7,0.3c0.4,0.5,0.3,1.3-0.3,1.7l-1.8,1.3C72.1,6.8,71.9,6.9,71.7,6.9"/>
	<path class="st0" d="M61.7,13.9c-0.2,0-0.5-0.1-0.7-0.2l-1-0.7c-0.5-0.4-0.7-1.1-0.3-1.7c0.4-0.5,1.1-0.7,1.7-0.3l0.3,0.2l0.3-0.2
		c0.5-0.4,1.3-0.3,1.7,0.3c0.4,0.5,0.3,1.3-0.3,1.7l-1,0.7C62.2,13.9,62,13.9,61.7,13.9"/>
	<path class="st0" d="M57.2,10.7c-0.2,0-0.5-0.1-0.7-0.2l-1.8-1.3c-0.5-0.4-0.7-1.1-0.3-1.7c0.4-0.5,1.1-0.7,1.7-0.3l1.8,1.3
		c0.5,0.4,0.7,1.1,0.3,1.7C57.9,10.5,57.5,10.7,57.2,10.7 M51.8,6.9c-0.2,0-0.5-0.1-0.7-0.2l-1.8-1.3C48.8,5,48.7,4.3,49,3.7
		c0.4-0.5,1.1-0.7,1.7-0.3l1.8,1.3c0.5,0.4,0.7,1.1,0.3,1.7C52.5,6.7,52.2,6.9,51.8,6.9"/>
	<path class="st0" d="M46.4,3.1c-0.2,0-0.5-0.1-0.7-0.2l-0.3-0.2l-0.3,0.2c-0.5,0.4-1.3,0.3-1.7-0.3c-0.4-0.5-0.3-1.3,0.3-1.7l1-0.7
		c0.4-0.3,1-0.3,1.4,0l1,0.7c0.5,0.4,0.7,1.1,0.3,1.7C47.2,2.9,46.8,3.1,46.4,3.1"/>
	<path class="st0" d="M33.7,10.7c-0.4,0-0.7-0.2-1-0.5c-0.4-0.5-0.3-1.3,0.3-1.7l1.8-1.3c0.5-0.4,1.3-0.3,1.7,0.3
		c0.4,0.5,0.3,1.3-0.3,1.7l-1.8,1.3C34.2,10.6,34,10.7,33.7,10.7 M39.1,6.9c-0.4,0-0.7-0.2-1-0.5c-0.4-0.5-0.3-1.3,0.3-1.7l1.8-1.3
		c0.5-0.4,1.3-0.3,1.7,0.3c0.4,0.5,0.3,1.3-0.3,1.7l-1.8,1.3C39.6,6.8,39.4,6.9,39.1,6.9"/>
	<path class="st0" d="M29.2,13.9c-0.2,0-0.5-0.1-0.7-0.2l-1-0.7c-0.5-0.4-0.7-1.1-0.3-1.7c0.4-0.5,1.1-0.7,1.7-0.3l0.3,0.2l0.3-0.2
		c0.5-0.4,1.3-0.3,1.7,0.3c0.4,0.5,0.3,1.3-0.3,1.7l-1,0.7C29.7,13.9,29.4,13.9,29.2,13.9"/>
	<path class="st0" d="M24.6,10.7c-0.2,0-0.5-0.1-0.7-0.2l-1.8-1.3c-0.5-0.4-0.7-1.1-0.3-1.7C22.2,7,23,6.9,23.5,7.3l1.8,1.3
		c0.5,0.4,0.7,1.1,0.3,1.7C25.4,10.5,25,10.7,24.6,10.7 M19.3,6.9c-0.2,0-0.5-0.1-0.7-0.2l-1.8-1.3c-0.5-0.4-0.7-1.1-0.3-1.7
		c0.4-0.5,1.1-0.7,1.7-0.3L20,4.7c0.5,0.4,0.7,1.1,0.3,1.7C20,6.7,19.6,6.9,19.3,6.9"/>
	<path class="st0" d="M13.9,3.1c-0.2,0-0.5-0.1-0.7-0.2l-0.3-0.2l-0.3,0.2c-0.5,0.4-1.3,0.3-1.7-0.3c-0.4-0.5-0.3-1.3,0.3-1.7l1-0.7
		c0.4-0.3,1-0.3,1.4,0l1,0.7c0.5,0.4,0.7,1.1,0.3,1.7C14.6,2.9,14.3,3.1,13.9,3.1"/>
	<path class="st0" d="M1.2,10.7c-0.4,0-0.7-0.2-1-0.5C-0.2,9.7,0,8.9,0.5,8.5l1.8-1.3C2.8,6.9,3.6,7,4,7.5c0.4,0.5,0.3,1.3-0.3,1.7
		l-1.8,1.3C1.7,10.6,1.4,10.7,1.2,10.7 M6.6,6.9c-0.4,0-0.7-0.2-1-0.5C5.2,5.9,5.3,5.1,5.9,4.7l1.8-1.3C8.2,3.1,9,3.2,9.3,3.7
		C9.7,4.3,9.6,5,9.1,5.4L7.3,6.7C7.1,6.8,6.8,6.9,6.6,6.9"/>
</g>
</svg>
