<?xml version="1.0" encoding="utf-8"?>
<!-- Generator: Adobe Illustrator 22.0.1, SVG Export Plug-In . SVG Version: 6.00 Build 0)  -->
<svg version="1.1" id="Layer_1" xmlns="http://www.w3.org/2000/svg" xmlns:xlink="http://www.w3.org/1999/xlink" x="0px" y="0px"
	 width="321.9px" height="22.5px" viewBox="0 0 321.9 22.5" style="enable-background:new 0 0 321.9 22.5;" xml:space="preserve">
<style type="text/css">
	.st0{fill:#FFE98A;}
</style>
<path class="st0" d="M288.5,22.5c-0.8,0-1.5,0-2.2-0.1c-1.2-0.1-2-1.2-1.9-2.3c0.1-1.2,1.2-2,2.3-1.9c0.9,0.1,1.8,0.1,2.7,0.1
	c1.2-0.1,2.2,0.8,2.2,2c0.1,1.2-0.8,2.2-2,2.2C289.2,22.5,288.8,22.5,288.5,22.5 M33.9,22.5c-0.6,0-1.2,0-1.7-0.1
	c-1.2-0.1-2-1.1-2-2.3c0.1-1.2,1.1-2.1,2.3-2c0.9,0.1,1.8,0.1,2.7,0c1.2-0.1,2.2,0.8,2.3,2c0.1,1.2-0.8,2.2-2,2.3
	C35,22.5,34.5,22.5,33.9,22.5 M226,22.5c-1.1,0-2.1-0.9-2.1-2c-0.1-1.2,0.8-2.2,2-2.3c0.9-0.1,1.8-0.2,2.6-0.4
	c1.1-0.3,2.3,0.4,2.6,1.6c0.3,1.1-0.4,2.3-1.6,2.6c-1.1,0.3-2.2,0.4-3.4,0.5C226.1,22.5,226,22.5,226,22.5 M95.9,22.4
	c-0.1,0-0.1,0-0.2,0c-1.2-0.1-2.3-0.3-3.4-0.6c-1.1-0.3-1.8-1.5-1.5-2.6c0.3-1.1,1.5-1.8,2.6-1.5c0.8,0.2,1.7,0.4,2.6,0.5
	c1.2,0.1,2,1.1,1.9,2.3C97.9,21.6,97,22.4,95.9,22.4 M165.5,22c-1,0-1.8-0.7-2.1-1.6c-0.3-1.1,0.4-2.3,1.6-2.6
	c0.9-0.2,1.7-0.5,2.5-0.9c1.1-0.5,2.3,0,2.8,1c0.5,1.1,0,2.3-1,2.8c-1,0.5-2.1,0.9-3.3,1.2C165.8,22,165.6,22,165.5,22 M156.4,21.9
	c-0.2,0-0.4,0-0.6-0.1c-1.1-0.3-2.2-0.7-3.2-1.3c-1-0.5-1.5-1.8-0.9-2.9c0.5-1,1.8-1.5,2.9-0.9c0.8,0.4,1.6,0.7,2.4,1
	c1.1,0.3,1.8,1.5,1.5,2.6C158.2,21.3,157.4,21.9,156.4,21.9 M104.8,21c-0.8,0-1.6-0.4-1.9-1.2c-0.5-1.1-0.1-2.3,1-2.8
	c0.8-0.4,1.5-0.8,2.3-1.4c1-0.7,2.3-0.5,3,0.5c0.7,1,0.5,2.3-0.5,3c-1,0.7-1.9,1.3-2.9,1.8C105.4,20.9,105.1,21,104.8,21
	 M217.1,20.7c-0.3,0-0.7-0.1-1-0.2c-1-0.5-1.9-1.1-2.9-1.8c-0.9-0.7-1.1-2.1-0.4-3c0.7-0.9,2.1-1.1,3-0.4c0.7,0.6,1.5,1,2.2,1.4
	c1,0.5,1.5,1.8,0.9,2.9C218.7,20.3,217.9,20.7,217.1,20.7 M298,19.6c-0.7,0-1.3-0.3-1.8-0.9c-0.7-1-0.4-2.3,0.5-3
	c0.7-0.5,1.4-1.1,2.1-1.7c0.9-0.8,2.2-0.8,3,0.1c0.8,0.9,0.8,2.2-0.1,3c-0.9,0.8-1.7,1.5-2.6,2.1C298.9,19.5,298.4,19.6,298,19.6
	 M43.9,19.3c-0.7,0-1.3-0.3-1.7-0.9c-0.7-1-0.5-2.3,0.5-3c0.7-0.5,1.4-1.1,2.1-1.8c0.9-0.8,2.2-0.8,3,0.1c0.8,0.9,0.8,2.2-0.1,3
	c-0.9,0.8-1.7,1.5-2.5,2.1C44.7,19.2,44.3,19.3,43.9,19.3 M24,19.3c-0.4,0-0.9-0.1-1.3-0.4c-0.8-0.6-1.7-1.3-2.5-2.2
	c-0.8-0.8-0.9-2.2-0.1-3c0.8-0.8,2.2-0.9,3-0.1c0.7,0.7,1.4,1.3,2.1,1.8c0.9,0.7,1.1,2,0.4,3C25.3,19,24.6,19.3,24,19.3 M278.1,19
	c-0.5,0-0.9-0.1-1.3-0.4c-0.8-0.6-1.6-1.3-2.5-2.2c-0.8-0.8-0.8-2.2,0-3c0.8-0.8,2.2-0.8,3,0c0.7,0.7,1.4,1.3,2.1,1.9
	c0.9,0.7,1.1,2.1,0.4,3C279.4,18.7,278.8,19,278.1,19 M236.8,17.6c-0.6,0-1.1-0.2-1.6-0.7c-0.8-0.9-0.8-2.2,0.1-3
	c0.6-0.6,1.3-1.2,2-2.1c0.8-0.9,2.1-0.9,3-0.1c0.9,0.8,0.9,2.1,0.1,3c-0.8,0.9-1.5,1.6-2.2,2.3C237.9,17.4,237.3,17.6,236.8,17.6
	 M85.2,17.2c-0.5,0-1.1-0.2-1.5-0.6c-0.7-0.7-1.4-1.4-2.2-2.3c-0.8-0.9-0.7-2.2,0.2-3c0.9-0.8,2.2-0.7,3,0.2c0.8,0.9,1.4,1.5,2,2.1
	c0.8,0.8,0.9,2.2,0,3C86.3,17,85.7,17.2,85.2,17.2 M175.4,15.3c-0.5,0-1-0.2-1.4-0.6c-0.9-0.8-0.9-2.1-0.1-3
	c0.6-0.6,1.1-1.3,1.7-1.9l0.3-0.4c0.8-0.9,2.1-1,3-0.2c0.9,0.8,1,2.1,0.2,3l-0.3,0.4c-0.6,0.7-1.2,1.3-1.7,2
	C176.6,15.1,176,15.3,175.4,15.3 M146.6,14.9c-0.6,0-1.2-0.2-1.6-0.7c-0.5-0.5-0.9-1-1.4-1.6l-0.7-0.8c-0.8-0.9-0.7-2.2,0.2-3
	c0.9-0.8,2.2-0.7,3,0.2l0.7,0.8c0.4,0.5,0.9,1,1.3,1.5c0.8,0.9,0.7,2.2-0.2,3C147.7,14.7,147.2,14.9,146.6,14.9 M113.9,13
	c-0.5,0-1-0.2-1.4-0.5c-0.9-0.8-1-2.1-0.2-3c0.8-0.9,1.4-1.6,2.1-2.3c0.8-0.9,2.2-0.9,3-0.1c0.9,0.8,0.9,2.2,0.1,3
	c-0.6,0.7-1.3,1.4-2,2.2C115,12.7,114.4,13,113.9,13 M208.2,12.6c-0.6,0-1.2-0.2-1.6-0.7c-0.6-0.7-1.3-1.4-2-2.2
	c-0.8-0.8-0.8-2.2,0-3c0.8-0.8,2.2-0.8,3,0c0.8,0.8,1.5,1.6,2.1,2.3c0.8,0.9,0.7,2.2-0.2,3C209.2,12.4,208.7,12.6,208.2,12.6
	 M306.6,10.9c-0.5,0-1-0.2-1.5-0.6c-0.9-0.8-0.9-2.2-0.1-3c0.8-0.9,1.6-1.6,2.3-2.3c0.9-0.8,2.2-0.7,3,0.2c0.8,0.9,0.7,2.2-0.2,3
	c-0.6,0.6-1.3,1.2-2,2C307.7,10.7,307.1,10.9,306.6,10.9 M52.3,10.6c-0.5,0-1.1-0.2-1.5-0.6C50,9.2,50,7.9,50.8,7
	c0.8-0.9,1.6-1.6,2.3-2.3C54,4,55.4,4.1,56.2,5c0.8,0.9,0.7,2.2-0.2,3c-0.6,0.6-1.3,1.2-2,2C53.5,10.4,52.9,10.6,52.3,10.6
	 M15.5,10.5c-0.6,0-1.1-0.2-1.5-0.7c-0.7-0.8-1.4-1.4-2-2c-0.9-0.8-1-2.1-0.2-3c0.8-0.9,2.1-1,3-0.2c0.8,0.6,1.5,1.4,2.4,2.3
	c0.8,0.9,0.8,2.2-0.1,3C16.5,10.3,16,10.5,15.5,10.5 M269.7,10.2c-0.6,0-1.1-0.2-1.5-0.6c-0.7-0.7-1.4-1.4-2.1-1.9
	c-0.9-0.7-1-2.1-0.3-3c0.7-0.9,2.1-1,3-0.3c0.8,0.6,1.6,1.4,2.4,2.2c0.8,0.8,0.8,2.2,0,3C270.8,10,270.2,10.2,269.7,10.2 M245.2,8.7
	c-0.6,0-1.2-0.2-1.6-0.7c-0.8-0.9-0.7-2.2,0.2-3c0.9-0.8,1.8-1.5,2.7-2c1-0.6,2.3-0.4,3,0.6c0.6,1,0.4,2.3-0.6,3
	c-0.7,0.5-1.4,1-2.2,1.7C246.2,8.5,245.7,8.7,245.2,8.7 M76.8,8.4c-0.5,0-1-0.2-1.4-0.5c-0.7-0.6-1.5-1.1-2.2-1.6
	c-1-0.6-1.3-1.9-0.7-2.9c0.6-1,1.9-1.3,2.9-0.7c0.9,0.6,1.8,1.2,2.7,2c0.9,0.8,1,2.1,0.2,3C78,8.1,77.4,8.4,76.8,8.4 M184.1,6.8
	c-0.7,0-1.4-0.3-1.8-1c-0.6-1-0.3-2.3,0.6-2.9c1-0.6,2-1.2,3.1-1.6c1.1-0.4,2.3,0.1,2.8,1.2c0.4,1.1-0.1,2.3-1.2,2.8
	c-0.8,0.3-1.6,0.7-2.3,1.2C184.8,6.7,184.4,6.8,184.1,6.8 M137.9,6.5c-0.4,0-0.7-0.1-1.1-0.3c-0.8-0.5-1.6-0.8-2.4-1.1
	c-1.1-0.4-1.7-1.6-1.3-2.7c0.4-1.1,1.6-1.7,2.7-1.3c1.1,0.4,2.1,0.9,3.1,1.5c1,0.6,1.3,1.9,0.7,2.9C139.3,6.1,138.6,6.5,137.9,6.5
	 M123.2,5.4c-0.9,0-1.7-0.5-2-1.4c-0.4-1.1,0.1-2.3,1.2-2.8c1.1-0.4,2.2-0.7,3.3-0.9c1.2-0.2,2.3,0.6,2.5,1.7
	c0.2,1.2-0.6,2.3-1.7,2.5c-0.9,0.2-1.7,0.4-2.5,0.7C123.7,5.3,123.5,5.4,123.2,5.4 M198.7,5.2c-0.2,0-0.5,0-0.7-0.1
	c-0.8-0.3-1.7-0.5-2.6-0.6c-1.2-0.2-2-1.3-1.8-2.4s1.3-2,2.4-1.8c1.2,0.2,2.3,0.4,3.3,0.8c1.1,0.4,1.7,1.6,1.3,2.7
	C200.4,4.6,199.6,5.2,198.7,5.2 M316.7,4.6c-1,0-1.9-0.7-2.1-1.7c-0.2-1.2,0.5-2.3,1.7-2.5c1.1-0.2,2.2-0.3,3.4-0.4
	c1.2,0,2.2,0.9,2.2,2.1c0,1.2-0.9,2.2-2.1,2.2c-0.9,0-1.8,0.1-2.7,0.3C317,4.6,316.8,4.6,316.7,4.6 M62.6,4.5c-1,0-1.9-0.7-2.1-1.8
	c-0.2-1.2,0.6-2.3,1.7-2.5C63.3,0.1,64.5,0,65.6,0c1.2,0,2.1,0.9,2.1,2.1c0,1.2-0.9,2.1-2.1,2.1c-0.9,0-1.8,0.1-2.7,0.2
	C62.9,4.5,62.7,4.5,62.6,4.5 M5.2,4.5c-0.1,0-0.2,0-0.4,0C4,4.3,3.1,4.3,2.1,4.3C1,4.3,0,3.3,0,2.1C0,1,1,0,2.1,0
	c1.2,0,2.3,0.1,3.4,0.3c1.2,0.2,1.9,1.3,1.8,2.5C7.1,3.8,6.2,4.5,5.2,4.5 M259.2,4.4c-0.1,0-0.2,0-0.3,0c-0.9-0.1-1.8-0.2-2.7-0.2
	c-1.2,0-2.2-0.9-2.2-2.1c0-1.2,0.9-2.2,2.1-2.2c1.1,0,2.3,0,3.4,0.2c1.2,0.2,2,1.2,1.8,2.4C261.2,3.7,260.3,4.4,259.2,4.4"/>
</svg>
