<?xml version="1.0" encoding="utf-8"?>
<!-- Generator: Adobe Illustrator 22.0.1, SVG Export Plug-In . SVG Version: 6.00 Build 0)  -->
<svg version="1.1" id="Layer_1" xmlns="http://www.w3.org/2000/svg" xmlns:xlink="http://www.w3.org/1999/xlink" x="0px" y="0px"
	 width="97.6px" height="65.8px" viewBox="0 0 97.6 65.8" style="enable-background:new 0 0 97.6 65.8;" xml:space="preserve">
<style type="text/css">
	.st0{fill:#E20071;}
	.st1{fill:#FFF2BB;}
</style>
<g>
	<path class="st0" d="M5.1,7.9c2.2,0,4-1.8,4-4c0-2.2-1.8-4-4-4c-2.2,0-4,1.8-4,4C1.1,6.2,2.9,7.9,5.1,7.9"/>
	<path class="st0" d="M10.2,8.8H0v13.3h1v6.2C1,29.2,1.7,30,2.6,30c0.9,0,1.6-0.7,1.6-1.6v-6.2H6v6.2C6,29.2,6.7,30,7.6,30
		c0.9,0,1.6-0.7,1.6-1.6v-6.2h1V8.8z"/>
	<path class="st0" d="M26.9,7.9c2.2,0,4-1.8,4-4c0-2.2-1.8-4-4-4c-2.2,0-4,1.8-4,4C23,6.2,24.8,7.9,26.9,7.9"/>
	<path class="st0" d="M32.1,8.8H21.8v13.3h1v6.2c0,0.9,0.7,1.6,1.6,1.6c0.9,0,1.6-0.7,1.6-1.6v-6.2h1.7v6.2c0,0.9,0.7,1.6,1.6,1.6
		c0.9,0,1.6-0.7,1.6-1.6v-6.2h1V8.8z"/>
	<path class="st0" d="M48.8,7.9c2.2,0,4-1.8,4-4c0-2.2-1.8-4-4-4c-2.2,0-4,1.8-4,4C44.8,6.2,46.6,7.9,48.8,7.9"/>
	<path class="st0" d="M53.9,8.8H43.7v13.3h1v6.2c0,0.9,0.7,1.6,1.6,1.6c0.9,0,1.6-0.7,1.6-1.6v-6.2h1.7v6.2c0,0.9,0.7,1.6,1.6,1.6
		c0.9,0,1.6-0.7,1.6-1.6v-6.2h1V8.8z"/>
	<path class="st1" d="M92.5,7.9c2.2,0,4-1.8,4-4c0-2.2-1.8-4-4-4c-2.2,0-4,1.8-4,4C88.5,6.2,90.3,7.9,92.5,7.9"/>
	<path class="st1" d="M97.6,8.8H87.4v13.3h1v6.2c0,0.9,0.7,1.6,1.6,1.6s1.6-0.7,1.6-1.6v-6.2h1.7v6.2c0,0.9,0.7,1.6,1.6,1.6
		c0.9,0,1.6-0.7,1.6-1.6v-6.2h1V8.8z"/>
	<path class="st1" d="M70.6,43.7c2.2,0,4-1.8,4-4s-1.8-4-4-4c-2.2,0-4,1.8-4,4S68.4,43.7,70.6,43.7"/>
	<path class="st1" d="M5.1,43.7c2.2,0,4-1.8,4-4s-1.8-4-4-4c-2.2,0-4,1.8-4,4S2.9,43.7,5.1,43.7"/>
	<path class="st1" d="M10.2,44.6H0v13.3h1v6.2c0,0.9,0.7,1.6,1.6,1.6c0.9,0,1.6-0.7,1.6-1.6v-6.2H6v6.2c0,0.9,0.7,1.6,1.6,1.6
		c0.9,0,1.6-0.7,1.6-1.6v-6.2h1V44.6z"/>
	<path class="st1" d="M26.9,43.7c2.2,0,4-1.8,4-4s-1.8-4-4-4c-2.2,0-4,1.8-4,4S24.8,43.7,26.9,43.7"/>
	<path class="st1" d="M32.1,44.6H21.8v13.3h1v6.2c0,0.9,0.7,1.6,1.6,1.6c0.9,0,1.6-0.7,1.6-1.6v-6.2h1.7v6.2c0,0.9,0.7,1.6,1.6,1.6
		c0.9,0,1.6-0.7,1.6-1.6v-6.2h1V44.6z"/>
	<path class="st1" d="M48.8,43.7c2.2,0,4-1.8,4-4s-1.8-4-4-4c-2.2,0-4,1.8-4,4S46.6,43.7,48.8,43.7"/>
	<path class="st1" d="M53.9,44.6H43.7v13.3h1v6.2c0,0.9,0.7,1.6,1.6,1.6c0.9,0,1.6-0.7,1.6-1.6v-6.2h1.7v6.2c0,0.9,0.7,1.6,1.6,1.6
		c0.9,0,1.6-0.7,1.6-1.6v-6.2h1V44.6z"/>
	<path class="st1" d="M75.7,44.6H65.5v13.3h1v6.2c0,0.9,0.7,1.6,1.6,1.6c0.9,0,1.6-0.7,1.6-1.6v-6.2h1.7v6.2c0,0.9,0.7,1.6,1.6,1.6
		c0.9,0,1.6-0.7,1.6-1.6v-6.2h1V44.6z"/>
	<path class="st1" d="M92.5,43.7c2.2,0,4-1.8,4-4s-1.8-4-4-4c-2.2,0-4,1.8-4,4S90.3,43.7,92.5,43.7"/>
	<path class="st1" d="M97.6,44.6H87.4v13.3h1v6.2c0,0.9,0.7,1.6,1.6,1.6s1.6-0.7,1.6-1.6v-6.2h1.7v6.2c0,0.9,0.7,1.6,1.6,1.6
		c0.9,0,1.6-0.7,1.6-1.6v-6.2h1V44.6z"/>
	<path class="st1" d="M74.6,4c0,2.2-1.8,4-4,4c-1.2,0-2.3-0.6-3.1-1.4V1.4C68.3,0.6,69.4,0,70.6,0C72.8,0,74.6,1.8,74.6,4"/>
	<path class="st1" d="M75.7,8.8v13.3h-1v6.2c0,0.9-0.7,1.6-1.6,1.6c-0.9,0-1.6-0.7-1.6-1.6v-6.2h-1.7v6.2c0,0.9-0.7,1.6-1.6,1.6
		c-0.2,0-0.4,0-0.6-0.1V8.8H75.7z"/>
	<path class="st0" d="M67.6,1.4v5.1C67,5.8,66.6,4.9,66.6,4C66.6,3,67,2.1,67.6,1.4"/>
	<path class="st0" d="M67.6,8.8v21.1c-0.6-0.2-1-0.8-1-1.5v-6.2h-1V8.8H67.6z"/>
</g>
</svg>
